<?xml version="1.0" encoding="UTF-8" standalone="no"?>
<!DOCTYPE svg PUBLIC "-//W3C//DTD SVG 1.1//EN"
 "http://www.w3.org/Graphics/SVG/1.1/DTD/svg11.dtd">
<!-- Generated by graphviz version 2.42.3 (20191010.1750)
 -->
<!-- Title: %3 Pages: 1 -->
<svg width="171pt" height="469pt"
 viewBox="0.00 0.00 171.21 469.00" xmlns="http://www.w3.org/2000/svg" xmlns:xlink="http://www.w3.org/1999/xlink">
<g id="graph0" class="graph" transform="scale(1 1) rotate(0) translate(4 465)">
<title>%3</title>
<polygon fill="white" stroke="transparent" points="-4,4 -4,-465 167.21,-465 167.21,4 -4,4"/>
<!-- fake -->
<g id="node1" class="node">
<title>fake</title>
</g>
<!-- 0 -->
<g id="node4" class="node">
<title>0</title>
<ellipse fill="none" stroke="black" cx="93" cy="-370" rx="27" ry="18"/>
<text text-anchor="middle" x="93" y="-365.8" font-family="Times,serif" font-size="14.00">0</text>
</g>
<!-- fake&#45;&gt;0 -->
<g id="edge1" class="edge">
<title>fake&#45;&gt;0</title>
<path fill="none" stroke="black" stroke-width="2" d="M93,-424.81C93,-416.79 93,-407.05 93,-398.07"/>
<polygon fill="black" stroke="black" stroke-width="2" points="96.5,-398.03 93,-388.03 89.5,-398.03 96.5,-398.03"/>
</g>
<!-- 2 -->
<g id="node2" class="node">
<title>2</title>
<ellipse fill="none" stroke="black" cx="27" cy="-284" rx="27" ry="18"/>
<text text-anchor="middle" x="27" y="-279.8" font-family="Times,serif" font-size="14.00">2</text>
</g>
<!-- 2&#45;&gt;2 -->
<g id="edge7" class="edge">
<title>2&#45;&gt;2</title>
<path fill="none" stroke="black" d="M51.53,-291.75C62.51,-292.49 72,-289.91 72,-284 72,-280.03 67.72,-277.56 61.57,-276.59"/>
<polygon fill="black" stroke="black" points="61.65,-273.09 51.53,-276.25 61.41,-280.09 61.65,-273.09"/>
<text text-anchor="middle" x="75.5" y="-279.8" font-family="Times,serif" font-size="14.00">b</text>
</g>
<!-- 1 -->
<g id="node6" class="node">
<title>1</title>
<ellipse fill="none" stroke="black" cx="112" cy="-198" rx="27" ry="18"/>
<text text-anchor="middle" x="112" y="-193.8" font-family="Times,serif" font-size="14.00">1</text>
</g>
<!-- 2&#45;&gt;1 -->
<g id="edge6" class="edge">
<title>2&#45;&gt;1</title>
<path fill="none" stroke="black" d="M41.42,-268.75C54.73,-255.6 74.69,-235.87 89.99,-220.75"/>
<polygon fill="black" stroke="black" points="92.86,-222.84 97.51,-213.32 87.94,-217.86 92.86,-222.84"/>
<text text-anchor="middle" x="78.11" y="-236.8" font-family="Times,serif" font-size="14.00">a</text>
</g>
<!-- 4 -->
<g id="node3" class="node">
<title>4</title>
<ellipse fill="none" stroke="black" cx="82" cy="-22" rx="18" ry="18"/>
<ellipse fill="none" stroke="black" cx="82" cy="-22" rx="22" ry="22"/>
<text text-anchor="middle" x="82" y="-17.8" font-family="Times,serif" font-size="14.00">4</text>
</g>
<!-- 4&#45;&gt;2 -->
<g id="edge11" class="edge">
<title>4&#45;&gt;2</title>
<path fill="none" stroke="black" d="M70.57,-40.91C62.28,-54.82 51.59,-74.9 46,-94 29.64,-149.88 26.81,-218.59 26.63,-255.85"/>
<polygon fill="black" stroke="black" points="23.13,-255.92 26.64,-265.92 30.13,-255.91 23.13,-255.92"/>
<text text-anchor="middle" x="38.5" y="-150.8" font-family="Times,serif" font-size="14.00">b</text>
</g>
<!-- 4&#45;&gt;1 -->
<g id="edge10" class="edge">
<title>4&#45;&gt;1</title>
<path fill="none" stroke="black" d="M93.99,-40.76C102.56,-54.6 113.37,-74.64 118,-94 124.03,-119.22 121.32,-148.85 117.83,-169.85"/>
<polygon fill="black" stroke="black" points="114.33,-169.5 115.97,-179.96 121.22,-170.76 114.33,-169.5"/>
<text text-anchor="middle" x="124.11" y="-107.8" font-family="Times,serif" font-size="14.00">a</text>
</g>
<!-- 0&#45;&gt;2 -->
<g id="edge3" class="edge">
<title>0&#45;&gt;2</title>
<path fill="none" stroke="black" d="M80.89,-353.59C70.94,-340.92 56.68,-322.77 45.32,-308.32"/>
<polygon fill="black" stroke="black" points="47.96,-306.01 39.03,-300.31 42.45,-310.33 47.96,-306.01"/>
<text text-anchor="middle" x="67.5" y="-322.8" font-family="Times,serif" font-size="14.00">b</text>
</g>
<!-- 0&#45;&gt;1 -->
<g id="edge2" class="edge">
<title>0&#45;&gt;1</title>
<path fill="none" stroke="black" d="M94.93,-351.76C98.24,-322.16 105.02,-261.43 108.97,-226.11"/>
<polygon fill="black" stroke="black" points="112.46,-226.36 110.1,-216.03 105.51,-225.58 112.46,-226.36"/>
<text text-anchor="middle" x="107.11" y="-279.8" font-family="Times,serif" font-size="14.00">a</text>
</g>
<!-- 3 -->
<g id="node5" class="node">
<title>3</title>
<ellipse fill="none" stroke="black" cx="82" cy="-112" rx="27" ry="18"/>
<text text-anchor="middle" x="82" y="-107.8" font-family="Times,serif" font-size="14.00">3</text>
</g>
<!-- 3&#45;&gt;4 -->
<g id="edge9" class="edge">
<title>3&#45;&gt;4</title>
<path fill="none" stroke="black" d="M82,-93.61C82,-82.39 82,-67.46 82,-54.23"/>
<polygon fill="black" stroke="black" points="85.5,-54.07 82,-44.07 78.5,-54.07 85.5,-54.07"/>
<text text-anchor="middle" x="85.5" y="-64.8" font-family="Times,serif" font-size="14.00">b</text>
</g>
<!-- 3&#45;&gt;1 -->
<g id="edge8" class="edge">
<title>3&#45;&gt;1</title>
<path fill="none" stroke="black" d="M88.02,-129.85C92.2,-141.57 97.87,-157.42 102.64,-170.78"/>
<polygon fill="black" stroke="black" points="99.41,-172.16 106.07,-180.4 106.01,-169.81 99.41,-172.16"/>
<text text-anchor="middle" x="101.11" y="-150.8" font-family="Times,serif" font-size="14.00">a</text>
</g>
<!-- 1&#45;&gt;3 -->
<g id="edge5" class="edge">
<title>1&#45;&gt;3</title>
<path fill="none" stroke="black" d="M97.71,-182.54C92.79,-176.65 87.8,-169.47 85,-162 82.46,-155.25 81.28,-147.6 80.82,-140.39"/>
<polygon fill="black" stroke="black" points="84.32,-140.22 80.62,-130.3 77.32,-140.37 84.32,-140.22"/>
<text text-anchor="middle" x="88.5" y="-150.8" font-family="Times,serif" font-size="14.00">b</text>
</g>
<!-- 1&#45;&gt;1 -->
<g id="edge4" class="edge">
<title>1&#45;&gt;1</title>
<path fill="none" stroke="black" d="M136.53,-205.75C147.51,-206.49 157,-203.91 157,-198 157,-194.03 152.72,-191.56 146.57,-190.59"/>
<polygon fill="black" stroke="black" points="146.65,-187.09 136.53,-190.25 146.41,-194.09 146.65,-187.09"/>
<text text-anchor="middle" x="160.11" y="-193.8" font-family="Times,serif" font-size="14.00">a</text>
</g>
</g>
</svg>
