<?xml version="1.0" encoding="UTF-8" standalone="no"?>
<!DOCTYPE svg PUBLIC "-//W3C//DTD SVG 1.1//EN"
 "http://www.w3.org/Graphics/SVG/1.1/DTD/svg11.dtd">
<!-- Generated by graphviz version 2.42.3 (20191010.1750)
 -->
<!-- Title: %3 Pages: 1 -->
<svg width="343pt" height="815pt"
 viewBox="0.00 0.00 342.84 814.90" xmlns="http://www.w3.org/2000/svg" xmlns:xlink="http://www.w3.org/1999/xlink">
<g id="graph0" class="graph" transform="scale(1 1) rotate(0) translate(4 810.9)">
<title>%3</title>
<polygon fill="white" stroke="transparent" points="-4,4 -4,-810.9 338.84,-810.9 338.84,4 -4,4"/>
<!-- fake0 -->
<g id="node1" class="node">
<title>fake0</title>
</g>
<!-- 10 -->
<g id="node5" class="node">
<title>10</title>
<ellipse fill="none" stroke="black" cx="254.63" cy="-715.9" rx="27" ry="18"/>
<text text-anchor="middle" x="254.63" y="-711.7" font-family="Times,serif" font-size="14.00">10</text>
</g>
<!-- fake0&#45;&gt;10 -->
<g id="edge1" class="edge">
<title>fake0&#45;&gt;10</title>
<path fill="none" stroke="black" stroke-width="2" d="M254.63,-770.71C254.63,-762.69 254.63,-752.95 254.63,-743.97"/>
<polygon fill="black" stroke="black" stroke-width="2" points="258.13,-743.93 254.63,-733.93 251.13,-743.93 258.13,-743.93"/>
</g>
<!-- 8 -->
<g id="node2" class="node">
<title>8</title>
<ellipse fill="none" stroke="black" cx="57.63" cy="-543.9" rx="27" ry="18"/>
<text text-anchor="middle" x="57.63" y="-539.7" font-family="Times,serif" font-size="14.00">8</text>
</g>
<!-- 9 -->
<g id="node14" class="node">
<title>9</title>
<ellipse fill="none" stroke="black" cx="57.63" cy="-457.9" rx="27" ry="18"/>
<text text-anchor="middle" x="57.63" y="-453.7" font-family="Times,serif" font-size="14.00">9</text>
</g>
<!-- 8&#45;&gt;9 -->
<g id="edge12" class="edge">
<title>8&#45;&gt;9</title>
<path fill="none" stroke="black" d="M57.63,-525.5C57.63,-514.16 57.63,-499.13 57.63,-486.22"/>
<polygon fill="black" stroke="black" points="61.13,-486 57.63,-476 54.13,-486 61.13,-486"/>
<text text-anchor="middle" x="61.13" y="-496.7" font-family="Times,serif" font-size="14.00">3</text>
</g>
<!-- 2 -->
<g id="node3" class="node">
<title>2</title>
<ellipse fill="none" stroke="black" cx="129.63" cy="-543.9" rx="27" ry="18"/>
<text text-anchor="middle" x="129.63" y="-539.7" font-family="Times,serif" font-size="14.00">2</text>
</g>
<!-- 3 -->
<g id="node4" class="node">
<title>3</title>
<ellipse fill="none" stroke="black" cx="129.63" cy="-457.9" rx="27" ry="18"/>
<text text-anchor="middle" x="129.63" y="-453.7" font-family="Times,serif" font-size="14.00">3</text>
</g>
<!-- 2&#45;&gt;3 -->
<g id="edge3" class="edge">
<title>2&#45;&gt;3</title>
<path fill="none" stroke="black" d="M129.63,-525.5C129.63,-514.16 129.63,-499.13 129.63,-486.22"/>
<polygon fill="black" stroke="black" points="133.13,-486 129.63,-476 126.13,-486 133.13,-486"/>
<text text-anchor="middle" x="133.13" y="-496.7" font-family="Times,serif" font-size="14.00">1</text>
</g>
<!-- 5 -->
<g id="node12" class="node">
<title>5</title>
<ellipse fill="none" stroke="black" cx="160.63" cy="-371.9" rx="27" ry="18"/>
<text text-anchor="middle" x="160.63" y="-367.7" font-family="Times,serif" font-size="14.00">5</text>
</g>
<!-- 3&#45;&gt;5 -->
<g id="edge9" class="edge">
<title>3&#45;&gt;5</title>
<path fill="none" stroke="black" d="M135.75,-440.3C140.09,-428.57 145.98,-412.6 150.94,-399.14"/>
<polygon fill="black" stroke="black" points="154.34,-400.06 154.52,-389.46 147.77,-397.63 154.34,-400.06"/>
<text text-anchor="middle" x="149.74" y="-410.7" font-family="Times,serif" font-size="14.00">e</text>
</g>
<!-- 4 -->
<g id="node13" class="node">
<title>4</title>
<ellipse fill="none" stroke="black" cx="160.63" cy="-629.9" rx="27" ry="18"/>
<text text-anchor="middle" x="160.63" y="-625.7" font-family="Times,serif" font-size="14.00">4</text>
</g>
<!-- 10&#45;&gt;4 -->
<g id="edge15" class="edge">
<title>10&#45;&gt;4</title>
<path fill="none" stroke="black" d="M239.11,-701.03C224,-687.53 200.87,-666.86 183.63,-651.46"/>
<polygon fill="black" stroke="black" points="185.96,-648.85 176.18,-644.79 181.3,-654.07 185.96,-648.85"/>
<text text-anchor="middle" x="215.74" y="-668.7" font-family="Times,serif" font-size="14.00">e</text>
</g>
<!-- 11 -->
<g id="node15" class="node">
<title>11</title>
<ellipse fill="none" stroke="black" cx="264.63" cy="-285.9" rx="27" ry="18"/>
<text text-anchor="middle" x="264.63" y="-281.7" font-family="Times,serif" font-size="14.00">11</text>
</g>
<!-- 10&#45;&gt;11 -->
<g id="edge14" class="edge">
<title>10&#45;&gt;11</title>
<path fill="none" stroke="black" d="M274.85,-703.52C296.76,-689.52 328.63,-663.55 328.63,-630.9 328.63,-630.9 328.63,-630.9 328.63,-370.9 328.63,-344.51 308.39,-321.24 290.68,-305.92"/>
<polygon fill="black" stroke="black" points="292.75,-303.1 282.8,-299.46 288.31,-308.51 292.75,-303.1"/>
<text text-anchor="middle" x="331.74" y="-496.7" font-family="Times,serif" font-size="14.00">e</text>
</g>
<!-- 12 -->
<g id="node6" class="node">
<title>12</title>
<ellipse fill="none" stroke="black" cx="264.63" cy="-199.9" rx="27" ry="18"/>
<text text-anchor="middle" x="264.63" y="-195.7" font-family="Times,serif" font-size="14.00">12</text>
</g>
<!-- 13 -->
<g id="node7" class="node">
<title>13</title>
<ellipse fill="none" stroke="black" cx="264.63" cy="-113.9" rx="27" ry="18"/>
<text text-anchor="middle" x="264.63" y="-109.7" font-family="Times,serif" font-size="14.00">13</text>
</g>
<!-- 12&#45;&gt;13 -->
<g id="edge19" class="edge">
<title>12&#45;&gt;13</title>
<path fill="none" stroke="black" d="M264.63,-181.5C264.63,-170.16 264.63,-155.13 264.63,-142.22"/>
<polygon fill="black" stroke="black" points="268.13,-142 264.63,-132 261.13,-142 268.13,-142"/>
<text text-anchor="middle" x="268.13" y="-152.7" font-family="Times,serif" font-size="14.00">b</text>
</g>
<!-- 14 -->
<g id="node8" class="node">
<title>14</title>
<ellipse fill="none" stroke="black" cx="264.63" cy="-22.95" rx="18.91" ry="18.91"/>
<ellipse fill="none" stroke="black" cx="264.63" cy="-22.95" rx="22.9" ry="22.9"/>
<text text-anchor="middle" x="264.63" y="-18.75" font-family="Times,serif" font-size="14.00">14</text>
</g>
<!-- 13&#45;&gt;14 -->
<g id="edge20" class="edge">
<title>13&#45;&gt;14</title>
<path fill="none" stroke="black" d="M264.63,-95.75C264.63,-84.6 264.63,-69.7 264.63,-56.37"/>
<polygon fill="black" stroke="black" points="268.13,-56.11 264.63,-46.11 261.13,-56.11 268.13,-56.11"/>
<text text-anchor="middle" x="267.74" y="-66.7" font-family="Times,serif" font-size="14.00">c</text>
</g>
<!-- 0 -->
<g id="node9" class="node">
<title>0</title>
<ellipse fill="none" stroke="black" cx="201.63" cy="-543.9" rx="27" ry="18"/>
<text text-anchor="middle" x="201.63" y="-539.7" font-family="Times,serif" font-size="14.00">0</text>
</g>
<!-- 1 -->
<g id="node16" class="node">
<title>1</title>
<ellipse fill="none" stroke="black" cx="201.63" cy="-457.9" rx="27" ry="18"/>
<text text-anchor="middle" x="201.63" y="-453.7" font-family="Times,serif" font-size="14.00">1</text>
</g>
<!-- 0&#45;&gt;1 -->
<g id="edge2" class="edge">
<title>0&#45;&gt;1</title>
<path fill="none" stroke="black" d="M201.63,-525.5C201.63,-514.16 201.63,-499.13 201.63,-486.22"/>
<polygon fill="black" stroke="black" points="205.13,-486 201.63,-476 198.13,-486 205.13,-486"/>
<text text-anchor="middle" x="205.13" y="-496.7" font-family="Times,serif" font-size="14.00">0</text>
</g>
<!-- 7 -->
<g id="node10" class="node">
<title>7</title>
<ellipse fill="none" stroke="black" cx="273.63" cy="-457.9" rx="27" ry="18"/>
<text text-anchor="middle" x="273.63" y="-453.7" font-family="Times,serif" font-size="14.00">7</text>
</g>
<!-- 7&#45;&gt;5 -->
<g id="edge11" class="edge">
<title>7&#45;&gt;5</title>
<path fill="none" stroke="black" d="M255.97,-443.78C237.32,-429.91 207.7,-407.89 186.43,-392.08"/>
<polygon fill="black" stroke="black" points="188.28,-389.09 178.16,-385.93 184.1,-394.71 188.28,-389.09"/>
<text text-anchor="middle" x="226.74" y="-410.7" font-family="Times,serif" font-size="14.00">e</text>
</g>
<!-- 6 -->
<g id="node11" class="node">
<title>6</title>
<ellipse fill="none" stroke="black" cx="273.63" cy="-543.9" rx="27" ry="18"/>
<text text-anchor="middle" x="273.63" y="-539.7" font-family="Times,serif" font-size="14.00">6</text>
</g>
<!-- 6&#45;&gt;7 -->
<g id="edge10" class="edge">
<title>6&#45;&gt;7</title>
<path fill="none" stroke="black" d="M273.63,-525.5C273.63,-514.16 273.63,-499.13 273.63,-486.22"/>
<polygon fill="black" stroke="black" points="277.13,-486 273.63,-476 270.13,-486 277.13,-486"/>
<text text-anchor="middle" x="277.13" y="-496.7" font-family="Times,serif" font-size="14.00">2</text>
</g>
<!-- 5&#45;&gt;4 -->
<g id="edge17" class="edge">
<title>5&#45;&gt;4</title>
<path fill="none" stroke="black" d="M134.61,-376.97C101.73,-383.66 46.42,-400.43 21.63,-439.9 -7.21,-485.82 -7.21,-515.98 21.63,-561.9 44.1,-597.67 91.63,-614.8 124.82,-622.67"/>
<polygon fill="black" stroke="black" points="124.09,-626.1 134.61,-624.83 125.6,-619.26 124.09,-626.1"/>
<text text-anchor="middle" x="3.74" y="-496.7" font-family="Times,serif" font-size="14.00">e</text>
</g>
<!-- 5&#45;&gt;11 -->
<g id="edge16" class="edge">
<title>5&#45;&gt;11</title>
<path fill="none" stroke="black" d="M177.34,-357.4C194.32,-343.69 220.81,-322.29 240.16,-306.67"/>
<polygon fill="black" stroke="black" points="242.38,-309.37 247.96,-300.36 237.98,-303.92 242.38,-309.37"/>
<text text-anchor="middle" x="221.74" y="-324.7" font-family="Times,serif" font-size="14.00">e</text>
</g>
<!-- 4&#45;&gt;8 -->
<g id="edge4" class="edge">
<title>4&#45;&gt;8</title>
<path fill="none" stroke="black" d="M144.08,-615.4C127.34,-601.75 101.26,-580.48 82.13,-564.88"/>
<polygon fill="black" stroke="black" points="84.1,-561.97 74.14,-558.36 79.68,-567.4 84.1,-561.97"/>
<text text-anchor="middle" x="117.74" y="-582.7" font-family="Times,serif" font-size="14.00">e</text>
</g>
<!-- 4&#45;&gt;2 -->
<g id="edge5" class="edge">
<title>4&#45;&gt;2</title>
<path fill="none" stroke="black" d="M154.51,-612.3C150.17,-600.57 144.28,-584.6 139.32,-571.14"/>
<polygon fill="black" stroke="black" points="142.49,-569.63 135.74,-561.46 135.92,-572.06 142.49,-569.63"/>
<text text-anchor="middle" x="149.74" y="-582.7" font-family="Times,serif" font-size="14.00">e</text>
</g>
<!-- 4&#45;&gt;0 -->
<g id="edge6" class="edge">
<title>4&#45;&gt;0</title>
<path fill="none" stroke="black" d="M168.73,-612.3C174.55,-600.38 182.51,-584.07 189.14,-570.49"/>
<polygon fill="black" stroke="black" points="192.44,-571.7 193.69,-561.18 186.15,-568.63 192.44,-571.7"/>
<text text-anchor="middle" x="185.74" y="-582.7" font-family="Times,serif" font-size="14.00">e</text>
</g>
<!-- 4&#45;&gt;6 -->
<g id="edge7" class="edge">
<title>4&#45;&gt;6</title>
<path fill="none" stroke="black" d="M178.29,-615.78C196.94,-601.91 226.56,-579.89 247.83,-564.08"/>
<polygon fill="black" stroke="black" points="250.16,-566.71 256.1,-557.93 245.98,-561.09 250.16,-566.71"/>
<text text-anchor="middle" x="226.74" y="-582.7" font-family="Times,serif" font-size="14.00">e</text>
</g>
<!-- 9&#45;&gt;5 -->
<g id="edge13" class="edge">
<title>9&#45;&gt;5</title>
<path fill="none" stroke="black" d="M74.18,-443.4C90.92,-429.75 117,-408.48 136.13,-392.88"/>
<polygon fill="black" stroke="black" points="138.58,-395.4 144.12,-386.36 134.16,-389.97 138.58,-395.4"/>
<text text-anchor="middle" x="117.74" y="-410.7" font-family="Times,serif" font-size="14.00">e</text>
</g>
<!-- 11&#45;&gt;12 -->
<g id="edge18" class="edge">
<title>11&#45;&gt;12</title>
<path fill="none" stroke="black" d="M264.63,-267.5C264.63,-256.16 264.63,-241.13 264.63,-228.22"/>
<polygon fill="black" stroke="black" points="268.13,-228 264.63,-218 261.13,-228 268.13,-228"/>
<text text-anchor="middle" x="267.74" y="-238.7" font-family="Times,serif" font-size="14.00">a</text>
</g>
<!-- 1&#45;&gt;5 -->
<g id="edge8" class="edge">
<title>1&#45;&gt;5</title>
<path fill="none" stroke="black" d="M193.53,-440.3C187.71,-428.38 179.75,-412.07 173.12,-398.49"/>
<polygon fill="black" stroke="black" points="176.11,-396.63 168.57,-389.18 169.81,-399.7 176.11,-396.63"/>
<text text-anchor="middle" x="185.74" y="-410.7" font-family="Times,serif" font-size="14.00">e</text>
</g>
</g>
</svg>
