<?xml version="1.0" encoding="UTF-8" standalone="no"?>
<!DOCTYPE svg PUBLIC "-//W3C//DTD SVG 1.1//EN"
 "http://www.w3.org/Graphics/SVG/1.1/DTD/svg11.dtd">
<!-- Generated by graphviz version 2.40.1 (20161225.0304)
 -->
<!-- Title: %3 Pages: 1 -->
<svg width="310pt" height="734pt"
 viewBox="0.00 0.00 309.83 734.00" xmlns="http://www.w3.org/2000/svg" xmlns:xlink="http://www.w3.org/1999/xlink">
<g id="graph0" class="graph" transform="scale(1 1) rotate(0) translate(4 730)">
<title>%3</title>
<polygon fill="#ffffff" stroke="transparent" points="-4,4 -4,-730 305.8301,-730 305.8301,4 -4,4"/>
<!-- fake -->
<g id="node1" class="node">
<title>fake</title>
</g>
<!-- 0 -->
<g id="node5" class="node">
<title>0</title>
<ellipse fill="none" stroke="#000000" cx="56.8301" cy="-635" rx="27" ry="18"/>
<text text-anchor="middle" x="56.8301" y="-631.3" font-family="Times,serif" font-size="14.00" fill="#000000">0</text>
</g>
<!-- fake&#45;&gt;0 -->
<g id="edge1" class="edge">
<title>fake&#45;&gt;0</title>
<path fill="none" stroke="#000000" stroke-width="2" d="M56.8301,-689.9551C56.8301,-681.8828 56.8301,-672.1764 56.8301,-663.1817"/>
<polygon fill="#000000" stroke="#000000" stroke-width="2" points="60.3302,-663.0903 56.8301,-653.0904 53.3302,-663.0904 60.3302,-663.0903"/>
</g>
<!-- 4 -->
<g id="node2" class="node">
<title>4</title>
<ellipse fill="none" stroke="#000000" cx="56.8301" cy="-548" rx="27" ry="18"/>
<text text-anchor="middle" x="56.8301" y="-544.3" font-family="Times,serif" font-size="14.00" fill="#000000">4</text>
</g>
<!-- 4&#45;&gt;4 -->
<g id="edge25" class="edge">
<title>4&#45;&gt;4</title>
<path fill="none" stroke="#000000" d="M81.3625,-555.752C92.3379,-556.4902 101.8301,-553.9063 101.8301,-548 101.8301,-544.0317 97.5451,-541.5632 91.4044,-540.5944"/>
<polygon fill="#000000" stroke="#000000" points="91.4773,-537.0949 81.3625,-540.248 91.2359,-544.0908 91.4773,-537.0949"/>
<text text-anchor="middle" x="105.3301" y="-544.3" font-family="Times,serif" font-size="14.00" fill="#000000">3</text>
</g>
<!-- 1 -->
<g id="node3" class="node">
<title>1</title>
<ellipse fill="none" stroke="#000000" cx="86.8301" cy="-461" rx="27" ry="18"/>
<text text-anchor="middle" x="86.8301" y="-457.3" font-family="Times,serif" font-size="14.00" fill="#000000">1</text>
</g>
<!-- 4&#45;&gt;1 -->
<g id="edge22" class="edge">
<title>4&#45;&gt;1</title>
<path fill="none" stroke="#000000" d="M62.901,-530.3943C67.0893,-518.2482 72.7378,-501.8674 77.4952,-488.0711"/>
<polygon fill="#000000" stroke="#000000" points="80.817,-489.1743 80.7681,-478.5796 74.1994,-486.8923 80.817,-489.1743"/>
<text text-anchor="middle" x="76.3301" y="-500.8" font-family="Times,serif" font-size="14.00" fill="#000000">0</text>
</g>
<!-- 3 -->
<g id="node4" class="node">
<title>3</title>
<ellipse fill="none" stroke="#000000" cx="196.8301" cy="-374" rx="27" ry="18"/>
<text text-anchor="middle" x="196.8301" y="-370.3" font-family="Times,serif" font-size="14.00" fill="#000000">3</text>
</g>
<!-- 4&#45;&gt;3 -->
<g id="edge24" class="edge">
<title>4&#45;&gt;3</title>
<path fill="none" stroke="#000000" d="M81.9558,-541.3663C110.9311,-532.3303 157.6672,-513.2212 181.8301,-479 197.6008,-456.6643 200.1233,-424.9147 199.4603,-402.1858"/>
<polygon fill="#000000" stroke="#000000" points="202.9527,-401.9468 198.9456,-392.139 195.9619,-402.305 202.9527,-401.9468"/>
<text text-anchor="middle" x="199.3301" y="-457.3" font-family="Times,serif" font-size="14.00" fill="#000000">2</text>
</g>
<!-- 2 -->
<g id="node6" class="node">
<title>2</title>
<ellipse fill="none" stroke="#000000" cx="56.8301" cy="-287" rx="27" ry="18"/>
<text text-anchor="middle" x="56.8301" y="-283.3" font-family="Times,serif" font-size="14.00" fill="#000000">2</text>
</g>
<!-- 4&#45;&gt;2 -->
<g id="edge23" class="edge">
<title>4&#45;&gt;2</title>
<path fill="none" stroke="#000000" d="M51.1646,-530.2093C49.5266,-524.4521 47.8954,-518.0037 46.8301,-512 32.1521,-429.2816 37.0063,-406.0261 49.8301,-323 50.244,-320.3198 50.714,-317.5349 51.2099,-314.7543"/>
<polygon fill="#000000" stroke="#000000" points="54.655,-315.3723 53.0659,-304.8973 47.7759,-314.077 54.655,-315.3723"/>
<text text-anchor="middle" x="41.3301" y="-413.8" font-family="Times,serif" font-size="14.00" fill="#000000">1</text>
</g>
<!-- 5 -->
<g id="node7" class="node">
<title>5</title>
<ellipse fill="none" stroke="#000000" cx="136.8301" cy="-200" rx="27" ry="18"/>
<text text-anchor="middle" x="136.8301" y="-196.3" font-family="Times,serif" font-size="14.00" fill="#000000">5</text>
</g>
<!-- 4&#45;&gt;5 -->
<g id="edge26" class="edge">
<title>4&#45;&gt;5</title>
<path fill="none" stroke="#000000" d="M47.8852,-530.907C25.2356,-485.0582 -29.1478,-356.8794 20.8301,-269 38.1109,-238.6139 74.6426,-220.2109 102.1207,-210.1435"/>
<polygon fill="#000000" stroke="#000000" points="103.4737,-213.3791 111.7821,-206.8049 101.1874,-206.763 103.4737,-213.3791"/>
<text text-anchor="middle" x="5.3301" y="-370.3" font-family="Times,serif" font-size="14.00" fill="#000000">a</text>
</g>
<!-- 1&#45;&gt;4 -->
<g id="edge10" class="edge">
<title>1&#45;&gt;4</title>
<path fill="none" stroke="#000000" d="M72.249,-476.2857C67.414,-482.2825 62.571,-489.5175 59.8301,-497 57.2174,-504.1324 56.017,-512.2003 55.5765,-519.7796"/>
<polygon fill="#000000" stroke="#000000" points="52.0728,-519.9589 55.3915,-530.0205 59.0716,-520.0854 52.0728,-519.9589"/>
<text text-anchor="middle" x="63.3301" y="-500.8" font-family="Times,serif" font-size="14.00" fill="#000000">3</text>
</g>
<!-- 1&#45;&gt;1 -->
<g id="edge7" class="edge">
<title>1&#45;&gt;1</title>
<path fill="none" stroke="#000000" d="M111.3625,-468.752C122.3379,-469.4902 131.8301,-466.9063 131.8301,-461 131.8301,-457.0317 127.5451,-454.5632 121.4044,-453.5944"/>
<polygon fill="#000000" stroke="#000000" points="121.4773,-450.0949 111.3625,-453.248 121.2359,-457.0908 121.4773,-450.0949"/>
<text text-anchor="middle" x="135.3301" y="-457.3" font-family="Times,serif" font-size="14.00" fill="#000000">0</text>
</g>
<!-- 1&#45;&gt;3 -->
<g id="edge9" class="edge">
<title>1&#45;&gt;3</title>
<path fill="none" stroke="#000000" d="M103.4271,-446.6422C115.5643,-436.2617 132.5137,-422.0101 147.8301,-410 154.8753,-404.4756 162.6305,-398.6604 169.8521,-393.3533"/>
<polygon fill="#000000" stroke="#000000" points="171.9921,-396.1246 178.0099,-387.4046 167.8677,-390.4686 171.9921,-396.1246"/>
<text text-anchor="middle" x="151.3301" y="-413.8" font-family="Times,serif" font-size="14.00" fill="#000000">2</text>
</g>
<!-- 1&#45;&gt;2 -->
<g id="edge8" class="edge">
<title>1&#45;&gt;2</title>
<path fill="none" stroke="#000000" d="M86.8037,-442.8105C86.3595,-416.0992 83.9595,-364.8932 72.8301,-323 71.9871,-319.8271 70.8978,-316.5784 69.6841,-313.3939"/>
<polygon fill="#000000" stroke="#000000" points="72.9053,-312.0247 65.792,-304.1729 66.4562,-314.7469 72.9053,-312.0247"/>
<text text-anchor="middle" x="87.3301" y="-370.3" font-family="Times,serif" font-size="14.00" fill="#000000">1</text>
</g>
<!-- 1&#45;&gt;5 -->
<g id="edge11" class="edge">
<title>1&#45;&gt;5</title>
<path fill="none" stroke="#000000" d="M92.7581,-443.1756C94.5435,-437.4166 96.4051,-430.9756 97.8301,-425 114.573,-354.7869 127.2274,-270.6365 133.14,-227.889"/>
<polygon fill="#000000" stroke="#000000" points="136.6125,-228.328 134.4964,-217.9467 129.6767,-227.3818 136.6125,-228.328"/>
<text text-anchor="middle" x="121.3301" y="-326.8" font-family="Times,serif" font-size="14.00" fill="#000000">a</text>
</g>
<!-- 3&#45;&gt;4 -->
<g id="edge20" class="edge">
<title>3&#45;&gt;4</title>
<path fill="none" stroke="#000000" d="M191.7887,-392.054C184.8288,-414.4495 170.5034,-452.8638 147.8301,-479 129.9967,-499.5571 105.1257,-517.9063 85.8908,-530.5053"/>
<polygon fill="#000000" stroke="#000000" points="83.7665,-527.7092 77.2265,-536.0445 87.5371,-533.6069 83.7665,-527.7092"/>
<text text-anchor="middle" x="174.3301" y="-457.3" font-family="Times,serif" font-size="14.00" fill="#000000">3</text>
</g>
<!-- 3&#45;&gt;1 -->
<g id="edge17" class="edge">
<title>3&#45;&gt;1</title>
<path fill="none" stroke="#000000" d="M185.0471,-390.5275C176.8495,-401.2411 165.2049,-415.0103 152.8301,-425 142.5155,-433.3265 129.9971,-440.7124 118.647,-446.5936"/>
<polygon fill="#000000" stroke="#000000" points="116.8532,-443.5768 109.4617,-451.1674 119.9734,-449.843 116.8532,-443.5768"/>
<text text-anchor="middle" x="170.3301" y="-413.8" font-family="Times,serif" font-size="14.00" fill="#000000">0</text>
</g>
<!-- 3&#45;&gt;3 -->
<g id="edge19" class="edge">
<title>3&#45;&gt;3</title>
<path fill="none" stroke="#000000" d="M221.3625,-381.752C232.3379,-382.4902 241.8301,-379.9063 241.8301,-374 241.8301,-370.0317 237.5451,-367.5632 231.4044,-366.5944"/>
<polygon fill="#000000" stroke="#000000" points="231.4773,-363.0949 221.3625,-366.248 231.2359,-370.0908 231.4773,-363.0949"/>
<text text-anchor="middle" x="245.3301" y="-370.3" font-family="Times,serif" font-size="14.00" fill="#000000">2</text>
</g>
<!-- 3&#45;&gt;2 -->
<g id="edge18" class="edge">
<title>3&#45;&gt;2</title>
<path fill="none" stroke="#000000" d="M183.5848,-358.0696C173.7839,-347.0717 159.6185,-332.7314 144.8301,-323 128.3467,-312.1533 108.0694,-303.5868 91.1355,-297.5361"/>
<polygon fill="#000000" stroke="#000000" points="92.1999,-294.2011 81.6053,-294.266 89.928,-300.8222 92.1999,-294.2011"/>
<text text-anchor="middle" x="166.3301" y="-326.8" font-family="Times,serif" font-size="14.00" fill="#000000">1</text>
</g>
<!-- 3&#45;&gt;5 -->
<g id="edge21" class="edge">
<title>3&#45;&gt;5</title>
<path fill="none" stroke="#000000" d="M198.3327,-355.8263C198.6842,-345.9829 198.3702,-333.6834 195.8301,-323 187.3179,-287.1994 167.4047,-249.5466 153.0653,-225.4778"/>
<polygon fill="#000000" stroke="#000000" points="155.879,-223.3687 147.6893,-216.6471 149.8998,-227.0088 155.879,-223.3687"/>
<text text-anchor="middle" x="193.3301" y="-283.3" font-family="Times,serif" font-size="14.00" fill="#000000">a</text>
</g>
<!-- 0&#45;&gt;4 -->
<g id="edge5" class="edge">
<title>0&#45;&gt;4</title>
<path fill="none" stroke="#000000" d="M56.8301,-616.9735C56.8301,-605.1918 56.8301,-589.5607 56.8301,-576.1581"/>
<polygon fill="#000000" stroke="#000000" points="60.3302,-576.0033 56.8301,-566.0034 53.3302,-576.0034 60.3302,-576.0033"/>
<text text-anchor="middle" x="60.3301" y="-587.8" font-family="Times,serif" font-size="14.00" fill="#000000">3</text>
</g>
<!-- 0&#45;&gt;1 -->
<g id="edge2" class="edge">
<title>0&#45;&gt;1</title>
<path fill="none" stroke="#000000" d="M42.5433,-619.625C25.2929,-599.1011 .1909,-561.6595 13.8301,-530 22.9373,-508.8601 42.0594,-491.1766 58.4481,-479.0051"/>
<polygon fill="#000000" stroke="#000000" points="60.5682,-481.7925 66.7017,-473.1536 56.5196,-476.082 60.5682,-481.7925"/>
<text text-anchor="middle" x="17.3301" y="-544.3" font-family="Times,serif" font-size="14.00" fill="#000000">0</text>
</g>
<!-- 0&#45;&gt;3 -->
<g id="edge4" class="edge">
<title>0&#45;&gt;3</title>
<path fill="none" stroke="#000000" d="M75.8207,-621.9404C108.9418,-597.9747 176.6178,-543.4715 206.8301,-479 219.892,-451.1264 219.2202,-440.1118 212.8301,-410 212.1698,-406.8889 211.2216,-403.7203 210.1117,-400.6176"/>
<polygon fill="#000000" stroke="#000000" points="213.225,-398.9871 206.1703,-391.0826 206.7559,-401.6612 213.225,-398.9871"/>
<text text-anchor="middle" x="199.3301" y="-500.8" font-family="Times,serif" font-size="14.00" fill="#000000">2</text>
</g>
<!-- 0&#45;&gt;2 -->
<g id="edge3" class="edge">
<title>0&#45;&gt;2</title>
<path fill="none" stroke="#000000" d="M37.3728,-622.2701C29.3399,-616.1158 20.5819,-608.089 14.8301,-599 6.7006,-586.1539 7.8479,-581.0678 5.8301,-566 -3.7415,-494.5265 31.6033,-377.9922 35.8301,-356 38.6598,-341.2765 38.5434,-337.3671 42.8301,-323 43.7216,-320.0119 44.7512,-316.9215 45.8392,-313.8647"/>
<polygon fill="#000000" stroke="#000000" points="49.1623,-314.9719 49.4167,-304.3801 42.6127,-312.5014 49.1623,-314.9719"/>
<text text-anchor="middle" x="18.3301" y="-457.3" font-family="Times,serif" font-size="14.00" fill="#000000">1</text>
</g>
<!-- 0&#45;&gt;5 -->
<g id="edge6" class="edge">
<title>0&#45;&gt;5</title>
<path fill="none" stroke="#000000" d="M83.2096,-631.0989C145.1758,-621.1949 294.8301,-592.6535 294.8301,-548 294.8301,-548 294.8301,-548 294.8301,-287 294.8301,-231.9777 220.3955,-211.5007 173.7058,-204.0685"/>
<polygon fill="#000000" stroke="#000000" points="174.0336,-200.5793 163.6326,-202.5967 173.0215,-207.5058 174.0336,-200.5793"/>
<text text-anchor="middle" x="298.3301" y="-413.8" font-family="Times,serif" font-size="14.00" fill="#000000">a</text>
</g>
<!-- 2&#45;&gt;4 -->
<g id="edge15" class="edge">
<title>2&#45;&gt;4</title>
<path fill="none" stroke="#000000" d="M55.7107,-304.9955C53.7201,-338.9881 49.8602,-414.9761 50.8301,-479 51.0523,-493.6717 50.5968,-497.3785 51.8301,-512 52.0482,-514.5858 52.3252,-517.2699 52.6367,-519.9539"/>
<polygon fill="#000000" stroke="#000000" points="49.1954,-520.6324 53.9563,-530.0973 56.1369,-519.7293 49.1954,-520.6324"/>
<text text-anchor="middle" x="54.3301" y="-413.8" font-family="Times,serif" font-size="14.00" fill="#000000">3</text>
</g>
<!-- 2&#45;&gt;1 -->
<g id="edge12" class="edge">
<title>2&#45;&gt;1</title>
<path fill="none" stroke="#000000" d="M57.8358,-305.3421C59.2018,-326.4032 62.1532,-361.9217 67.8301,-392 70.4405,-405.831 74.4611,-420.9324 78.1326,-433.4716"/>
<polygon fill="#000000" stroke="#000000" points="74.8625,-434.7508 81.0961,-443.3177 81.5655,-432.7333 74.8625,-434.7508"/>
<text text-anchor="middle" x="71.3301" y="-370.3" font-family="Times,serif" font-size="14.00" fill="#000000">0</text>
</g>
<!-- 2&#45;&gt;3 -->
<g id="edge14" class="edge">
<title>2&#45;&gt;3</title>
<path fill="none" stroke="#000000" d="M82.7041,-292.2327C113.1173,-298.8294 161.1818,-310.7902 174.8301,-323 181.7518,-329.1922 186.5792,-337.9438 189.9085,-346.4525"/>
<polygon fill="#000000" stroke="#000000" points="186.6665,-347.7932 193.1643,-356.1615 193.3033,-345.5676 186.6665,-347.7932"/>
<text text-anchor="middle" x="188.3301" y="-326.8" font-family="Times,serif" font-size="14.00" fill="#000000">2</text>
</g>
<!-- 2&#45;&gt;2 -->
<g id="edge13" class="edge">
<title>2&#45;&gt;2</title>
<path fill="none" stroke="#000000" d="M81.3625,-294.752C92.3379,-295.4902 101.8301,-292.9063 101.8301,-287 101.8301,-283.0317 97.5451,-280.5632 91.4044,-279.5944"/>
<polygon fill="#000000" stroke="#000000" points="91.4773,-276.0949 81.3625,-279.248 91.2359,-283.0908 91.4773,-276.0949"/>
<text text-anchor="middle" x="105.3301" y="-283.3" font-family="Times,serif" font-size="14.00" fill="#000000">1</text>
</g>
<!-- 2&#45;&gt;5 -->
<g id="edge16" class="edge">
<title>2&#45;&gt;5</title>
<path fill="none" stroke="#000000" d="M71.1325,-271.4461C83.5325,-257.9611 101.6463,-238.2623 115.7149,-222.9627"/>
<polygon fill="#000000" stroke="#000000" points="118.4591,-225.1493 122.6515,-215.4192 113.3064,-220.4112 118.4591,-225.1493"/>
<text text-anchor="middle" x="104.3301" y="-239.8" font-family="Times,serif" font-size="14.00" fill="#000000">a</text>
</g>
<!-- 6 -->
<g id="node9" class="node">
<title>6</title>
<ellipse fill="none" stroke="#000000" cx="136.8301" cy="-113" rx="27" ry="18"/>
<text text-anchor="middle" x="136.8301" y="-109.3" font-family="Times,serif" font-size="14.00" fill="#000000">6</text>
</g>
<!-- 5&#45;&gt;6 -->
<g id="edge27" class="edge">
<title>5&#45;&gt;6</title>
<path fill="none" stroke="#000000" d="M136.8301,-181.9735C136.8301,-170.1918 136.8301,-154.5607 136.8301,-141.1581"/>
<polygon fill="#000000" stroke="#000000" points="140.3302,-141.0033 136.8301,-131.0034 133.3302,-141.0034 140.3302,-141.0033"/>
<text text-anchor="middle" x="140.3301" y="-152.8" font-family="Times,serif" font-size="14.00" fill="#000000">b</text>
</g>
<!-- 7 -->
<g id="node8" class="node">
<title>7</title>
<ellipse fill="none" stroke="#000000" cx="136.8301" cy="-22" rx="18" ry="18"/>
<ellipse fill="none" stroke="#000000" cx="136.8301" cy="-22" rx="22" ry="22"/>
<text text-anchor="middle" x="136.8301" y="-18.3" font-family="Times,serif" font-size="14.00" fill="#000000">7</text>
</g>
<!-- 6&#45;&gt;7 -->
<g id="edge28" class="edge">
<title>6&#45;&gt;7</title>
<path fill="none" stroke="#000000" d="M136.8301,-94.5848C136.8301,-83.1105 136.8301,-68.0231 136.8301,-54.5774"/>
<polygon fill="#000000" stroke="#000000" points="140.3302,-54.2465 136.8301,-44.2465 133.3302,-54.2466 140.3302,-54.2465"/>
<text text-anchor="middle" x="140.3301" y="-65.8" font-family="Times,serif" font-size="14.00" fill="#000000">c</text>
</g>
</g>
</svg>
