<?xml version="1.0" encoding="UTF-8" standalone="no"?>
<!DOCTYPE svg PUBLIC "-//W3C//DTD SVG 1.1//EN"
 "http://www.w3.org/Graphics/SVG/1.1/DTD/svg11.dtd">
<!-- Generated by graphviz version 2.42.3 (20191010.1750)
 -->
<!-- Title: %3 Pages: 1 -->
<svg width="206pt" height="815pt"
 viewBox="0.00 0.00 206.21 814.90" xmlns="http://www.w3.org/2000/svg" xmlns:xlink="http://www.w3.org/1999/xlink">
<g id="graph0" class="graph" transform="scale(1 1) rotate(0) translate(4 810.9)">
<title>%3</title>
<polygon fill="white" stroke="transparent" points="-4,4 -4,-810.9 202.21,-810.9 202.21,4 -4,4"/>
<!-- fake0 -->
<g id="node1" class="node">
<title>fake0</title>
</g>
<!-- 6 -->
<g id="node11" class="node">
<title>6</title>
<ellipse fill="none" stroke="black" cx="164" cy="-715.9" rx="27" ry="18"/>
<text text-anchor="middle" x="164" y="-711.7" font-family="Times,serif" font-size="14.00">6</text>
</g>
<!-- fake0&#45;&gt;6 -->
<g id="edge1" class="edge">
<title>fake0&#45;&gt;6</title>
<path fill="none" stroke="black" stroke-width="2" d="M164,-770.71C164,-762.69 164,-752.95 164,-743.97"/>
<polygon fill="black" stroke="black" stroke-width="2" points="167.5,-743.93 164,-733.93 160.5,-743.93 167.5,-743.93"/>
</g>
<!-- 2 -->
<g id="node2" class="node">
<title>2</title>
<ellipse fill="none" stroke="black" cx="27" cy="-543.9" rx="27" ry="18"/>
<text text-anchor="middle" x="27" y="-539.7" font-family="Times,serif" font-size="14.00">2</text>
</g>
<!-- 3 -->
<g id="node8" class="node">
<title>3</title>
<ellipse fill="none" stroke="black" cx="27" cy="-457.9" rx="27" ry="18"/>
<text text-anchor="middle" x="27" y="-453.7" font-family="Times,serif" font-size="14.00">3</text>
</g>
<!-- 2&#45;&gt;3 -->
<g id="edge3" class="edge">
<title>2&#45;&gt;3</title>
<path fill="none" stroke="black" d="M27,-525.5C27,-514.16 27,-499.13 27,-486.22"/>
<polygon fill="black" stroke="black" points="30.5,-486 27,-476 23.5,-486 30.5,-486"/>
<text text-anchor="middle" x="30.5" y="-496.7" font-family="Times,serif" font-size="14.00">b</text>
</g>
<!-- 9 -->
<g id="node3" class="node">
<title>9</title>
<ellipse fill="none" stroke="black" cx="164" cy="-113.9" rx="27" ry="18"/>
<text text-anchor="middle" x="164" y="-109.7" font-family="Times,serif" font-size="14.00">9</text>
</g>
<!-- 10 -->
<g id="node4" class="node">
<title>10</title>
<ellipse fill="none" stroke="black" cx="164" cy="-22.95" rx="18.91" ry="18.91"/>
<ellipse fill="none" stroke="black" cx="164" cy="-22.95" rx="22.9" ry="22.9"/>
<text text-anchor="middle" x="164" y="-18.75" font-family="Times,serif" font-size="14.00">10</text>
</g>
<!-- 9&#45;&gt;10 -->
<g id="edge14" class="edge">
<title>9&#45;&gt;10</title>
<path fill="none" stroke="black" d="M164,-95.75C164,-84.6 164,-69.7 164,-56.37"/>
<polygon fill="black" stroke="black" points="167.5,-56.11 164,-46.11 160.5,-56.11 167.5,-56.11"/>
<text text-anchor="middle" x="167.5" y="-66.7" font-family="Times,serif" font-size="14.00">b</text>
</g>
<!-- 8 -->
<g id="node5" class="node">
<title>8</title>
<ellipse fill="none" stroke="black" cx="164" cy="-199.9" rx="27" ry="18"/>
<text text-anchor="middle" x="164" y="-195.7" font-family="Times,serif" font-size="14.00">8</text>
</g>
<!-- 8&#45;&gt;9 -->
<g id="edge13" class="edge">
<title>8&#45;&gt;9</title>
<path fill="none" stroke="black" d="M164,-181.5C164,-170.16 164,-155.13 164,-142.22"/>
<polygon fill="black" stroke="black" points="167.5,-142 164,-132 160.5,-142 167.5,-142"/>
<text text-anchor="middle" x="167.5" y="-152.7" font-family="Times,serif" font-size="14.00">b</text>
</g>
<!-- 4 -->
<g id="node6" class="node">
<title>4</title>
<ellipse fill="none" stroke="black" cx="127" cy="-629.9" rx="27" ry="18"/>
<text text-anchor="middle" x="127" y="-625.7" font-family="Times,serif" font-size="14.00">4</text>
</g>
<!-- 4&#45;&gt;2 -->
<g id="edge5" class="edge">
<title>4&#45;&gt;2</title>
<path fill="none" stroke="black" d="M110.93,-615.4C94.77,-601.83 69.66,-580.74 51.11,-565.15"/>
<polygon fill="black" stroke="black" points="53.27,-562.39 43.36,-558.64 48.76,-567.75 53.27,-562.39"/>
<text text-anchor="middle" x="86.11" y="-582.7" font-family="Times,serif" font-size="14.00">e</text>
</g>
<!-- 0 -->
<g id="node7" class="node">
<title>0</title>
<ellipse fill="none" stroke="black" cx="99" cy="-543.9" rx="27" ry="18"/>
<text text-anchor="middle" x="99" y="-539.7" font-family="Times,serif" font-size="14.00">0</text>
</g>
<!-- 4&#45;&gt;0 -->
<g id="edge4" class="edge">
<title>4&#45;&gt;0</title>
<path fill="none" stroke="black" d="M121.33,-611.9C117.44,-600.21 112.19,-584.46 107.76,-571.17"/>
<polygon fill="black" stroke="black" points="111.04,-569.97 104.56,-561.59 104.4,-572.18 111.04,-569.97"/>
<text text-anchor="middle" x="117.11" y="-582.7" font-family="Times,serif" font-size="14.00">e</text>
</g>
<!-- 1 -->
<g id="node10" class="node">
<title>1</title>
<ellipse fill="none" stroke="black" cx="99" cy="-457.9" rx="27" ry="18"/>
<text text-anchor="middle" x="99" y="-453.7" font-family="Times,serif" font-size="14.00">1</text>
</g>
<!-- 0&#45;&gt;1 -->
<g id="edge2" class="edge">
<title>0&#45;&gt;1</title>
<path fill="none" stroke="black" d="M99,-525.5C99,-514.16 99,-499.13 99,-486.22"/>
<polygon fill="black" stroke="black" points="102.5,-486 99,-476 95.5,-486 102.5,-486"/>
<text text-anchor="middle" x="102.11" y="-496.7" font-family="Times,serif" font-size="14.00">a</text>
</g>
<!-- 5 -->
<g id="node12" class="node">
<title>5</title>
<ellipse fill="none" stroke="black" cx="135" cy="-371.9" rx="27" ry="18"/>
<text text-anchor="middle" x="135" y="-367.7" font-family="Times,serif" font-size="14.00">5</text>
</g>
<!-- 3&#45;&gt;5 -->
<g id="edge7" class="edge">
<title>3&#45;&gt;5</title>
<path fill="none" stroke="black" d="M43.88,-443.78C61.6,-429.99 89.68,-408.15 109.98,-392.36"/>
<polygon fill="black" stroke="black" points="112.14,-395.11 117.89,-386.21 107.84,-389.59 112.14,-395.11"/>
<text text-anchor="middle" x="91.11" y="-410.7" font-family="Times,serif" font-size="14.00">e</text>
</g>
<!-- 7 -->
<g id="node9" class="node">
<title>7</title>
<ellipse fill="none" stroke="black" cx="164" cy="-285.9" rx="27" ry="18"/>
<text text-anchor="middle" x="164" y="-281.7" font-family="Times,serif" font-size="14.00">7</text>
</g>
<!-- 7&#45;&gt;8 -->
<g id="edge12" class="edge">
<title>7&#45;&gt;8</title>
<path fill="none" stroke="black" d="M164,-267.5C164,-256.16 164,-241.13 164,-228.22"/>
<polygon fill="black" stroke="black" points="167.5,-228 164,-218 160.5,-228 167.5,-228"/>
<text text-anchor="middle" x="167.11" y="-238.7" font-family="Times,serif" font-size="14.00">a</text>
</g>
<!-- 1&#45;&gt;5 -->
<g id="edge6" class="edge">
<title>1&#45;&gt;5</title>
<path fill="none" stroke="black" d="M106.11,-440.3C111.19,-428.45 118.12,-412.28 123.92,-398.75"/>
<polygon fill="black" stroke="black" points="127.18,-400.03 127.9,-389.46 120.75,-397.27 127.18,-400.03"/>
<text text-anchor="middle" x="122.11" y="-410.7" font-family="Times,serif" font-size="14.00">e</text>
</g>
<!-- 6&#45;&gt;4 -->
<g id="edge8" class="edge">
<title>6&#45;&gt;4</title>
<path fill="none" stroke="black" d="M156.69,-698.3C151.47,-686.45 144.35,-670.28 138.39,-656.75"/>
<polygon fill="black" stroke="black" points="141.53,-655.2 134.29,-647.46 135.12,-658.02 141.53,-655.2"/>
<text text-anchor="middle" x="150.11" y="-668.7" font-family="Times,serif" font-size="14.00">e</text>
</g>
<!-- 6&#45;&gt;7 -->
<g id="edge9" class="edge">
<title>6&#45;&gt;7</title>
<path fill="none" stroke="black" d="M172.86,-698.7C181.06,-682.16 192,-655.5 192,-630.9 192,-630.9 192,-630.9 192,-370.9 192,-350.53 184.5,-328.75 177.26,-312.47"/>
<polygon fill="black" stroke="black" points="180.28,-310.66 172.86,-303.1 173.95,-313.64 180.28,-310.66"/>
<text text-anchor="middle" x="195.11" y="-496.7" font-family="Times,serif" font-size="14.00">e</text>
</g>
<!-- 5&#45;&gt;4 -->
<g id="edge10" class="edge">
<title>5&#45;&gt;4</title>
<path fill="none" stroke="black" d="M135.68,-390.12C136.85,-423.36 138.76,-498.68 135,-561.9 134.21,-575.11 132.57,-589.7 130.97,-601.88"/>
<polygon fill="black" stroke="black" points="127.49,-601.49 129.6,-611.88 134.42,-602.44 127.49,-601.49"/>
<text text-anchor="middle" x="140.11" y="-496.7" font-family="Times,serif" font-size="14.00">e</text>
</g>
<!-- 5&#45;&gt;7 -->
<g id="edge11" class="edge">
<title>5&#45;&gt;7</title>
<path fill="none" stroke="black" d="M140.73,-354.3C144.75,-342.65 150.22,-326.8 154.85,-313.41"/>
<polygon fill="black" stroke="black" points="158.23,-314.34 158.18,-303.75 151.61,-312.06 158.23,-314.34"/>
<text text-anchor="middle" x="154.11" y="-324.7" font-family="Times,serif" font-size="14.00">e</text>
</g>
</g>
</svg>
