<?xml version="1.0" encoding="UTF-8" standalone="no"?>
<!DOCTYPE svg PUBLIC "-//W3C//DTD SVG 1.1//EN"
 "http://www.w3.org/Graphics/SVG/1.1/DTD/svg11.dtd">
<!-- Generated by graphviz version 2.42.3 (20191010.1750)
 -->
<!-- Title: %3 Pages: 1 -->
<svg width="418pt" height="727pt"
 viewBox="0.00 0.00 418.08 727.00" xmlns="http://www.w3.org/2000/svg" xmlns:xlink="http://www.w3.org/1999/xlink">
<g id="graph0" class="graph" transform="scale(1 1) rotate(0) translate(4 723)">
<title>%3</title>
<polygon fill="white" stroke="transparent" points="-4,4 -4,-723 414.08,-723 414.08,4 -4,4"/>
<!-- fake -->
<g id="node1" class="node">
<title>fake</title>
</g>
<!-- 0 -->
<g id="node2" class="node">
<title>0</title>
<ellipse fill="none" stroke="black" cx="330.86" cy="-628" rx="27" ry="18"/>
<text text-anchor="middle" x="330.86" y="-623.8" font-family="Times,serif" font-size="14.00">0</text>
</g>
<!-- fake&#45;&gt;0 -->
<g id="edge1" class="edge">
<title>fake&#45;&gt;0</title>
<path fill="none" stroke="black" stroke-width="2" d="M330.86,-682.81C330.86,-674.79 330.86,-665.05 330.86,-656.07"/>
<polygon fill="black" stroke="black" stroke-width="2" points="334.36,-656.03 330.86,-646.03 327.36,-656.03 334.36,-656.03"/>
</g>
<!-- 1 -->
<g id="node4" class="node">
<title>1</title>
<ellipse fill="none" stroke="black" cx="193.86" cy="-542" rx="27" ry="18"/>
<text text-anchor="middle" x="193.86" y="-537.8" font-family="Times,serif" font-size="14.00">1</text>
</g>
<!-- 0&#45;&gt;1 -->
<g id="edge2" class="edge">
<title>0&#45;&gt;1</title>
<path fill="none" stroke="black" d="M311.53,-615.14C288.17,-600.82 248.7,-576.62 221.98,-560.24"/>
<polygon fill="black" stroke="black" points="223.46,-557.04 213.1,-554.8 219.8,-563.01 223.46,-557.04"/>
<text text-anchor="middle" x="273.36" y="-580.8" font-family="Times,serif" font-size="14.00">0</text>
</g>
<!-- 5 -->
<g id="node5" class="node">
<title>5</title>
<ellipse fill="none" stroke="black" cx="224.86" cy="-198" rx="27" ry="18"/>
<text text-anchor="middle" x="224.86" y="-193.8" font-family="Times,serif" font-size="14.00">5</text>
</g>
<!-- 0&#45;&gt;5 -->
<g id="edge6" class="edge">
<title>0&#45;&gt;5</title>
<path fill="none" stroke="black" d="M350.81,-615.55C372.43,-601.49 403.86,-575.46 403.86,-543 403.86,-543 403.86,-543 403.86,-283 403.86,-221.02 314.82,-204.68 262.34,-200.44"/>
<polygon fill="black" stroke="black" points="262.27,-196.92 252.05,-199.72 261.78,-203.91 262.27,-196.92"/>
<text text-anchor="middle" x="406.97" y="-408.8" font-family="Times,serif" font-size="14.00">a</text>
</g>
<!-- 3 -->
<g id="node6" class="node">
<title>3</title>
<ellipse fill="none" stroke="black" cx="193.86" cy="-456" rx="27" ry="18"/>
<text text-anchor="middle" x="193.86" y="-451.8" font-family="Times,serif" font-size="14.00">3</text>
</g>
<!-- 0&#45;&gt;3 -->
<g id="edge4" class="edge">
<title>0&#45;&gt;3</title>
<path fill="none" stroke="black" d="M320.02,-611.27C305.69,-590.73 279.39,-553.89 254.86,-524 242.14,-508.49 226.95,-491.81 214.92,-478.97"/>
<polygon fill="black" stroke="black" points="217.29,-476.38 207.88,-471.51 212.2,-481.19 217.29,-476.38"/>
<text text-anchor="middle" x="285.36" y="-537.8" font-family="Times,serif" font-size="14.00">2</text>
</g>
<!-- 2 -->
<g id="node7" class="node">
<title>2</title>
<ellipse fill="none" stroke="black" cx="144.86" cy="-284" rx="27" ry="18"/>
<text text-anchor="middle" x="144.86" y="-279.8" font-family="Times,serif" font-size="14.00">2</text>
</g>
<!-- 0&#45;&gt;2 -->
<g id="edge3" class="edge">
<title>0&#45;&gt;2</title>
<path fill="none" stroke="black" d="M304.48,-623.43C267.18,-617.07 198.98,-600.42 157.86,-560 91.12,-494.38 113.72,-444.94 124.86,-352 126.6,-337.54 127.76,-333.97 131.86,-320 132.7,-317.14 133.66,-314.18 134.66,-311.25"/>
<polygon fill="black" stroke="black" points="138.05,-312.17 138.17,-301.57 131.47,-309.79 138.05,-312.17"/>
<text text-anchor="middle" x="116.36" y="-451.8" font-family="Times,serif" font-size="14.00">1</text>
</g>
<!-- 4 -->
<g id="node8" class="node">
<title>4</title>
<ellipse fill="none" stroke="black" cx="291.86" cy="-370" rx="27" ry="18"/>
<text text-anchor="middle" x="291.86" y="-365.8" font-family="Times,serif" font-size="14.00">4</text>
</g>
<!-- 0&#45;&gt;4 -->
<g id="edge5" class="edge">
<title>0&#45;&gt;4</title>
<path fill="none" stroke="black" d="M331.41,-609.96C332.15,-572.32 331.42,-479.61 309.86,-406 308.87,-402.62 307.55,-399.18 306.07,-395.84"/>
<polygon fill="black" stroke="black" points="309.2,-394.26 301.63,-386.85 302.92,-397.36 309.2,-394.26"/>
<text text-anchor="middle" x="330.36" y="-494.8" font-family="Times,serif" font-size="14.00">3</text>
</g>
<!-- 6 -->
<g id="node3" class="node">
<title>6</title>
<ellipse fill="none" stroke="black" cx="224.86" cy="-112" rx="27" ry="18"/>
<text text-anchor="middle" x="224.86" y="-107.8" font-family="Times,serif" font-size="14.00">6</text>
</g>
<!-- 7 -->
<g id="node9" class="node">
<title>7</title>
<ellipse fill="none" stroke="black" cx="224.86" cy="-22" rx="18" ry="18"/>
<ellipse fill="none" stroke="black" cx="224.86" cy="-22" rx="22" ry="22"/>
<text text-anchor="middle" x="224.86" y="-17.8" font-family="Times,serif" font-size="14.00">7</text>
</g>
<!-- 6&#45;&gt;7 -->
<g id="edge28" class="edge">
<title>6&#45;&gt;7</title>
<path fill="none" stroke="black" d="M224.86,-93.61C224.86,-82.39 224.86,-67.46 224.86,-54.23"/>
<polygon fill="black" stroke="black" points="228.36,-54.07 224.86,-44.07 221.36,-54.07 228.36,-54.07"/>
<text text-anchor="middle" x="227.97" y="-64.8" font-family="Times,serif" font-size="14.00">c</text>
</g>
<!-- 1&#45;&gt;1 -->
<g id="edge7" class="edge">
<title>1&#45;&gt;1</title>
<path fill="none" stroke="black" d="M218.4,-549.75C229.37,-550.49 238.86,-547.91 238.86,-542 238.86,-538.03 234.58,-535.56 228.44,-534.59"/>
<polygon fill="black" stroke="black" points="228.51,-531.09 218.4,-534.25 228.27,-538.09 228.51,-531.09"/>
<text text-anchor="middle" x="242.36" y="-537.8" font-family="Times,serif" font-size="14.00">0</text>
</g>
<!-- 1&#45;&gt;5 -->
<g id="edge11" class="edge">
<title>1&#45;&gt;5</title>
<path fill="none" stroke="black" d="M172.74,-530.7C114.32,-500.75 -41.72,-410.14 10.86,-320 49.6,-253.61 139.74,-220.75 189.79,-207.09"/>
<polygon fill="black" stroke="black" points="190.75,-210.46 199.54,-204.54 188.98,-203.69 190.75,-210.46"/>
<text text-anchor="middle" x="9.97" y="-365.8" font-family="Times,serif" font-size="14.00">a</text>
</g>
<!-- 1&#45;&gt;3 -->
<g id="edge9" class="edge">
<title>1&#45;&gt;3</title>
<path fill="none" stroke="black" d="M193.86,-523.6C193.86,-512.26 193.86,-497.23 193.86,-484.32"/>
<polygon fill="black" stroke="black" points="197.36,-484.1 193.86,-474.1 190.36,-484.1 197.36,-484.1"/>
<text text-anchor="middle" x="197.36" y="-494.8" font-family="Times,serif" font-size="14.00">2</text>
</g>
<!-- 1&#45;&gt;2 -->
<g id="edge8" class="edge">
<title>1&#45;&gt;2</title>
<path fill="none" stroke="black" d="M183.23,-525.22C174.93,-512.1 163.83,-492.61 157.86,-474 140.14,-418.7 140.68,-349.77 142.72,-312.32"/>
<polygon fill="black" stroke="black" points="146.23,-312.39 143.36,-302.2 139.24,-311.96 146.23,-312.39"/>
<text text-anchor="middle" x="149.36" y="-408.8" font-family="Times,serif" font-size="14.00">1</text>
</g>
<!-- 1&#45;&gt;4 -->
<g id="edge10" class="edge">
<title>1&#45;&gt;4</title>
<path fill="none" stroke="black" d="M209.15,-526.98C222.49,-514.15 241.71,-494.15 254.86,-474 269.22,-452.01 270.14,-444.77 278.86,-420 281.37,-412.89 283.65,-405.05 285.58,-397.77"/>
<polygon fill="black" stroke="black" points="289,-398.54 288.06,-387.98 282.22,-396.82 289,-398.54"/>
<text text-anchor="middle" x="275.36" y="-451.8" font-family="Times,serif" font-size="14.00">3</text>
</g>
<!-- 5&#45;&gt;6 -->
<g id="edge27" class="edge">
<title>5&#45;&gt;6</title>
<path fill="none" stroke="black" d="M224.86,-179.6C224.86,-168.26 224.86,-153.23 224.86,-140.32"/>
<polygon fill="black" stroke="black" points="228.36,-140.1 224.86,-130.1 221.36,-140.1 228.36,-140.1"/>
<text text-anchor="middle" x="228.36" y="-150.8" font-family="Times,serif" font-size="14.00">b</text>
</g>
<!-- 3&#45;&gt;1 -->
<g id="edge17" class="edge">
<title>3&#45;&gt;1</title>
<path fill="none" stroke="black" d="M186.95,-473.67C183.84,-483.1 181.2,-495.14 182.86,-506 183.28,-508.74 183.88,-511.56 184.58,-514.35"/>
<polygon fill="black" stroke="black" points="181.28,-515.53 187.43,-524.16 188,-513.58 181.28,-515.53"/>
<text text-anchor="middle" x="186.36" y="-494.8" font-family="Times,serif" font-size="14.00">0</text>
</g>
<!-- 3&#45;&gt;5 -->
<g id="edge21" class="edge">
<title>3&#45;&gt;5</title>
<path fill="none" stroke="black" d="M196.39,-437.92C197.21,-432.23 198.1,-425.84 198.86,-420 207.93,-350.37 217.23,-268.21 221.86,-226.41"/>
<polygon fill="black" stroke="black" points="225.37,-226.53 222.99,-216.21 218.41,-225.77 225.37,-226.53"/>
<text text-anchor="middle" x="213.97" y="-322.8" font-family="Times,serif" font-size="14.00">a</text>
</g>
<!-- 3&#45;&gt;3 -->
<g id="edge19" class="edge">
<title>3&#45;&gt;3</title>
<path fill="none" stroke="black" d="M218.4,-463.75C229.37,-464.49 238.86,-461.91 238.86,-456 238.86,-452.03 234.58,-449.56 228.44,-448.59"/>
<polygon fill="black" stroke="black" points="228.51,-445.09 218.4,-448.25 228.27,-452.09 228.51,-445.09"/>
<text text-anchor="middle" x="242.36" y="-451.8" font-family="Times,serif" font-size="14.00">2</text>
</g>
<!-- 3&#45;&gt;2 -->
<g id="edge18" class="edge">
<title>3&#45;&gt;2</title>
<path fill="none" stroke="black" d="M183.93,-439.11C176.15,-425.92 165.7,-406.4 159.86,-388 151.96,-363.06 148.2,-333.39 146.42,-312.32"/>
<polygon fill="black" stroke="black" points="149.9,-311.86 145.66,-302.15 142.92,-312.38 149.9,-311.86"/>
<text text-anchor="middle" x="163.36" y="-365.8" font-family="Times,serif" font-size="14.00">1</text>
</g>
<!-- 3&#45;&gt;4 -->
<g id="edge20" class="edge">
<title>3&#45;&gt;4</title>
<path fill="none" stroke="black" d="M215.99,-445.37C228.53,-439.25 244.03,-430.5 255.86,-420 263.84,-412.93 271.12,-403.82 277.02,-395.37"/>
<polygon fill="black" stroke="black" points="280.01,-397.19 282.63,-386.93 274.18,-393.32 280.01,-397.19"/>
<text text-anchor="middle" x="271.36" y="-408.8" font-family="Times,serif" font-size="14.00">3</text>
</g>
<!-- 2&#45;&gt;1 -->
<g id="edge12" class="edge">
<title>2&#45;&gt;1</title>
<path fill="none" stroke="black" d="M140.97,-302.01C139.8,-307.7 138.62,-314.1 137.86,-320 129.14,-387.96 121.94,-409.43 144.86,-474 150.18,-488.98 151.76,-492.97 160.86,-506 164.09,-510.62 167.91,-515.24 171.79,-519.53"/>
<polygon fill="black" stroke="black" points="169.29,-521.99 178.71,-526.85 174.38,-517.18 169.29,-521.99"/>
<text text-anchor="middle" x="133.36" y="-408.8" font-family="Times,serif" font-size="14.00">0</text>
</g>
<!-- 2&#45;&gt;5 -->
<g id="edge16" class="edge">
<title>2&#45;&gt;5</title>
<path fill="none" stroke="black" d="M158.8,-268.37C171.23,-255.32 189.6,-236.03 203.82,-221.1"/>
<polygon fill="black" stroke="black" points="206.46,-223.4 210.82,-213.75 201.39,-218.57 206.46,-223.4"/>
<text text-anchor="middle" x="191.97" y="-236.8" font-family="Times,serif" font-size="14.00">a</text>
</g>
<!-- 2&#45;&gt;3 -->
<g id="edge14" class="edge">
<title>2&#45;&gt;3</title>
<path fill="none" stroke="black" d="M153.17,-301.47C155.87,-307.24 158.72,-313.81 160.86,-320 173.58,-356.62 183.34,-400.45 188.84,-428.02"/>
<polygon fill="black" stroke="black" points="185.45,-428.93 190.8,-438.08 192.32,-427.59 185.45,-428.93"/>
<text text-anchor="middle" x="182.36" y="-365.8" font-family="Times,serif" font-size="14.00">2</text>
</g>
<!-- 2&#45;&gt;2 -->
<g id="edge13" class="edge">
<title>2&#45;&gt;2</title>
<path fill="none" stroke="black" d="M169.4,-291.75C180.37,-292.49 189.86,-289.91 189.86,-284 189.86,-280.03 185.58,-277.56 179.44,-276.59"/>
<polygon fill="black" stroke="black" points="179.51,-273.09 169.4,-276.25 179.27,-280.09 179.51,-273.09"/>
<text text-anchor="middle" x="193.36" y="-279.8" font-family="Times,serif" font-size="14.00">1</text>
</g>
<!-- 2&#45;&gt;4 -->
<g id="edge15" class="edge">
<title>2&#45;&gt;4</title>
<path fill="none" stroke="black" d="M169.04,-292.52C187.02,-298.62 211.82,-308.16 231.86,-320 245.15,-327.85 258.58,-338.51 269.36,-347.88"/>
<polygon fill="black" stroke="black" points="267.24,-350.68 277.03,-354.73 271.9,-345.46 267.24,-350.68"/>
<text text-anchor="middle" x="254.36" y="-322.8" font-family="Times,serif" font-size="14.00">3</text>
</g>
<!-- 4&#45;&gt;1 -->
<g id="edge22" class="edge">
<title>4&#45;&gt;1</title>
<path fill="none" stroke="black" d="M294.48,-387.95C296.93,-409.46 298.22,-447.01 282.86,-474 269.6,-497.33 244.57,-515.05 224.42,-526.39"/>
<polygon fill="black" stroke="black" points="222.72,-523.33 215.57,-531.15 226.04,-529.5 222.72,-523.33"/>
<text text-anchor="middle" x="297.36" y="-451.8" font-family="Times,serif" font-size="14.00">0</text>
</g>
<!-- 4&#45;&gt;5 -->
<g id="edge26" class="edge">
<title>4&#45;&gt;5</title>
<path fill="none" stroke="black" d="M290.77,-351.93C289.82,-342.37 288.08,-330.34 284.86,-320 274,-285.01 254.04,-247.65 240.14,-223.86"/>
<polygon fill="black" stroke="black" points="243.08,-221.94 234.96,-215.13 237.06,-225.52 243.08,-221.94"/>
<text text-anchor="middle" x="280.97" y="-279.8" font-family="Times,serif" font-size="14.00">a</text>
</g>
<!-- 4&#45;&gt;3 -->
<g id="edge24" class="edge">
<title>4&#45;&gt;3</title>
<path fill="none" stroke="black" d="M275.89,-384.62C268.3,-391.09 259.11,-398.94 250.86,-406 239.92,-415.38 227.8,-425.79 217.57,-434.59"/>
<polygon fill="black" stroke="black" points="215.12,-432.08 209.82,-441.26 219.69,-437.39 215.12,-432.08"/>
<text text-anchor="middle" x="254.36" y="-408.8" font-family="Times,serif" font-size="14.00">2</text>
</g>
<!-- 4&#45;&gt;2 -->
<g id="edge23" class="edge">
<title>4&#45;&gt;2</title>
<path fill="none" stroke="black" d="M285.35,-352.25C280.41,-341.59 272.61,-328.27 261.86,-320 238.64,-302.12 206.38,-293.34 181.61,-289.05"/>
<polygon fill="black" stroke="black" points="181.92,-285.56 171.5,-287.48 180.85,-292.48 181.92,-285.56"/>
<text text-anchor="middle" x="277.36" y="-322.8" font-family="Times,serif" font-size="14.00">1</text>
</g>
<!-- 4&#45;&gt;4 -->
<g id="edge25" class="edge">
<title>4&#45;&gt;4</title>
<path fill="none" stroke="black" d="M316.4,-377.75C327.37,-378.49 336.86,-375.91 336.86,-370 336.86,-366.03 332.58,-363.56 326.44,-362.59"/>
<polygon fill="black" stroke="black" points="326.51,-359.09 316.4,-362.25 326.27,-366.09 326.51,-359.09"/>
<text text-anchor="middle" x="340.36" y="-365.8" font-family="Times,serif" font-size="14.00">3</text>
</g>
</g>
</svg>
