<?xml version="1.0" encoding="UTF-8" standalone="no"?>
<!DOCTYPE svg PUBLIC "-//W3C//DTD SVG 1.1//EN"
 "http://www.w3.org/Graphics/SVG/1.1/DTD/svg11.dtd">
<!-- Generated by graphviz version 2.40.1 (20161225.0304)
 -->
<!-- Title: %3 Pages: 1 -->
<svg width="355pt" height="824pt"
 viewBox="0.00 0.00 355.00 824.00" xmlns="http://www.w3.org/2000/svg" xmlns:xlink="http://www.w3.org/1999/xlink">
<g id="graph0" class="graph" transform="scale(1 1) rotate(0) translate(4 819.9965)">
<title>%3</title>
<polygon fill="#ffffff" stroke="transparent" points="-4,4 -4,-819.9965 351,-819.9965 351,4 -4,4"/>
<!-- fake0 -->
<g id="node1" class="node">
<title>fake0</title>
</g>
<!-- 10 -->
<g id="node16" class="node">
<title>10</title>
<ellipse fill="none" stroke="#000000" cx="42" cy="-724.9965" rx="27" ry="18"/>
<text text-anchor="middle" x="42" y="-721.2965" font-family="Times,serif" font-size="14.00" fill="#000000">10</text>
</g>
<!-- fake0&#45;&gt;10 -->
<g id="edge1" class="edge">
<title>fake0&#45;&gt;10</title>
<path fill="none" stroke="#000000" stroke-width="2" d="M42,-779.9516C42,-771.8794 42,-762.1729 42,-753.1783"/>
<polygon fill="#000000" stroke="#000000" stroke-width="2" points="45.5001,-753.0869 42,-743.0869 38.5001,-753.0869 45.5001,-753.0869"/>
</g>
<!-- 14 -->
<g id="node2" class="node">
<title>14</title>
<ellipse fill="none" stroke="#000000" cx="27" cy="-23.4983" rx="19.4968" ry="19.4968"/>
<ellipse fill="none" stroke="#000000" cx="27" cy="-23.4983" rx="23.4965" ry="23.4965"/>
<text text-anchor="middle" x="27" y="-19.7983" font-family="Times,serif" font-size="14.00" fill="#000000">14</text>
</g>
<!-- 6 -->
<g id="node3" class="node">
<title>6</title>
<ellipse fill="none" stroke="#000000" cx="104" cy="-550.9965" rx="27" ry="18"/>
<text text-anchor="middle" x="104" y="-547.2965" font-family="Times,serif" font-size="14.00" fill="#000000">6</text>
</g>
<!-- 7 -->
<g id="node9" class="node">
<title>7</title>
<ellipse fill="none" stroke="#000000" cx="104" cy="-463.9965" rx="27" ry="18"/>
<text text-anchor="middle" x="104" y="-460.2965" font-family="Times,serif" font-size="14.00" fill="#000000">7</text>
</g>
<!-- 6&#45;&gt;7 -->
<g id="edge10" class="edge">
<title>6&#45;&gt;7</title>
<path fill="none" stroke="#000000" d="M104,-532.9701C104,-521.1883 104,-505.5572 104,-492.1546"/>
<polygon fill="#000000" stroke="#000000" points="107.5001,-491.9999 104,-481.9999 100.5001,-491.9999 107.5001,-491.9999"/>
<text text-anchor="middle" x="107.5" y="-503.7965" font-family="Times,serif" font-size="14.00" fill="#000000">2</text>
</g>
<!-- 9 -->
<g id="node4" class="node">
<title>9</title>
<ellipse fill="none" stroke="#000000" cx="248" cy="-463.9965" rx="27" ry="18"/>
<text text-anchor="middle" x="248" y="-460.2965" font-family="Times,serif" font-size="14.00" fill="#000000">9</text>
</g>
<!-- 5 -->
<g id="node8" class="node">
<title>5</title>
<ellipse fill="none" stroke="#000000" cx="140" cy="-376.9965" rx="27" ry="18"/>
<text text-anchor="middle" x="140" y="-373.2965" font-family="Times,serif" font-size="14.00" fill="#000000">5</text>
</g>
<!-- 9&#45;&gt;5 -->
<g id="edge13" class="edge">
<title>9&#45;&gt;5</title>
<path fill="none" stroke="#000000" d="M230.6479,-450.0185C212.9345,-435.7493 185.2596,-413.4557 165.1461,-397.2532"/>
<polygon fill="#000000" stroke="#000000" points="167.2922,-394.4876 157.309,-390.9399 162.9009,-399.9389 167.2922,-394.4876"/>
<text text-anchor="middle" x="203.5" y="-416.7965" font-family="Times,serif" font-size="14.00" fill="#000000">e</text>
</g>
<!-- 2 -->
<g id="node5" class="node">
<title>2</title>
<ellipse fill="none" stroke="#000000" cx="176" cy="-550.9965" rx="27" ry="18"/>
<text text-anchor="middle" x="176" y="-547.2965" font-family="Times,serif" font-size="14.00" fill="#000000">2</text>
</g>
<!-- 3 -->
<g id="node14" class="node">
<title>3</title>
<ellipse fill="none" stroke="#000000" cx="176" cy="-463.9965" rx="27" ry="18"/>
<text text-anchor="middle" x="176" y="-460.2965" font-family="Times,serif" font-size="14.00" fill="#000000">3</text>
</g>
<!-- 2&#45;&gt;3 -->
<g id="edge3" class="edge">
<title>2&#45;&gt;3</title>
<path fill="none" stroke="#000000" d="M176,-532.9701C176,-521.1883 176,-505.5572 176,-492.1546"/>
<polygon fill="#000000" stroke="#000000" points="179.5001,-491.9999 176,-481.9999 172.5001,-491.9999 179.5001,-491.9999"/>
<text text-anchor="middle" x="179.5" y="-503.7965" font-family="Times,serif" font-size="14.00" fill="#000000">1</text>
</g>
<!-- 8 -->
<g id="node6" class="node">
<title>8</title>
<ellipse fill="none" stroke="#000000" cx="248" cy="-550.9965" rx="27" ry="18"/>
<text text-anchor="middle" x="248" y="-547.2965" font-family="Times,serif" font-size="14.00" fill="#000000">8</text>
</g>
<!-- 8&#45;&gt;9 -->
<g id="edge12" class="edge">
<title>8&#45;&gt;9</title>
<path fill="none" stroke="#000000" d="M248,-532.9701C248,-521.1883 248,-505.5572 248,-492.1546"/>
<polygon fill="#000000" stroke="#000000" points="251.5001,-491.9999 248,-481.9999 244.5001,-491.9999 251.5001,-491.9999"/>
<text text-anchor="middle" x="251.5" y="-503.7965" font-family="Times,serif" font-size="14.00" fill="#000000">3</text>
</g>
<!-- 12 -->
<g id="node7" class="node">
<title>12</title>
<ellipse fill="none" stroke="#000000" cx="27" cy="-202.9965" rx="27" ry="18"/>
<text text-anchor="middle" x="27" y="-199.2965" font-family="Times,serif" font-size="14.00" fill="#000000">12</text>
</g>
<!-- 13 -->
<g id="node13" class="node">
<title>13</title>
<ellipse fill="none" stroke="#000000" cx="27" cy="-115.9965" rx="27" ry="18"/>
<text text-anchor="middle" x="27" y="-112.2965" font-family="Times,serif" font-size="14.00" fill="#000000">13</text>
</g>
<!-- 12&#45;&gt;13 -->
<g id="edge19" class="edge">
<title>12&#45;&gt;13</title>
<path fill="none" stroke="#000000" d="M27,-184.9701C27,-173.1883 27,-157.5572 27,-144.1546"/>
<polygon fill="#000000" stroke="#000000" points="30.5001,-143.9999 27,-133.9999 23.5001,-143.9999 30.5001,-143.9999"/>
<text text-anchor="middle" x="30.5" y="-155.7965" font-family="Times,serif" font-size="14.00" fill="#000000">b</text>
</g>
<!-- 11 -->
<g id="node10" class="node">
<title>11</title>
<ellipse fill="none" stroke="#000000" cx="27" cy="-289.9965" rx="27" ry="18"/>
<text text-anchor="middle" x="27" y="-286.2965" font-family="Times,serif" font-size="14.00" fill="#000000">11</text>
</g>
<!-- 5&#45;&gt;11 -->
<g id="edge16" class="edge">
<title>5&#45;&gt;11</title>
<path fill="none" stroke="#000000" d="M122.0948,-363.2111C103.4154,-348.8296 73.9551,-326.1478 52.7741,-309.8403"/>
<polygon fill="#000000" stroke="#000000" points="54.8803,-307.0447 44.8214,-303.7175 50.6099,-312.5913 54.8803,-307.0447"/>
<text text-anchor="middle" x="93.5" y="-329.7965" font-family="Times,serif" font-size="14.00" fill="#000000">e</text>
</g>
<!-- 4 -->
<g id="node12" class="node">
<title>4</title>
<ellipse fill="none" stroke="#000000" cx="145" cy="-637.9965" rx="27" ry="18"/>
<text text-anchor="middle" x="145" y="-634.2965" font-family="Times,serif" font-size="14.00" fill="#000000">4</text>
</g>
<!-- 5&#45;&gt;4 -->
<g id="edge17" class="edge">
<title>5&#45;&gt;4</title>
<path fill="none" stroke="#000000" d="M120.1401,-389.2167C102.7056,-401.2258 78.5327,-421.3143 68,-445.9965 46.544,-496.2766 45.7057,-519.0825 68,-568.9965 77.7248,-590.769 98.0912,-608.5253 115.4363,-620.5708"/>
<polygon fill="#000000" stroke="#000000" points="113.8875,-623.7426 124.1589,-626.3402 117.7492,-617.9042 113.8875,-623.7426"/>
<text text-anchor="middle" x="54.5" y="-503.7965" font-family="Times,serif" font-size="14.00" fill="#000000">e</text>
</g>
<!-- 7&#45;&gt;5 -->
<g id="edge11" class="edge">
<title>7&#45;&gt;5</title>
<path fill="none" stroke="#000000" d="M111.2851,-446.3908C116.3111,-434.2448 123.0893,-417.864 128.7982,-404.0677"/>
<polygon fill="#000000" stroke="#000000" points="132.1362,-405.1545 132.7257,-394.5761 125.6681,-402.478 132.1362,-405.1545"/>
<text text-anchor="middle" x="127.5" y="-416.7965" font-family="Times,serif" font-size="14.00" fill="#000000">e</text>
</g>
<!-- 11&#45;&gt;12 -->
<g id="edge18" class="edge">
<title>11&#45;&gt;12</title>
<path fill="none" stroke="#000000" d="M27,-271.9701C27,-260.1883 27,-244.5572 27,-231.1546"/>
<polygon fill="#000000" stroke="#000000" points="30.5001,-230.9999 27,-220.9999 23.5001,-230.9999 30.5001,-230.9999"/>
<text text-anchor="middle" x="30.5" y="-242.7965" font-family="Times,serif" font-size="14.00" fill="#000000">a</text>
</g>
<!-- 1 -->
<g id="node11" class="node">
<title>1</title>
<ellipse fill="none" stroke="#000000" cx="320" cy="-463.9965" rx="27" ry="18"/>
<text text-anchor="middle" x="320" y="-460.2965" font-family="Times,serif" font-size="14.00" fill="#000000">1</text>
</g>
<!-- 1&#45;&gt;5 -->
<g id="edge8" class="edge">
<title>1&#45;&gt;5</title>
<path fill="none" stroke="#000000" d="M298.3272,-453.0865C293.6116,-450.7333 288.6443,-448.2701 284,-445.9965 245.5241,-427.161 201.0287,-405.9231 171.8008,-392.0463"/>
<polygon fill="#000000" stroke="#000000" points="173.0399,-388.7603 162.5048,-387.6366 170.0397,-395.0848 173.0399,-388.7603"/>
<text text-anchor="middle" x="247.5" y="-416.7965" font-family="Times,serif" font-size="14.00" fill="#000000">e</text>
</g>
<!-- 4&#45;&gt;6 -->
<g id="edge5" class="edge">
<title>4&#45;&gt;6</title>
<path fill="none" stroke="#000000" d="M136.8997,-620.8081C131.0975,-608.4961 123.1725,-591.6796 116.5545,-577.6366"/>
<polygon fill="#000000" stroke="#000000" points="119.6529,-576.0008 112.2238,-568.447 113.3208,-578.9849 119.6529,-576.0008"/>
<text text-anchor="middle" x="129.5" y="-590.7965" font-family="Times,serif" font-size="14.00" fill="#000000">e</text>
</g>
<!-- 4&#45;&gt;2 -->
<g id="edge4" class="edge">
<title>4&#45;&gt;2</title>
<path fill="none" stroke="#000000" d="M151.2733,-620.3908C155.6012,-608.2448 161.438,-591.864 166.354,-578.0677"/>
<polygon fill="#000000" stroke="#000000" points="169.6764,-579.1708 169.736,-568.5761 163.0825,-576.8212 169.6764,-579.1708"/>
<text text-anchor="middle" x="165.5" y="-590.7965" font-family="Times,serif" font-size="14.00" fill="#000000">e</text>
</g>
<!-- 4&#45;&gt;8 -->
<g id="edge6" class="edge">
<title>4&#45;&gt;8</title>
<path fill="none" stroke="#000000" d="M162.0084,-623.6303C178.7071,-609.5255 204.3597,-587.8577 223.3039,-571.8564"/>
<polygon fill="#000000" stroke="#000000" points="225.5853,-574.5108 230.9664,-565.3842 221.0684,-569.1631 225.5853,-574.5108"/>
<text text-anchor="middle" x="205.5" y="-590.7965" font-family="Times,serif" font-size="14.00" fill="#000000">e</text>
</g>
<!-- 0 -->
<g id="node15" class="node">
<title>0</title>
<ellipse fill="none" stroke="#000000" cx="320" cy="-550.9965" rx="27" ry="18"/>
<text text-anchor="middle" x="320" y="-547.2965" font-family="Times,serif" font-size="14.00" fill="#000000">0</text>
</g>
<!-- 4&#45;&gt;0 -->
<g id="edge7" class="edge">
<title>4&#45;&gt;0</title>
<path fill="none" stroke="#000000" d="M166.6785,-627.2593C194.0338,-613.705 242.5228,-589.6605 284,-568.9965 285.7356,-568.1319 287.518,-567.2431 289.3165,-566.3457"/>
<polygon fill="#000000" stroke="#000000" points="290.9205,-569.4569 298.3031,-561.8576 287.7929,-563.1945 290.9205,-569.4569"/>
<text text-anchor="middle" x="248.5" y="-590.7965" font-family="Times,serif" font-size="14.00" fill="#000000">e</text>
</g>
<!-- 13&#45;&gt;14 -->
<g id="edge20" class="edge">
<title>13&#45;&gt;14</title>
<path fill="none" stroke="#000000" d="M27,-97.7219C27,-86.1421 27,-70.8147 27,-57.0961"/>
<polygon fill="#000000" stroke="#000000" points="30.5001,-57.0077 27,-47.0077 23.5001,-57.0077 30.5001,-57.0077"/>
<text text-anchor="middle" x="30.5" y="-68.7965" font-family="Times,serif" font-size="14.00" fill="#000000">c</text>
</g>
<!-- 3&#45;&gt;5 -->
<g id="edge9" class="edge">
<title>3&#45;&gt;5</title>
<path fill="none" stroke="#000000" d="M168.7149,-446.3908C163.6889,-434.2448 156.9107,-417.864 151.2018,-404.0677"/>
<polygon fill="#000000" stroke="#000000" points="154.3319,-402.478 147.2743,-394.5761 147.8638,-405.1545 154.3319,-402.478"/>
<text text-anchor="middle" x="163.5" y="-416.7965" font-family="Times,serif" font-size="14.00" fill="#000000">e</text>
</g>
<!-- 0&#45;&gt;1 -->
<g id="edge2" class="edge">
<title>0&#45;&gt;1</title>
<path fill="none" stroke="#000000" d="M320,-532.9701C320,-521.1883 320,-505.5572 320,-492.1546"/>
<polygon fill="#000000" stroke="#000000" points="323.5001,-491.9999 320,-481.9999 316.5001,-491.9999 323.5001,-491.9999"/>
<text text-anchor="middle" x="323.5" y="-503.7965" font-family="Times,serif" font-size="14.00" fill="#000000">0</text>
</g>
<!-- 10&#45;&gt;11 -->
<g id="edge14" class="edge">
<title>10&#45;&gt;11</title>
<path fill="none" stroke="#000000" d="M32.0208,-707.9711C22.9585,-690.8776 11,-663.4912 11,-637.9965 11,-637.9965 11,-637.9965 11,-376.9965 11,-356.9022 15.1797,-334.6215 19.2666,-317.6386"/>
<polygon fill="#000000" stroke="#000000" points="22.6919,-318.3698 21.761,-307.8159 15.9073,-316.6468 22.6919,-318.3698"/>
<text text-anchor="middle" x="14.5" y="-503.7965" font-family="Times,serif" font-size="14.00" fill="#000000">e</text>
</g>
<!-- 10&#45;&gt;4 -->
<g id="edge15" class="edge">
<title>10&#45;&gt;4</title>
<path fill="none" stroke="#000000" d="M59.0084,-710.6303C75.7071,-696.5255 101.3597,-674.8577 120.3039,-658.8564"/>
<polygon fill="#000000" stroke="#000000" points="122.5853,-661.5108 127.9664,-652.3842 118.0684,-656.1631 122.5853,-661.5108"/>
<text text-anchor="middle" x="102.5" y="-677.7965" font-family="Times,serif" font-size="14.00" fill="#000000">e</text>
</g>
</g>
</svg>
