<?xml version="1.0" encoding="UTF-8" standalone="no"?>
<!DOCTYPE svg PUBLIC "-//W3C//DTD SVG 1.1//EN"
 "http://www.w3.org/Graphics/SVG/1.1/DTD/svg11.dtd">
<!-- Generated by graphviz version 2.42.3 (20191010.1750)
 -->
<!-- Title: %3 Pages: 1 -->
<svg width="427pt" height="727pt"
 viewBox="0.00 0.00 427.14 727.00" xmlns="http://www.w3.org/2000/svg" xmlns:xlink="http://www.w3.org/1999/xlink">
<g id="graph0" class="graph" transform="scale(1 1) rotate(0) translate(4 723)">
<title>%3</title>
<polygon fill="white" stroke="transparent" points="-4,4 -4,-723 423.14,-723 423.14,4 -4,4"/>
<!-- fake -->
<g id="node1" class="node">
<title>fake</title>
</g>
<!-- 0 -->
<g id="node4" class="node">
<title>0</title>
<ellipse fill="none" stroke="black" cx="339.93" cy="-628" rx="27" ry="18"/>
<text text-anchor="middle" x="339.93" y="-623.8" font-family="Times,serif" font-size="14.00">0</text>
</g>
<!-- fake&#45;&gt;0 -->
<g id="edge1" class="edge">
<title>fake&#45;&gt;0</title>
<path fill="none" stroke="black" stroke-width="2" d="M339.93,-682.81C339.93,-674.79 339.93,-665.05 339.93,-656.07"/>
<polygon fill="black" stroke="black" stroke-width="2" points="343.43,-656.03 339.93,-646.03 336.43,-656.03 343.43,-656.03"/>
</g>
<!-- 2 -->
<g id="node2" class="node">
<title>2</title>
<ellipse fill="none" stroke="black" cx="202.93" cy="-542" rx="27" ry="18"/>
<text text-anchor="middle" x="202.93" y="-537.8" font-family="Times,serif" font-size="14.00">2</text>
</g>
<!-- 2&#45;&gt;2 -->
<g id="edge13" class="edge">
<title>2&#45;&gt;2</title>
<path fill="none" stroke="black" d="M227.46,-549.75C238.44,-550.49 247.93,-547.91 247.93,-542 247.93,-538.03 243.64,-535.56 237.5,-534.59"/>
<polygon fill="black" stroke="black" points="237.58,-531.09 227.46,-534.25 237.34,-538.09 237.58,-531.09"/>
<text text-anchor="middle" x="251.43" y="-537.8" font-family="Times,serif" font-size="14.00">1</text>
</g>
<!-- 3 -->
<g id="node3" class="node">
<title>3</title>
<ellipse fill="none" stroke="black" cx="202.93" cy="-456" rx="27" ry="18"/>
<text text-anchor="middle" x="202.93" y="-451.8" font-family="Times,serif" font-size="14.00">3</text>
</g>
<!-- 2&#45;&gt;3 -->
<g id="edge14" class="edge">
<title>2&#45;&gt;3</title>
<path fill="none" stroke="black" d="M196.04,-524.56C193.97,-518.79 191.96,-512.21 190.93,-506 189.7,-498.6 190.63,-490.67 192.42,-483.39"/>
<polygon fill="black" stroke="black" points="195.82,-484.24 195.39,-473.65 189.12,-482.2 195.82,-484.24"/>
<text text-anchor="middle" x="194.43" y="-494.8" font-family="Times,serif" font-size="14.00">2</text>
</g>
<!-- 5 -->
<g id="node7" class="node">
<title>5</title>
<ellipse fill="none" stroke="black" cx="233.93" cy="-198" rx="27" ry="18"/>
<text text-anchor="middle" x="233.93" y="-193.8" font-family="Times,serif" font-size="14.00">5</text>
</g>
<!-- 2&#45;&gt;5 -->
<g id="edge16" class="edge">
<title>2&#45;&gt;5</title>
<path fill="none" stroke="black" d="M176.38,-538.12C150.43,-534.26 110.73,-525.48 81.93,-506 9.75,-457.19 -23.98,-395.27 19.93,-320 58.66,-253.61 148.81,-220.75 198.86,-207.09"/>
<polygon fill="black" stroke="black" points="199.82,-210.46 208.6,-204.54 198.04,-203.69 199.82,-210.46"/>
<text text-anchor="middle" x="9.04" y="-365.8" font-family="Times,serif" font-size="14.00">a</text>
</g>
<!-- 4 -->
<g id="node8" class="node">
<title>4</title>
<ellipse fill="none" stroke="black" cx="153.93" cy="-284" rx="27" ry="18"/>
<text text-anchor="middle" x="153.93" y="-279.8" font-family="Times,serif" font-size="14.00">4</text>
</g>
<!-- 2&#45;&gt;4 -->
<g id="edge15" class="edge">
<title>2&#45;&gt;4</title>
<path fill="none" stroke="black" d="M175.84,-539.7C151.26,-537 115.89,-529.05 95.93,-506 41.81,-443.51 49.23,-388.22 95.93,-320 102.27,-310.73 111.95,-303.51 121.6,-298.1"/>
<polygon fill="black" stroke="black" points="123.4,-301.11 130.73,-293.45 120.23,-294.87 123.4,-301.11"/>
<text text-anchor="middle" x="62.43" y="-408.8" font-family="Times,serif" font-size="14.00">3</text>
</g>
<!-- 1 -->
<g id="node9" class="node">
<title>1</title>
<ellipse fill="none" stroke="black" cx="300.93" cy="-370" rx="27" ry="18"/>
<text text-anchor="middle" x="300.93" y="-365.8" font-family="Times,serif" font-size="14.00">1</text>
</g>
<!-- 2&#45;&gt;1 -->
<g id="edge12" class="edge">
<title>2&#45;&gt;1</title>
<path fill="none" stroke="black" d="M225.19,-531.32C246.78,-520.65 278.45,-501.31 293.93,-474 307.07,-450.82 307.31,-419.82 305.2,-397.91"/>
<polygon fill="black" stroke="black" points="308.67,-397.47 304.02,-387.95 301.72,-398.3 308.67,-397.47"/>
<text text-anchor="middle" x="307.43" y="-451.8" font-family="Times,serif" font-size="14.00">0</text>
</g>
<!-- 3&#45;&gt;2 -->
<g id="edge18" class="edge">
<title>3&#45;&gt;2</title>
<path fill="none" stroke="black" d="M202.93,-474.1C202.93,-485.37 202.93,-500.38 202.93,-513.33"/>
<polygon fill="black" stroke="black" points="199.43,-513.6 202.93,-523.6 206.43,-513.6 199.43,-513.6"/>
<text text-anchor="middle" x="206.43" y="-494.8" font-family="Times,serif" font-size="14.00">1</text>
</g>
<!-- 3&#45;&gt;3 -->
<g id="edge19" class="edge">
<title>3&#45;&gt;3</title>
<path fill="none" stroke="black" d="M227.46,-463.75C238.44,-464.49 247.93,-461.91 247.93,-456 247.93,-452.03 243.64,-449.56 237.5,-448.59"/>
<polygon fill="black" stroke="black" points="237.58,-445.09 227.46,-448.25 237.34,-452.09 237.58,-445.09"/>
<text text-anchor="middle" x="251.43" y="-451.8" font-family="Times,serif" font-size="14.00">2</text>
</g>
<!-- 3&#45;&gt;5 -->
<g id="edge21" class="edge">
<title>3&#45;&gt;5</title>
<path fill="none" stroke="black" d="M206.65,-437.96C207.81,-432.27 209.02,-425.88 209.93,-420 220.63,-350.5 228.26,-267.97 231.77,-226.17"/>
<polygon fill="black" stroke="black" points="235.27,-226.23 232.61,-215.98 228.3,-225.66 235.27,-226.23"/>
<text text-anchor="middle" x="226.04" y="-322.8" font-family="Times,serif" font-size="14.00">a</text>
</g>
<!-- 3&#45;&gt;4 -->
<g id="edge20" class="edge">
<title>3&#45;&gt;4</title>
<path fill="none" stroke="black" d="M194.38,-438.68C191.35,-432.81 187.94,-426.13 184.93,-420 178,-405.9 174.51,-403.02 169.93,-388 162.28,-362.94 158.17,-333.29 156.04,-312.25"/>
<polygon fill="black" stroke="black" points="159.5,-311.73 155.09,-302.1 152.53,-312.38 159.5,-311.73"/>
<text text-anchor="middle" x="173.43" y="-365.8" font-family="Times,serif" font-size="14.00">3</text>
</g>
<!-- 3&#45;&gt;1 -->
<g id="edge17" class="edge">
<title>3&#45;&gt;1</title>
<path fill="none" stroke="black" d="M225.05,-445.37C237.59,-439.25 253.09,-430.5 264.93,-420 272.9,-412.93 280.18,-403.82 286.08,-395.37"/>
<polygon fill="black" stroke="black" points="289.07,-397.19 291.69,-386.93 283.24,-393.32 289.07,-397.19"/>
<text text-anchor="middle" x="281.43" y="-408.8" font-family="Times,serif" font-size="14.00">0</text>
</g>
<!-- 0&#45;&gt;2 -->
<g id="edge3" class="edge">
<title>0&#45;&gt;2</title>
<path fill="none" stroke="black" d="M320.59,-615.14C297.23,-600.82 257.76,-576.62 231.04,-560.24"/>
<polygon fill="black" stroke="black" points="232.52,-557.04 222.17,-554.8 228.87,-563.01 232.52,-557.04"/>
<text text-anchor="middle" x="283.43" y="-580.8" font-family="Times,serif" font-size="14.00">1</text>
</g>
<!-- 0&#45;&gt;3 -->
<g id="edge4" class="edge">
<title>0&#45;&gt;3</title>
<path fill="none" stroke="black" d="M329.08,-611.27C314.75,-590.73 288.46,-553.89 263.93,-524 251.2,-508.49 236.02,-491.81 223.98,-478.97"/>
<polygon fill="black" stroke="black" points="226.36,-476.38 216.95,-471.51 221.27,-481.19 226.36,-476.38"/>
<text text-anchor="middle" x="294.43" y="-537.8" font-family="Times,serif" font-size="14.00">2</text>
</g>
<!-- 0&#45;&gt;5 -->
<g id="edge6" class="edge">
<title>0&#45;&gt;5</title>
<path fill="none" stroke="black" d="M359.88,-615.55C381.49,-601.49 412.93,-575.46 412.93,-543 412.93,-543 412.93,-543 412.93,-283 412.93,-221.02 323.88,-204.68 271.4,-200.44"/>
<polygon fill="black" stroke="black" points="271.33,-196.92 261.12,-199.72 270.85,-203.91 271.33,-196.92"/>
<text text-anchor="middle" x="416.04" y="-408.8" font-family="Times,serif" font-size="14.00">a</text>
</g>
<!-- 0&#45;&gt;4 -->
<g id="edge5" class="edge">
<title>0&#45;&gt;4</title>
<path fill="none" stroke="black" d="M313.47,-623.77C250.59,-614.41 94.15,-580.76 49.93,-474 40.55,-451.35 50.06,-374.61 58.93,-352 65.42,-335.45 69.25,-331.35 82.93,-320 94.22,-310.63 108.45,-302.99 121.19,-297.26"/>
<polygon fill="black" stroke="black" points="122.75,-300.4 130.58,-293.26 120.01,-293.96 122.75,-300.4"/>
<text text-anchor="middle" x="53.43" y="-451.8" font-family="Times,serif" font-size="14.00">3</text>
</g>
<!-- 0&#45;&gt;1 -->
<g id="edge2" class="edge">
<title>0&#45;&gt;1</title>
<path fill="none" stroke="black" d="M340.7,-609.92C341.9,-572.22 342.13,-479.38 319.93,-406 318.9,-402.59 317.51,-399.13 315.95,-395.78"/>
<polygon fill="black" stroke="black" points="318.99,-394.03 311.27,-386.78 312.78,-397.26 318.99,-394.03"/>
<text text-anchor="middle" x="340.43" y="-494.8" font-family="Times,serif" font-size="14.00">0</text>
</g>
<!-- 7 -->
<g id="node5" class="node">
<title>7</title>
<ellipse fill="none" stroke="black" cx="233.93" cy="-22" rx="18" ry="18"/>
<ellipse fill="none" stroke="black" cx="233.93" cy="-22" rx="22" ry="22"/>
<text text-anchor="middle" x="233.93" y="-17.8" font-family="Times,serif" font-size="14.00">7</text>
</g>
<!-- 6 -->
<g id="node6" class="node">
<title>6</title>
<ellipse fill="none" stroke="black" cx="233.93" cy="-112" rx="27" ry="18"/>
<text text-anchor="middle" x="233.93" y="-107.8" font-family="Times,serif" font-size="14.00">6</text>
</g>
<!-- 6&#45;&gt;7 -->
<g id="edge28" class="edge">
<title>6&#45;&gt;7</title>
<path fill="none" stroke="black" d="M233.93,-93.61C233.93,-82.39 233.93,-67.46 233.93,-54.23"/>
<polygon fill="black" stroke="black" points="237.43,-54.07 233.93,-44.07 230.43,-54.07 237.43,-54.07"/>
<text text-anchor="middle" x="237.04" y="-64.8" font-family="Times,serif" font-size="14.00">c</text>
</g>
<!-- 5&#45;&gt;6 -->
<g id="edge27" class="edge">
<title>5&#45;&gt;6</title>
<path fill="none" stroke="black" d="M233.93,-179.6C233.93,-168.26 233.93,-153.23 233.93,-140.32"/>
<polygon fill="black" stroke="black" points="237.43,-140.1 233.93,-130.1 230.43,-140.1 237.43,-140.1"/>
<text text-anchor="middle" x="237.43" y="-150.8" font-family="Times,serif" font-size="14.00">b</text>
</g>
<!-- 4&#45;&gt;2 -->
<g id="edge23" class="edge">
<title>4&#45;&gt;2</title>
<path fill="none" stroke="black" d="M152.54,-302.16C150.37,-335.92 148.16,-413.02 166.93,-474 171.51,-488.88 179.51,-504.27 186.81,-516.54"/>
<polygon fill="black" stroke="black" points="183.96,-518.59 192.18,-525.26 189.91,-514.91 183.96,-518.59"/>
<text text-anchor="middle" x="159.43" y="-408.8" font-family="Times,serif" font-size="14.00">1</text>
</g>
<!-- 4&#45;&gt;3 -->
<g id="edge24" class="edge">
<title>4&#45;&gt;3</title>
<path fill="none" stroke="black" d="M163.22,-301C166.32,-306.84 169.58,-313.58 171.93,-320 185.19,-356.29 194.02,-400.21 198.75,-427.88"/>
<polygon fill="black" stroke="black" points="195.34,-428.69 200.42,-437.99 202.24,-427.55 195.34,-428.69"/>
<text text-anchor="middle" x="194.43" y="-365.8" font-family="Times,serif" font-size="14.00">2</text>
</g>
<!-- 4&#45;&gt;5 -->
<g id="edge26" class="edge">
<title>4&#45;&gt;5</title>
<path fill="none" stroke="black" d="M167.86,-268.37C180.29,-255.32 198.67,-236.03 212.88,-221.1"/>
<polygon fill="black" stroke="black" points="215.52,-223.4 219.89,-213.75 210.45,-218.57 215.52,-223.4"/>
<text text-anchor="middle" x="202.04" y="-236.8" font-family="Times,serif" font-size="14.00">a</text>
</g>
<!-- 4&#45;&gt;4 -->
<g id="edge25" class="edge">
<title>4&#45;&gt;4</title>
<path fill="none" stroke="black" d="M178.46,-291.75C189.44,-292.49 198.93,-289.91 198.93,-284 198.93,-280.03 194.64,-277.56 188.5,-276.59"/>
<polygon fill="black" stroke="black" points="188.58,-273.09 178.46,-276.25 188.34,-280.09 188.58,-273.09"/>
<text text-anchor="middle" x="202.43" y="-279.8" font-family="Times,serif" font-size="14.00">3</text>
</g>
<!-- 4&#45;&gt;1 -->
<g id="edge22" class="edge">
<title>4&#45;&gt;1</title>
<path fill="none" stroke="black" d="M180.57,-287.48C206.04,-291.02 244.38,-299.57 270.93,-320 278.82,-326.08 285.12,-334.87 289.87,-343.34"/>
<polygon fill="black" stroke="black" points="286.76,-344.93 294.42,-352.25 292.99,-341.75 286.76,-344.93"/>
<text text-anchor="middle" x="287.43" y="-322.8" font-family="Times,serif" font-size="14.00">0</text>
</g>
<!-- 1&#45;&gt;2 -->
<g id="edge8" class="edge">
<title>1&#45;&gt;2</title>
<path fill="none" stroke="black" d="M297.61,-388.02C295.54,-397.55 292.58,-409.58 288.93,-420 280.19,-444.96 278.56,-451.97 263.93,-474 252.91,-490.61 237.85,-507.19 225.46,-519.7"/>
<polygon fill="black" stroke="black" points="222.79,-517.41 218.14,-526.93 227.72,-522.39 222.79,-517.41"/>
<text text-anchor="middle" x="286.43" y="-451.8" font-family="Times,serif" font-size="14.00">1</text>
</g>
<!-- 1&#45;&gt;3 -->
<g id="edge9" class="edge">
<title>1&#45;&gt;3</title>
<path fill="none" stroke="black" d="M284.95,-384.62C277.37,-391.09 268.17,-398.94 259.93,-406 248.98,-415.38 236.87,-425.79 226.63,-434.59"/>
<polygon fill="black" stroke="black" points="224.18,-432.08 218.89,-441.26 228.75,-437.39 224.18,-432.08"/>
<text text-anchor="middle" x="263.43" y="-408.8" font-family="Times,serif" font-size="14.00">2</text>
</g>
<!-- 1&#45;&gt;5 -->
<g id="edge11" class="edge">
<title>1&#45;&gt;5</title>
<path fill="none" stroke="black" d="M300.28,-351.92C299.57,-342.37 298.06,-330.33 294.93,-320 284.2,-284.62 263.66,-247.09 249.4,-223.37"/>
<polygon fill="black" stroke="black" points="252.29,-221.39 244.08,-214.69 246.32,-225.05 252.29,-221.39"/>
<text text-anchor="middle" x="292.04" y="-279.8" font-family="Times,serif" font-size="14.00">a</text>
</g>
<!-- 1&#45;&gt;4 -->
<g id="edge10" class="edge">
<title>1&#45;&gt;4</title>
<path fill="none" stroke="black" d="M286.1,-354.73C274.5,-344.12 257.6,-329.85 240.93,-320 224.33,-310.19 204.47,-301.97 187.92,-295.96"/>
<polygon fill="black" stroke="black" points="188.7,-292.53 178.1,-292.52 186.38,-299.13 188.7,-292.53"/>
<text text-anchor="middle" x="264.43" y="-322.8" font-family="Times,serif" font-size="14.00">3</text>
</g>
<!-- 1&#45;&gt;1 -->
<g id="edge7" class="edge">
<title>1&#45;&gt;1</title>
<path fill="none" stroke="black" d="M325.46,-377.75C336.44,-378.49 345.93,-375.91 345.93,-370 345.93,-366.03 341.64,-363.56 335.5,-362.59"/>
<polygon fill="black" stroke="black" points="335.58,-359.09 325.46,-362.25 335.34,-366.09 335.58,-359.09"/>
<text text-anchor="middle" x="349.43" y="-365.8" font-family="Times,serif" font-size="14.00">0</text>
</g>
</g>
</svg>
