<?xml version="1.0" encoding="UTF-8" standalone="no"?>
<!DOCTYPE svg PUBLIC "-//W3C//DTD SVG 1.1//EN"
 "http://www.w3.org/Graphics/SVG/1.1/DTD/svg11.dtd">
<!-- Generated by graphviz version 2.42.3 (20191010.1750)
 -->
<!-- Title: %3 Pages: 1 -->
<svg width="211pt" height="1439pt"
 viewBox="0.00 0.00 211.00 1438.90" xmlns="http://www.w3.org/2000/svg" xmlns:xlink="http://www.w3.org/1999/xlink">
<g id="graph0" class="graph" transform="scale(1 1) rotate(0) translate(4 1434.9)">
<title>%3</title>
<polygon fill="white" stroke="transparent" points="-4,4 -4,-1434.9 207,-1434.9 207,4 -4,4"/>
<!-- fake0 -->
<g id="node1" class="node">
<title>fake0</title>
</g>
<!-- 12 -->
<g id="node7" class="node">
<title>12</title>
<ellipse fill="none" stroke="black" cx="33" cy="-1339.9" rx="27" ry="18"/>
<text text-anchor="middle" x="33" y="-1335.7" font-family="Times,serif" font-size="14.00">12</text>
</g>
<!-- fake0&#45;&gt;12 -->
<g id="edge1" class="edge">
<title>fake0&#45;&gt;12</title>
<path fill="none" stroke="black" stroke-width="2" d="M33,-1394.71C33,-1386.69 33,-1376.95 33,-1367.97"/>
<polygon fill="black" stroke="black" stroke-width="2" points="36.5,-1367.93 33,-1357.93 29.5,-1367.93 36.5,-1367.93"/>
</g>
<!-- 5 -->
<g id="node2" class="node">
<title>5</title>
<ellipse fill="none" stroke="black" cx="176" cy="-1081.9" rx="27" ry="18"/>
<text text-anchor="middle" x="176" y="-1077.7" font-family="Times,serif" font-size="14.00">5</text>
</g>
<!-- 6 -->
<g id="node19" class="node">
<title>6</title>
<ellipse fill="none" stroke="black" cx="176" cy="-995.9" rx="27" ry="18"/>
<text text-anchor="middle" x="176" y="-991.7" font-family="Times,serif" font-size="14.00">6</text>
</g>
<!-- 5&#45;&gt;6 -->
<g id="edge6" class="edge">
<title>5&#45;&gt;6</title>
<path fill="none" stroke="black" d="M176,-1063.5C176,-1052.16 176,-1037.13 176,-1024.22"/>
<polygon fill="black" stroke="black" points="179.5,-1024 176,-1014 172.5,-1024 179.5,-1024"/>
<text text-anchor="middle" x="179.5" y="-1034.7" font-family="Times,serif" font-size="14.00">0</text>
</g>
<!-- 1 -->
<g id="node3" class="node">
<title>1</title>
<ellipse fill="none" stroke="black" cx="104" cy="-1081.9" rx="27" ry="18"/>
<text text-anchor="middle" x="104" y="-1077.7" font-family="Times,serif" font-size="14.00">1</text>
</g>
<!-- 2 -->
<g id="node8" class="node">
<title>2</title>
<ellipse fill="none" stroke="black" cx="104" cy="-995.9" rx="27" ry="18"/>
<text text-anchor="middle" x="104" y="-991.7" font-family="Times,serif" font-size="14.00">2</text>
</g>
<!-- 1&#45;&gt;2 -->
<g id="edge3" class="edge">
<title>1&#45;&gt;2</title>
<path fill="none" stroke="black" d="M104,-1063.5C104,-1052.16 104,-1037.13 104,-1024.22"/>
<polygon fill="black" stroke="black" points="107.5,-1024 104,-1014 100.5,-1024 107.5,-1024"/>
<text text-anchor="middle" x="107.5" y="-1034.7" font-family="Times,serif" font-size="14.00">1</text>
</g>
<!-- 15 -->
<g id="node4" class="node">
<title>15</title>
<ellipse fill="none" stroke="black" cx="66" cy="-285.9" rx="27" ry="18"/>
<text text-anchor="middle" x="66" y="-281.7" font-family="Times,serif" font-size="14.00">15</text>
</g>
<!-- 16 -->
<g id="node6" class="node">
<title>16</title>
<ellipse fill="none" stroke="black" cx="66" cy="-199.9" rx="27" ry="18"/>
<text text-anchor="middle" x="66" y="-195.7" font-family="Times,serif" font-size="14.00">16</text>
</g>
<!-- 15&#45;&gt;16 -->
<g id="edge19" class="edge">
<title>15&#45;&gt;16</title>
<path fill="none" stroke="black" d="M66,-267.5C66,-256.16 66,-241.13 66,-228.22"/>
<polygon fill="black" stroke="black" points="69.5,-228 66,-218 62.5,-228 69.5,-228"/>
<text text-anchor="middle" x="69.5" y="-238.7" font-family="Times,serif" font-size="14.00">1</text>
</g>
<!-- 11 -->
<g id="node5" class="node">
<title>11</title>
<ellipse fill="none" stroke="black" cx="81" cy="-629.9" rx="27" ry="18"/>
<text text-anchor="middle" x="81" y="-625.7" font-family="Times,serif" font-size="14.00">11</text>
</g>
<!-- 13 -->
<g id="node16" class="node">
<title>13</title>
<ellipse fill="none" stroke="black" cx="27" cy="-543.9" rx="27" ry="18"/>
<text text-anchor="middle" x="27" y="-539.7" font-family="Times,serif" font-size="14.00">13</text>
</g>
<!-- 11&#45;&gt;13 -->
<g id="edge16" class="edge">
<title>11&#45;&gt;13</title>
<path fill="none" stroke="black" d="M70.84,-613.1C62.92,-600.78 51.78,-583.45 42.72,-569.35"/>
<polygon fill="black" stroke="black" points="45.46,-567.15 37.11,-560.63 39.57,-570.93 45.46,-567.15"/>
<text text-anchor="middle" x="60.11" y="-582.7" font-family="Times,serif" font-size="14.00">e</text>
</g>
<!-- 10 -->
<g id="node18" class="node">
<title>10</title>
<ellipse fill="none" stroke="black" cx="79" cy="-1253.9" rx="27" ry="18"/>
<text text-anchor="middle" x="79" y="-1249.7" font-family="Times,serif" font-size="14.00">10</text>
</g>
<!-- 11&#45;&gt;10 -->
<g id="edge17" class="edge">
<title>11&#45;&gt;10</title>
<path fill="none" stroke="black" d="M71.05,-646.64C61.66,-663.03 49,-689.78 49,-714.9 49,-1168.9 49,-1168.9 49,-1168.9 49,-1189.42 57.04,-1211.2 64.79,-1227.44"/>
<polygon fill="black" stroke="black" points="61.87,-1229.43 69.51,-1236.78 68.12,-1226.27 61.87,-1229.43"/>
<text text-anchor="middle" x="52.11" y="-948.7" font-family="Times,serif" font-size="14.00">e</text>
</g>
<!-- 17 -->
<g id="node21" class="node">
<title>17</title>
<ellipse fill="none" stroke="black" cx="66" cy="-113.9" rx="27" ry="18"/>
<text text-anchor="middle" x="66" y="-109.7" font-family="Times,serif" font-size="14.00">17</text>
</g>
<!-- 16&#45;&gt;17 -->
<g id="edge20" class="edge">
<title>16&#45;&gt;17</title>
<path fill="none" stroke="black" d="M66,-181.5C66,-170.16 66,-155.13 66,-142.22"/>
<polygon fill="black" stroke="black" points="69.5,-142 66,-132 62.5,-142 69.5,-142"/>
<text text-anchor="middle" x="69.5" y="-152.7" font-family="Times,serif" font-size="14.00">0</text>
</g>
<!-- 12&#45;&gt;13 -->
<g id="edge14" class="edge">
<title>12&#45;&gt;13</title>
<path fill="none" stroke="black" d="M26.04,-1322.5C19.59,-1305.8 11,-1279.02 11,-1254.9 11,-1254.9 11,-1254.9 11,-628.9 11,-609.54 15.15,-588.1 19.23,-571.73"/>
<polygon fill="black" stroke="black" points="22.69,-572.34 21.85,-561.77 15.92,-570.55 22.69,-572.34"/>
<text text-anchor="middle" x="14.11" y="-948.7" font-family="Times,serif" font-size="14.00">e</text>
</g>
<!-- 12&#45;&gt;10 -->
<g id="edge15" class="edge">
<title>12&#45;&gt;10</title>
<path fill="none" stroke="black" d="M41.87,-1322.7C48.49,-1310.62 57.65,-1293.88 65.22,-1280.06"/>
<polygon fill="black" stroke="black" points="68.42,-1281.5 70.16,-1271.05 62.28,-1278.14 68.42,-1281.5"/>
<text text-anchor="middle" x="61.11" y="-1292.7" font-family="Times,serif" font-size="14.00">e</text>
</g>
<!-- 3 -->
<g id="node11" class="node">
<title>3</title>
<ellipse fill="none" stroke="black" cx="97" cy="-855.9" rx="27" ry="18"/>
<text text-anchor="middle" x="97" y="-851.7" font-family="Times,serif" font-size="14.00">3</text>
</g>
<!-- 2&#45;&gt;3 -->
<g id="edge4" class="edge">
<title>2&#45;&gt;3</title>
<path fill="none" stroke="black" d="M103.13,-977.7C101.94,-954.36 99.81,-912.37 98.4,-884.56"/>
<polygon fill="black" stroke="black" points="101.89,-884.13 97.88,-874.32 94.89,-884.48 101.89,-884.13"/>
<text text-anchor="middle" x="105.5" y="-948.7" font-family="Times,serif" font-size="14.00">0</text>
</g>
<!-- 9 -->
<g id="node9" class="node">
<title>9</title>
<ellipse fill="none" stroke="black" cx="150" cy="-715.9" rx="27" ry="18"/>
<text text-anchor="middle" x="150" y="-711.7" font-family="Times,serif" font-size="14.00">9</text>
</g>
<!-- 9&#45;&gt;11 -->
<g id="edge13" class="edge">
<title>9&#45;&gt;11</title>
<path fill="none" stroke="black" d="M137.66,-699.88C127.23,-687.18 112.11,-668.77 100.11,-654.16"/>
<polygon fill="black" stroke="black" points="102.51,-651.58 93.46,-646.07 97.1,-656.02 102.51,-651.58"/>
<text text-anchor="middle" x="122.11" y="-668.7" font-family="Times,serif" font-size="14.00">e</text>
</g>
<!-- 0 -->
<g id="node10" class="node">
<title>0</title>
<ellipse fill="none" stroke="black" cx="104" cy="-1167.9" rx="27" ry="18"/>
<text text-anchor="middle" x="104" y="-1163.7" font-family="Times,serif" font-size="14.00">0</text>
</g>
<!-- 0&#45;&gt;1 -->
<g id="edge2" class="edge">
<title>0&#45;&gt;1</title>
<path fill="none" stroke="black" d="M104,-1149.5C104,-1138.16 104,-1123.13 104,-1110.22"/>
<polygon fill="black" stroke="black" points="107.5,-1110 104,-1100 100.5,-1110 107.5,-1110"/>
<text text-anchor="middle" x="107.5" y="-1120.7" font-family="Times,serif" font-size="14.00">0</text>
</g>
<!-- 3&#45;&gt;11 -->
<g id="edge12" class="edge">
<title>3&#45;&gt;11</title>
<path fill="none" stroke="black" d="M95.77,-837.7C93.01,-799.01 86.29,-704.92 82.95,-658.18"/>
<polygon fill="black" stroke="black" points="86.44,-657.89 82.23,-648.16 79.45,-658.39 86.44,-657.89"/>
<text text-anchor="middle" x="93.11" y="-754.7" font-family="Times,serif" font-size="14.00">e</text>
</g>
<!-- 7 -->
<g id="node12" class="node">
<title>7</title>
<ellipse fill="none" stroke="black" cx="156" cy="-909.9" rx="27" ry="18"/>
<text text-anchor="middle" x="156" y="-905.7" font-family="Times,serif" font-size="14.00">7</text>
</g>
<!-- 8 -->
<g id="node20" class="node">
<title>8</title>
<ellipse fill="none" stroke="black" cx="151" cy="-801.9" rx="27" ry="18"/>
<text text-anchor="middle" x="151" y="-797.7" font-family="Times,serif" font-size="14.00">8</text>
</g>
<!-- 7&#45;&gt;8 -->
<g id="edge8" class="edge">
<title>7&#45;&gt;8</title>
<path fill="none" stroke="black" d="M155.2,-891.87C154.41,-875.28 153.21,-849.78 152.29,-830.33"/>
<polygon fill="black" stroke="black" points="155.79,-830.07 151.82,-820.24 148.79,-830.4 155.79,-830.07"/>
<text text-anchor="middle" x="157.5" y="-851.7" font-family="Times,serif" font-size="14.00">0</text>
</g>
<!-- 19 -->
<g id="node13" class="node">
<title>19</title>
<ellipse fill="none" stroke="black" cx="27" cy="-22.95" rx="18.91" ry="18.91"/>
<ellipse fill="none" stroke="black" cx="27" cy="-22.95" rx="22.9" ry="22.9"/>
<text text-anchor="middle" x="27" y="-18.75" font-family="Times,serif" font-size="14.00">19</text>
</g>
<!-- 14 -->
<g id="node14" class="node">
<title>14</title>
<ellipse fill="none" stroke="black" cx="66" cy="-371.9" rx="27" ry="18"/>
<text text-anchor="middle" x="66" y="-367.7" font-family="Times,serif" font-size="14.00">14</text>
</g>
<!-- 14&#45;&gt;15 -->
<g id="edge18" class="edge">
<title>14&#45;&gt;15</title>
<path fill="none" stroke="black" d="M66,-353.5C66,-342.16 66,-327.13 66,-314.22"/>
<polygon fill="black" stroke="black" points="69.5,-314 66,-304 62.5,-314 69.5,-314"/>
<text text-anchor="middle" x="69.5" y="-324.7" font-family="Times,serif" font-size="14.00">0</text>
</g>
<!-- 18 -->
<g id="node15" class="node">
<title>18</title>
<ellipse fill="none" stroke="black" cx="27" cy="-457.9" rx="27" ry="18"/>
<text text-anchor="middle" x="27" y="-453.7" font-family="Times,serif" font-size="14.00">18</text>
</g>
<!-- 18&#45;&gt;19 -->
<g id="edge22" class="edge">
<title>18&#45;&gt;19</title>
<path fill="none" stroke="black" d="M21.85,-440.03C17.17,-423.19 11,-396.5 11,-372.9 11,-372.9 11,-372.9 11,-112.9 11,-93.54 14.72,-72.18 18.57,-55.24"/>
<polygon fill="black" stroke="black" points="22.02,-55.87 20.95,-45.33 15.21,-54.23 22.02,-55.87"/>
<text text-anchor="middle" x="14.11" y="-238.7" font-family="Times,serif" font-size="14.00">e</text>
</g>
<!-- 18&#45;&gt;14 -->
<g id="edge21" class="edge">
<title>18&#45;&gt;14</title>
<path fill="none" stroke="black" d="M34.71,-440.3C40.21,-428.45 47.72,-412.28 54,-398.75"/>
<polygon fill="black" stroke="black" points="57.27,-400.01 58.31,-389.46 50.93,-397.06 57.27,-400.01"/>
<text text-anchor="middle" x="51.11" y="-410.7" font-family="Times,serif" font-size="14.00">e</text>
</g>
<!-- 13&#45;&gt;18 -->
<g id="edge25" class="edge">
<title>13&#45;&gt;18</title>
<path fill="none" stroke="black" d="M27,-525.5C27,-514.16 27,-499.13 27,-486.22"/>
<polygon fill="black" stroke="black" points="30.5,-486 27,-476 23.5,-486 30.5,-486"/>
<text text-anchor="middle" x="30.11" y="-496.7" font-family="Times,serif" font-size="14.00">e</text>
</g>
<!-- 4 -->
<g id="node17" class="node">
<title>4</title>
<ellipse fill="none" stroke="black" cx="176" cy="-1167.9" rx="27" ry="18"/>
<text text-anchor="middle" x="176" y="-1163.7" font-family="Times,serif" font-size="14.00">4</text>
</g>
<!-- 4&#45;&gt;5 -->
<g id="edge5" class="edge">
<title>4&#45;&gt;5</title>
<path fill="none" stroke="black" d="M176,-1149.5C176,-1138.16 176,-1123.13 176,-1110.22"/>
<polygon fill="black" stroke="black" points="179.5,-1110 176,-1100 172.5,-1110 179.5,-1110"/>
<text text-anchor="middle" x="179.5" y="-1120.7" font-family="Times,serif" font-size="14.00">1</text>
</g>
<!-- 10&#45;&gt;0 -->
<g id="edge10" class="edge">
<title>10&#45;&gt;0</title>
<path fill="none" stroke="black" d="M84.06,-1235.9C87.48,-1224.4 92.07,-1208.97 95.99,-1195.82"/>
<polygon fill="black" stroke="black" points="99.45,-1196.46 98.95,-1185.87 92.74,-1194.46 99.45,-1196.46"/>
<text text-anchor="middle" x="95.11" y="-1206.7" font-family="Times,serif" font-size="14.00">e</text>
</g>
<!-- 10&#45;&gt;4 -->
<g id="edge11" class="edge">
<title>10&#45;&gt;4</title>
<path fill="none" stroke="black" d="M95.02,-1239.03C110.6,-1225.53 134.47,-1204.86 152.26,-1189.46"/>
<polygon fill="black" stroke="black" points="154.69,-1191.98 159.96,-1182.79 150.11,-1186.69 154.69,-1191.98"/>
<text text-anchor="middle" x="136.11" y="-1206.7" font-family="Times,serif" font-size="14.00">e</text>
</g>
<!-- 6&#45;&gt;7 -->
<g id="edge7" class="edge">
<title>6&#45;&gt;7</title>
<path fill="none" stroke="black" d="M171.95,-977.9C169.21,-966.4 165.54,-950.97 162.41,-937.82"/>
<polygon fill="black" stroke="black" points="165.76,-936.79 160.04,-927.87 158.95,-938.41 165.76,-936.79"/>
<text text-anchor="middle" x="170.5" y="-948.7" font-family="Times,serif" font-size="14.00">1</text>
</g>
<!-- 8&#45;&gt;9 -->
<g id="edge9" class="edge">
<title>8&#45;&gt;9</title>
<path fill="none" stroke="black" d="M150.79,-783.5C150.66,-772.16 150.48,-757.13 150.33,-744.22"/>
<polygon fill="black" stroke="black" points="153.82,-743.95 150.2,-734 146.82,-744.04 153.82,-743.95"/>
<text text-anchor="middle" x="153.5" y="-754.7" font-family="Times,serif" font-size="14.00">1</text>
</g>
<!-- 17&#45;&gt;19 -->
<g id="edge24" class="edge">
<title>17&#45;&gt;19</title>
<path fill="none" stroke="black" d="M58.66,-96.17C53.43,-84.23 46.25,-67.85 40.05,-53.71"/>
<polygon fill="black" stroke="black" points="43.17,-52.11 35.95,-44.35 36.76,-54.92 43.17,-52.11"/>
<text text-anchor="middle" x="52.11" y="-66.7" font-family="Times,serif" font-size="14.00">e</text>
</g>
<!-- 17&#45;&gt;14 -->
<g id="edge23" class="edge">
<title>17&#45;&gt;14</title>
<path fill="none" stroke="black" d="M77.27,-130.49C85.94,-143.52 97.23,-162.95 102,-181.9 115.23,-234.48 115.23,-251.32 102,-303.9 98.2,-319 90.26,-334.41 82.8,-346.64"/>
<polygon fill="black" stroke="black" points="79.7,-344.99 77.27,-355.31 85.6,-348.76 79.7,-344.99"/>
<text text-anchor="middle" x="114.11" y="-238.7" font-family="Times,serif" font-size="14.00">e</text>
</g>
</g>
</svg>
