<?xml version="1.0" encoding="UTF-8" standalone="no"?>
<!DOCTYPE svg PUBLIC "-//W3C//DTD SVG 1.1//EN"
 "http://www.w3.org/Graphics/SVG/1.1/DTD/svg11.dtd">
<!-- Generated by graphviz version 2.40.1 (20161225.0304)
 -->
<!-- Title: %3 Pages: 1 -->
<svg width="428pt" height="734pt"
 viewBox="0.00 0.00 428.00 734.00" xmlns="http://www.w3.org/2000/svg" xmlns:xlink="http://www.w3.org/1999/xlink">
<g id="graph0" class="graph" transform="scale(1 1) rotate(0) translate(4 730)">
<title>%3</title>
<polygon fill="#ffffff" stroke="transparent" points="-4,4 -4,-730 424,-730 424,4 -4,4"/>
<!-- fake -->
<g id="node1" class="node">
<title>fake</title>
</g>
<!-- 0 -->
<g id="node7" class="node">
<title>0</title>
<ellipse fill="none" stroke="#000000" cx="201" cy="-635" rx="27" ry="18"/>
<text text-anchor="middle" x="201" y="-631.3" font-family="Times,serif" font-size="14.00" fill="#000000">0</text>
</g>
<!-- fake&#45;&gt;0 -->
<g id="edge1" class="edge">
<title>fake&#45;&gt;0</title>
<path fill="none" stroke="#000000" stroke-width="2" d="M201,-689.9551C201,-681.8828 201,-672.1764 201,-663.1817"/>
<polygon fill="#000000" stroke="#000000" stroke-width="2" points="204.5001,-663.0903 201,-653.0904 197.5001,-663.0904 204.5001,-663.0903"/>
</g>
<!-- 4 -->
<g id="node2" class="node">
<title>4</title>
<ellipse fill="none" stroke="#000000" cx="201" cy="-548" rx="27" ry="18"/>
<text text-anchor="middle" x="201" y="-544.3" font-family="Times,serif" font-size="14.00" fill="#000000">4</text>
</g>
<!-- 4&#45;&gt;4 -->
<g id="edge25" class="edge">
<title>4&#45;&gt;4</title>
<path fill="none" stroke="#000000" d="M225.5325,-555.752C236.5078,-556.4902 246,-553.9063 246,-548 246,-544.0317 241.7151,-541.5632 235.5743,-540.5944"/>
<polygon fill="#000000" stroke="#000000" points="235.6472,-537.0949 225.5325,-540.248 235.4059,-544.0908 235.6472,-537.0949"/>
<text text-anchor="middle" x="249.5" y="-544.3" font-family="Times,serif" font-size="14.00" fill="#000000">3</text>
</g>
<!-- 2 -->
<g id="node3" class="node">
<title>2</title>
<ellipse fill="none" stroke="#000000" cx="171" cy="-461" rx="27" ry="18"/>
<text text-anchor="middle" x="171" y="-457.3" font-family="Times,serif" font-size="14.00" fill="#000000">2</text>
</g>
<!-- 4&#45;&gt;2 -->
<g id="edge23" class="edge">
<title>4&#45;&gt;2</title>
<path fill="none" stroke="#000000" d="M194.9291,-530.3943C190.7408,-518.2482 185.0922,-501.8674 180.3349,-488.0711"/>
<polygon fill="#000000" stroke="#000000" points="183.6307,-486.8923 177.0619,-478.5796 177.0131,-489.1743 183.6307,-486.8923"/>
<text text-anchor="middle" x="190.5" y="-500.8" font-family="Times,serif" font-size="14.00" fill="#000000">1</text>
</g>
<!-- 1 -->
<g id="node4" class="node">
<title>1</title>
<ellipse fill="none" stroke="#000000" cx="277" cy="-374" rx="27" ry="18"/>
<text text-anchor="middle" x="277" y="-370.3" font-family="Times,serif" font-size="14.00" fill="#000000">1</text>
</g>
<!-- 4&#45;&gt;1 -->
<g id="edge22" class="edge">
<title>4&#45;&gt;1</title>
<path fill="none" stroke="#000000" d="M209.5471,-530.6719C221.0893,-507.0295 242.0492,-463.2285 258,-425 261.2234,-417.2746 264.4913,-408.7883 267.3868,-400.9929"/>
<polygon fill="#000000" stroke="#000000" points="270.6752,-402.1914 270.824,-391.5976 264.1013,-399.7864 270.6752,-402.1914"/>
<text text-anchor="middle" x="252.5" y="-457.3" font-family="Times,serif" font-size="14.00" fill="#000000">0</text>
</g>
<!-- 3 -->
<g id="node6" class="node">
<title>3</title>
<ellipse fill="none" stroke="#000000" cx="146" cy="-287" rx="27" ry="18"/>
<text text-anchor="middle" x="146" y="-283.3" font-family="Times,serif" font-size="14.00" fill="#000000">3</text>
</g>
<!-- 4&#45;&gt;3 -->
<g id="edge24" class="edge">
<title>4&#45;&gt;3</title>
<path fill="none" stroke="#000000" d="M180.458,-536.2104C163.4012,-526.3686 141.6648,-513.6828 140,-512 128.0975,-499.9688 126.7041,-494.9337 121,-479 97.6081,-413.6578 104.1535,-388.1777 128,-323 129.1525,-319.8501 130.5055,-316.6158 131.9435,-313.4395"/>
<polygon fill="#000000" stroke="#000000" points="135.1958,-314.7534 136.3964,-304.2268 128.8934,-311.7072 135.1958,-314.7534"/>
<text text-anchor="middle" x="110.5" y="-413.8" font-family="Times,serif" font-size="14.00" fill="#000000">2</text>
</g>
<!-- 5 -->
<g id="node9" class="node">
<title>5</title>
<ellipse fill="none" stroke="#000000" cx="282" cy="-200" rx="27" ry="18"/>
<text text-anchor="middle" x="282" y="-196.3" font-family="Times,serif" font-size="14.00" fill="#000000">5</text>
</g>
<!-- 4&#45;&gt;5 -->
<g id="edge26" class="edge">
<title>4&#45;&gt;5</title>
<path fill="none" stroke="#000000" d="M228.1875,-546.5649C277.125,-542.3605 375,-525.846 375,-461 375,-461 375,-461 375,-287 375,-252.7849 341.0151,-228.144 314.1335,-214.0052"/>
<polygon fill="#000000" stroke="#000000" points="315.4996,-210.7754 304.9888,-209.4436 312.375,-217.0393 315.4996,-210.7754"/>
<text text-anchor="middle" x="378.5" y="-370.3" font-family="Times,serif" font-size="14.00" fill="#000000">a</text>
</g>
<!-- 2&#45;&gt;4 -->
<g id="edge15" class="edge">
<title>2&#45;&gt;4</title>
<path fill="none" stroke="#000000" d="M169.5614,-478.9795C169.3693,-488.9877 170.1561,-501.5063 174,-512 175.5846,-516.3258 177.8718,-520.5689 180.4538,-524.5379"/>
<polygon fill="#000000" stroke="#000000" points="177.6976,-526.6985 186.4189,-532.7143 183.3527,-522.5729 177.6976,-526.6985"/>
<text text-anchor="middle" x="177.5" y="-500.8" font-family="Times,serif" font-size="14.00" fill="#000000">3</text>
</g>
<!-- 2&#45;&gt;2 -->
<g id="edge13" class="edge">
<title>2&#45;&gt;2</title>
<path fill="none" stroke="#000000" d="M195.5325,-468.752C206.5078,-469.4902 216,-466.9063 216,-461 216,-457.0317 211.7151,-454.5632 205.5743,-453.5944"/>
<polygon fill="#000000" stroke="#000000" points="205.6472,-450.0949 195.5325,-453.248 205.4059,-457.0908 205.6472,-450.0949"/>
<text text-anchor="middle" x="219.5" y="-457.3" font-family="Times,serif" font-size="14.00" fill="#000000">1</text>
</g>
<!-- 2&#45;&gt;1 -->
<g id="edge12" class="edge">
<title>2&#45;&gt;1</title>
<path fill="none" stroke="#000000" d="M186.6127,-446.2914C197.8716,-435.8693 213.5655,-421.7149 228,-410 234.9516,-404.3582 242.6752,-398.5033 249.8964,-393.1958"/>
<polygon fill="#000000" stroke="#000000" points="252.0318,-395.9706 258.0662,-387.2622 247.9182,-390.3068 252.0318,-395.9706"/>
<text text-anchor="middle" x="231.5" y="-413.8" font-family="Times,serif" font-size="14.00" fill="#000000">0</text>
</g>
<!-- 2&#45;&gt;3 -->
<g id="edge14" class="edge">
<title>2&#45;&gt;3</title>
<path fill="none" stroke="#000000" d="M162.5091,-443.801C159.9899,-437.9669 157.5044,-431.3235 156,-425 147.1654,-387.8653 145.4456,-343.6599 145.4118,-315.4699"/>
<polygon fill="#000000" stroke="#000000" points="148.9136,-315.1655 145.4748,-305.1443 141.9137,-315.1228 148.9136,-315.1655"/>
<text text-anchor="middle" x="153.5" y="-370.3" font-family="Times,serif" font-size="14.00" fill="#000000">2</text>
</g>
<!-- 2&#45;&gt;5 -->
<g id="edge16" class="edge">
<title>2&#45;&gt;5</title>
<path fill="none" stroke="#000000" d="M178.4554,-443.4698C197.4522,-398.8016 247.777,-280.4702 270.536,-226.956"/>
<polygon fill="#000000" stroke="#000000" points="273.8842,-228.0261 274.5771,-217.4539 267.4425,-225.2865 273.8842,-228.0261"/>
<text text-anchor="middle" x="232.5" y="-326.8" font-family="Times,serif" font-size="14.00" fill="#000000">a</text>
</g>
<!-- 1&#45;&gt;4 -->
<g id="edge10" class="edge">
<title>1&#45;&gt;4</title>
<path fill="none" stroke="#000000" d="M283.5496,-391.7041C285.3683,-397.4566 287.0925,-403.9243 288,-410 294.7691,-455.3181 300.3251,-475.2183 273,-512 263.9463,-524.1869 249.6114,-532.5134 236.1077,-538.0613"/>
<polygon fill="#000000" stroke="#000000" points="234.6654,-534.8633 226.5092,-541.6254 237.1021,-541.4255 234.6654,-534.8633"/>
<text text-anchor="middle" x="296.5" y="-457.3" font-family="Times,serif" font-size="14.00" fill="#000000">3</text>
</g>
<!-- 1&#45;&gt;2 -->
<g id="edge8" class="edge">
<title>1&#45;&gt;2</title>
<path fill="none" stroke="#000000" d="M265.1284,-390.4191C256.8933,-401.087 245.2403,-414.8459 233,-425 223.5902,-432.806 212.2736,-439.9218 201.8987,-445.7278"/>
<polygon fill="#000000" stroke="#000000" points="200.2345,-442.6487 193.0955,-450.4772 203.5582,-448.8093 200.2345,-442.6487"/>
<text text-anchor="middle" x="250.5" y="-413.8" font-family="Times,serif" font-size="14.00" fill="#000000">1</text>
</g>
<!-- 1&#45;&gt;1 -->
<g id="edge7" class="edge">
<title>1&#45;&gt;1</title>
<path fill="none" stroke="#000000" d="M301.5325,-381.752C312.5078,-382.4902 322,-379.9063 322,-374 322,-370.0317 317.7151,-367.5632 311.5743,-366.5944"/>
<polygon fill="#000000" stroke="#000000" points="311.6472,-363.0949 301.5325,-366.248 311.4059,-370.0908 311.6472,-363.0949"/>
<text text-anchor="middle" x="325.5" y="-370.3" font-family="Times,serif" font-size="14.00" fill="#000000">0</text>
</g>
<!-- 1&#45;&gt;3 -->
<g id="edge9" class="edge">
<title>1&#45;&gt;3</title>
<path fill="none" stroke="#000000" d="M253.7637,-364.6813C238.7153,-358.1754 219.0122,-348.7521 203,-338 190.7015,-329.7416 178.297,-318.9954 168.2146,-309.4982"/>
<polygon fill="#000000" stroke="#000000" points="170.6261,-306.9614 160.9974,-302.541 165.7679,-312.0011 170.6261,-306.9614"/>
<text text-anchor="middle" x="206.5" y="-326.8" font-family="Times,serif" font-size="14.00" fill="#000000">2</text>
</g>
<!-- 1&#45;&gt;5 -->
<g id="edge11" class="edge">
<title>1&#45;&gt;5</title>
<path fill="none" stroke="#000000" d="M277.5256,-355.7078C278.3982,-325.3436 280.1516,-264.3226 281.1854,-228.3464"/>
<polygon fill="#000000" stroke="#000000" points="284.6926,-228.1435 281.4814,-218.0471 277.6955,-227.9424 284.6926,-228.1435"/>
<text text-anchor="middle" x="282.5" y="-283.3" font-family="Times,serif" font-size="14.00" fill="#000000">a</text>
</g>
<!-- 7 -->
<g id="node5" class="node">
<title>7</title>
<ellipse fill="none" stroke="#000000" cx="282" cy="-22" rx="18" ry="18"/>
<ellipse fill="none" stroke="#000000" cx="282" cy="-22" rx="22" ry="22"/>
<text text-anchor="middle" x="282" y="-18.3" font-family="Times,serif" font-size="14.00" fill="#000000">7</text>
</g>
<!-- 3&#45;&gt;4 -->
<g id="edge20" class="edge">
<title>3&#45;&gt;4</title>
<path fill="none" stroke="#000000" d="M140.1802,-304.7333C129.7649,-339.5682 111.1503,-418.778 135,-479 142.8795,-498.8963 159.5954,-516.2723 174.232,-528.6105"/>
<polygon fill="#000000" stroke="#000000" points="172.0965,-531.3845 182.0803,-534.9307 176.487,-525.9326 172.0965,-531.3845"/>
<text text-anchor="middle" x="126.5" y="-413.8" font-family="Times,serif" font-size="14.00" fill="#000000">3</text>
</g>
<!-- 3&#45;&gt;2 -->
<g id="edge18" class="edge">
<title>3&#45;&gt;2</title>
<path fill="none" stroke="#000000" d="M150.4718,-304.7612C153.8156,-318.6326 158.2645,-338.4363 161,-356 165.0075,-381.731 167.6485,-411.2765 169.2046,-432.4581"/>
<polygon fill="#000000" stroke="#000000" points="165.7321,-432.9762 169.9208,-442.7079 172.7151,-432.4882 165.7321,-432.9762"/>
<text text-anchor="middle" x="168.5" y="-370.3" font-family="Times,serif" font-size="14.00" fill="#000000">1</text>
</g>
<!-- 3&#45;&gt;1 -->
<g id="edge17" class="edge">
<title>3&#45;&gt;1</title>
<path fill="none" stroke="#000000" d="M171.685,-292.997C191.2571,-298.4767 218.1336,-308.0391 238,-323 247.1766,-329.9107 255.2854,-339.523 261.6989,-348.5415"/>
<polygon fill="#000000" stroke="#000000" points="258.8289,-350.546 267.3079,-356.8987 264.6412,-346.645 258.8289,-350.546"/>
<text text-anchor="middle" x="256.5" y="-326.8" font-family="Times,serif" font-size="14.00" fill="#000000">0</text>
</g>
<!-- 3&#45;&gt;3 -->
<g id="edge19" class="edge">
<title>3&#45;&gt;3</title>
<path fill="none" stroke="#000000" d="M170.5325,-294.752C181.5078,-295.4902 191,-292.9063 191,-287 191,-283.0317 186.7151,-280.5632 180.5743,-279.5944"/>
<polygon fill="#000000" stroke="#000000" points="180.6472,-276.0949 170.5325,-279.248 180.4059,-283.0908 180.6472,-276.0949"/>
<text text-anchor="middle" x="194.5" y="-283.3" font-family="Times,serif" font-size="14.00" fill="#000000">2</text>
</g>
<!-- 3&#45;&gt;5 -->
<g id="edge21" class="edge">
<title>3&#45;&gt;5</title>
<path fill="none" stroke="#000000" d="M162.0813,-272.3027C174.3796,-261.49 192.0511,-246.8479 209,-236 221.8336,-227.7861 236.8072,-220.1048 249.8412,-213.9647"/>
<polygon fill="#000000" stroke="#000000" points="251.3105,-217.1414 258.9308,-209.7805 248.3835,-210.7827 251.3105,-217.1414"/>
<text text-anchor="middle" x="212.5" y="-239.8" font-family="Times,serif" font-size="14.00" fill="#000000">a</text>
</g>
<!-- 0&#45;&gt;4 -->
<g id="edge5" class="edge">
<title>0&#45;&gt;4</title>
<path fill="none" stroke="#000000" d="M201,-616.9735C201,-605.1918 201,-589.5607 201,-576.1581"/>
<polygon fill="#000000" stroke="#000000" points="204.5001,-576.0033 201,-566.0034 197.5001,-576.0034 204.5001,-576.0033"/>
<text text-anchor="middle" x="204.5" y="-587.8" font-family="Times,serif" font-size="14.00" fill="#000000">3</text>
</g>
<!-- 0&#45;&gt;2 -->
<g id="edge3" class="edge">
<title>0&#45;&gt;2</title>
<path fill="none" stroke="#000000" d="M187.566,-619.2439C177.22,-606.0079 163.7459,-586.0843 158,-566 150.6623,-540.3518 155.8344,-510.0105 161.6838,-488.5561"/>
<polygon fill="#000000" stroke="#000000" points="165.09,-489.3787 164.5578,-478.7973 158.3752,-487.4011 165.09,-489.3787"/>
<text text-anchor="middle" x="161.5" y="-544.3" font-family="Times,serif" font-size="14.00" fill="#000000">1</text>
</g>
<!-- 0&#45;&gt;1 -->
<g id="edge2" class="edge">
<title>0&#45;&gt;1</title>
<path fill="none" stroke="#000000" d="M216.9471,-620.1049C242.9382,-594.3803 292.6793,-538.624 304,-479 309.721,-448.8684 312.8771,-439.0359 303,-410 301.6034,-405.8944 299.5653,-401.8549 297.235,-398.0508"/>
<polygon fill="#000000" stroke="#000000" points="300.0059,-395.9046 291.4317,-389.681 294.2534,-399.8932 300.0059,-395.9046"/>
<text text-anchor="middle" x="302.5" y="-500.8" font-family="Times,serif" font-size="14.00" fill="#000000">0</text>
</g>
<!-- 0&#45;&gt;3 -->
<g id="edge4" class="edge">
<title>0&#45;&gt;3</title>
<path fill="none" stroke="#000000" d="M175.1343,-629.5161C120.8474,-617.2602 0,-585.7392 0,-548 0,-548 0,-548 0,-374 0,-323.1917 66.0565,-301.3721 109.3053,-292.5313"/>
<polygon fill="#000000" stroke="#000000" points="110.0506,-295.9524 119.2213,-290.647 108.7437,-289.0754 110.0506,-295.9524"/>
<text text-anchor="middle" x="3.5" y="-457.3" font-family="Times,serif" font-size="14.00" fill="#000000">2</text>
</g>
<!-- 0&#45;&gt;5 -->
<g id="edge6" class="edge">
<title>0&#45;&gt;5</title>
<path fill="none" stroke="#000000" d="M226.9954,-630.0433C283.6055,-618.5062 413,-587.7842 413,-548 413,-548 413,-548 413,-287 413,-241.2617 356.8987,-218.1286 318.1228,-207.6021"/>
<polygon fill="#000000" stroke="#000000" points="318.7493,-204.1501 308.195,-205.075 317.0225,-210.9337 318.7493,-204.1501"/>
<text text-anchor="middle" x="416.5" y="-413.8" font-family="Times,serif" font-size="14.00" fill="#000000">a</text>
</g>
<!-- 6 -->
<g id="node8" class="node">
<title>6</title>
<ellipse fill="none" stroke="#000000" cx="282" cy="-113" rx="27" ry="18"/>
<text text-anchor="middle" x="282" y="-109.3" font-family="Times,serif" font-size="14.00" fill="#000000">6</text>
</g>
<!-- 6&#45;&gt;7 -->
<g id="edge28" class="edge">
<title>6&#45;&gt;7</title>
<path fill="none" stroke="#000000" d="M282,-94.5848C282,-83.1105 282,-68.0231 282,-54.5774"/>
<polygon fill="#000000" stroke="#000000" points="285.5001,-54.2465 282,-44.2465 278.5001,-54.2466 285.5001,-54.2465"/>
<text text-anchor="middle" x="285.5" y="-65.8" font-family="Times,serif" font-size="14.00" fill="#000000">c</text>
</g>
<!-- 5&#45;&gt;6 -->
<g id="edge27" class="edge">
<title>5&#45;&gt;6</title>
<path fill="none" stroke="#000000" d="M282,-181.9735C282,-170.1918 282,-154.5607 282,-141.1581"/>
<polygon fill="#000000" stroke="#000000" points="285.5001,-141.0033 282,-131.0034 278.5001,-141.0034 285.5001,-141.0033"/>
<text text-anchor="middle" x="285.5" y="-152.8" font-family="Times,serif" font-size="14.00" fill="#000000">b</text>
</g>
</g>
</svg>
