<?xml version="1.0" encoding="UTF-8" standalone="no"?>
<!DOCTYPE svg PUBLIC "-//W3C//DTD SVG 1.1//EN"
 "http://www.w3.org/Graphics/SVG/1.1/DTD/svg11.dtd">
<!-- Generated by graphviz version 2.40.1 (20161225.0304)
 -->
<!-- Title: %3 Pages: 1 -->
<svg width="407pt" height="911pt"
 viewBox="0.00 0.00 407.00 911.00" xmlns="http://www.w3.org/2000/svg" xmlns:xlink="http://www.w3.org/1999/xlink">
<g id="graph0" class="graph" transform="scale(1 1) rotate(0) translate(4 906.9965)">
<title>%3</title>
<polygon fill="#ffffff" stroke="transparent" points="-4,4 -4,-906.9965 403,-906.9965 403,4 -4,4"/>
<!-- fake0 -->
<g id="node1" class="node">
<title>fake0</title>
</g>
<!-- 0 -->
<g id="node16" class="node">
<title>0</title>
<ellipse fill="none" stroke="#000000" cx="165" cy="-811.9965" rx="27" ry="18"/>
<text text-anchor="middle" x="165" y="-808.2965" font-family="Times,serif" font-size="14.00" fill="#000000">0</text>
</g>
<!-- fake0&#45;&gt;0 -->
<g id="edge1" class="edge">
<title>fake0&#45;&gt;0</title>
<path fill="none" stroke="#000000" stroke-width="2" d="M165,-866.9516C165,-858.8794 165,-849.1729 165,-840.1783"/>
<polygon fill="#000000" stroke="#000000" stroke-width="2" points="168.5001,-840.0869 165,-830.0869 161.5001,-840.0869 168.5001,-840.0869"/>
</g>
<!-- 8 -->
<g id="node2" class="node">
<title>8</title>
<ellipse fill="none" stroke="#000000" cx="336" cy="-463.9965" rx="27" ry="18"/>
<text text-anchor="middle" x="336" y="-460.2965" font-family="Times,serif" font-size="14.00" fill="#000000">8</text>
</g>
<!-- 9 -->
<g id="node13" class="node">
<title>9</title>
<ellipse fill="none" stroke="#000000" cx="372" cy="-376.9965" rx="27" ry="18"/>
<text text-anchor="middle" x="372" y="-373.2965" font-family="Times,serif" font-size="14.00" fill="#000000">9</text>
</g>
<!-- 8&#45;&gt;9 -->
<g id="edge12" class="edge">
<title>8&#45;&gt;9</title>
<path fill="none" stroke="#000000" d="M343.2851,-446.3908C348.3111,-434.2448 355.0893,-417.864 360.7982,-404.0677"/>
<polygon fill="#000000" stroke="#000000" points="364.1362,-405.1545 364.7257,-394.5761 357.6681,-402.478 364.1362,-405.1545"/>
<text text-anchor="middle" x="359.5" y="-416.7965" font-family="Times,serif" font-size="14.00" fill="#000000">3</text>
</g>
<!-- 3 -->
<g id="node3" class="node">
<title>3</title>
<ellipse fill="none" stroke="#000000" cx="201" cy="-376.9965" rx="27" ry="18"/>
<text text-anchor="middle" x="201" y="-373.2965" font-family="Times,serif" font-size="14.00" fill="#000000">3</text>
</g>
<!-- 5 -->
<g id="node9" class="node">
<title>5</title>
<ellipse fill="none" stroke="#000000" cx="137" cy="-637.9965" rx="27" ry="18"/>
<text text-anchor="middle" x="137" y="-634.2965" font-family="Times,serif" font-size="14.00" fill="#000000">5</text>
</g>
<!-- 3&#45;&gt;5 -->
<g id="edge9" class="edge">
<title>3&#45;&gt;5</title>
<path fill="none" stroke="#000000" d="M187.481,-392.8154C176.9669,-406.0877 163.0242,-426.0297 156,-445.9965 136.4738,-501.5015 134.7985,-571.2344 135.67,-609.536"/>
<polygon fill="#000000" stroke="#000000" points="132.1833,-610.0277 135.9879,-619.9158 139.1801,-609.8134 132.1833,-610.0277"/>
<text text-anchor="middle" x="145.5" y="-503.7965" font-family="Times,serif" font-size="14.00" fill="#000000">e</text>
</g>
<!-- 11 -->
<g id="node4" class="node">
<title>11</title>
<ellipse fill="none" stroke="#000000" cx="27" cy="-550.9965" rx="27" ry="18"/>
<text text-anchor="middle" x="27" y="-547.2965" font-family="Times,serif" font-size="14.00" fill="#000000">11</text>
</g>
<!-- 12 -->
<g id="node11" class="node">
<title>12</title>
<ellipse fill="none" stroke="#000000" cx="27" cy="-463.9965" rx="27" ry="18"/>
<text text-anchor="middle" x="27" y="-460.2965" font-family="Times,serif" font-size="14.00" fill="#000000">12</text>
</g>
<!-- 11&#45;&gt;12 -->
<g id="edge19" class="edge">
<title>11&#45;&gt;12</title>
<path fill="none" stroke="#000000" d="M27,-532.9701C27,-521.1883 27,-505.5572 27,-492.1546"/>
<polygon fill="#000000" stroke="#000000" points="30.5001,-491.9999 27,-481.9999 23.5001,-491.9999 30.5001,-491.9999"/>
<text text-anchor="middle" x="30.5" y="-503.7965" font-family="Times,serif" font-size="14.00" fill="#000000">e</text>
</g>
<!-- 6 -->
<g id="node5" class="node">
<title>6</title>
<ellipse fill="none" stroke="#000000" cx="192" cy="-463.9965" rx="27" ry="18"/>
<text text-anchor="middle" x="192" y="-460.2965" font-family="Times,serif" font-size="14.00" fill="#000000">6</text>
</g>
<!-- 7 -->
<g id="node18" class="node">
<title>7</title>
<ellipse fill="none" stroke="#000000" cx="107" cy="-376.9965" rx="27" ry="18"/>
<text text-anchor="middle" x="107" y="-373.2965" font-family="Times,serif" font-size="14.00" fill="#000000">7</text>
</g>
<!-- 6&#45;&gt;7 -->
<g id="edge10" class="edge">
<title>6&#45;&gt;7</title>
<path fill="none" stroke="#000000" d="M177.1941,-448.8423C163.8686,-435.2032 144.1095,-414.9792 128.9471,-399.4601"/>
<polygon fill="#000000" stroke="#000000" points="131.4133,-396.9759 121.9214,-392.269 126.4063,-401.8678 131.4133,-396.9759"/>
<text text-anchor="middle" x="157.5" y="-416.7965" font-family="Times,serif" font-size="14.00" fill="#000000">2</text>
</g>
<!-- 13 -->
<g id="node6" class="node">
<title>13</title>
<ellipse fill="none" stroke="#000000" cx="27" cy="-376.9965" rx="27" ry="18"/>
<text text-anchor="middle" x="27" y="-373.2965" font-family="Times,serif" font-size="14.00" fill="#000000">13</text>
</g>
<!-- 14 -->
<g id="node10" class="node">
<title>14</title>
<ellipse fill="none" stroke="#000000" cx="27" cy="-289.9965" rx="27" ry="18"/>
<text text-anchor="middle" x="27" y="-286.2965" font-family="Times,serif" font-size="14.00" fill="#000000">14</text>
</g>
<!-- 13&#45;&gt;14 -->
<g id="edge21" class="edge">
<title>13&#45;&gt;14</title>
<path fill="none" stroke="#000000" d="M27,-358.9701C27,-347.1883 27,-331.5572 27,-318.1546"/>
<polygon fill="#000000" stroke="#000000" points="30.5001,-317.9999 27,-307.9999 23.5001,-317.9999 30.5001,-317.9999"/>
<text text-anchor="middle" x="30.5" y="-329.7965" font-family="Times,serif" font-size="14.00" fill="#000000">e</text>
</g>
<!-- 4 -->
<g id="node7" class="node">
<title>4</title>
<ellipse fill="none" stroke="#000000" cx="192" cy="-550.9965" rx="27" ry="18"/>
<text text-anchor="middle" x="192" y="-547.2965" font-family="Times,serif" font-size="14.00" fill="#000000">4</text>
</g>
<!-- 4&#45;&gt;8 -->
<g id="edge5" class="edge">
<title>4&#45;&gt;8</title>
<path fill="none" stroke="#000000" d="M212.0226,-538.8996C236.708,-523.9854 278.8479,-498.5259 307.0546,-481.4844"/>
<polygon fill="#000000" stroke="#000000" points="308.934,-484.4382 315.6832,-476.2712 305.3142,-478.4467 308.934,-484.4382"/>
<text text-anchor="middle" x="275.5" y="-503.7965" font-family="Times,serif" font-size="14.00" fill="#000000">e</text>
</g>
<!-- 4&#45;&gt;6 -->
<g id="edge7" class="edge">
<title>4&#45;&gt;6</title>
<path fill="none" stroke="#000000" d="M192,-532.9701C192,-521.1883 192,-505.5572 192,-492.1546"/>
<polygon fill="#000000" stroke="#000000" points="195.5001,-491.9999 192,-481.9999 188.5001,-491.9999 195.5001,-491.9999"/>
<text text-anchor="middle" x="195.5" y="-503.7965" font-family="Times,serif" font-size="14.00" fill="#000000">e</text>
</g>
<!-- 2 -->
<g id="node8" class="node">
<title>2</title>
<ellipse fill="none" stroke="#000000" cx="264" cy="-463.9965" rx="27" ry="18"/>
<text text-anchor="middle" x="264" y="-460.2965" font-family="Times,serif" font-size="14.00" fill="#000000">2</text>
</g>
<!-- 4&#45;&gt;2 -->
<g id="edge6" class="edge">
<title>4&#45;&gt;2</title>
<path fill="none" stroke="#000000" d="M205.2059,-535.0394C216.1672,-521.7945 231.9179,-502.7625 244.3584,-487.7302"/>
<polygon fill="#000000" stroke="#000000" points="247.1985,-489.788 250.8778,-479.8525 241.8057,-485.325 247.1985,-489.788"/>
<text text-anchor="middle" x="235.5" y="-503.7965" font-family="Times,serif" font-size="14.00" fill="#000000">e</text>
</g>
<!-- 4&#45;&gt;0 -->
<g id="edge4" class="edge">
<title>4&#45;&gt;0</title>
<path fill="none" stroke="#000000" d="M190.3194,-569.0069C187.1227,-603.0243 179.8704,-679.052 173,-742.9965 171.5652,-756.3509 169.8646,-771.1454 168.4011,-783.5993"/>
<polygon fill="#000000" stroke="#000000" points="164.888,-783.5041 167.1887,-793.8462 171.8395,-784.3267 164.888,-783.5041"/>
<text text-anchor="middle" x="182.5" y="-677.7965" font-family="Times,serif" font-size="14.00" fill="#000000">e</text>
</g>
<!-- 2&#45;&gt;3 -->
<g id="edge3" class="edge">
<title>2&#45;&gt;3</title>
<path fill="none" stroke="#000000" d="M252.1502,-447.6325C242.7347,-434.6301 229.4193,-416.2422 218.7344,-401.487"/>
<polygon fill="#000000" stroke="#000000" points="221.4966,-399.3338 212.7967,-393.2872 215.827,-403.4394 221.4966,-399.3338"/>
<text text-anchor="middle" x="239.5" y="-416.7965" font-family="Times,serif" font-size="14.00" fill="#000000">1</text>
</g>
<!-- 5&#45;&gt;11 -->
<g id="edge17" class="edge">
<title>5&#45;&gt;11</title>
<path fill="none" stroke="#000000" d="M112.4967,-629.9742C96.8538,-624.0004 76.8067,-614.6829 62,-601.9965 53.8898,-595.0477 46.7988,-585.8009 41.159,-577.0903"/>
<polygon fill="#000000" stroke="#000000" points="44.0138,-575.0487 35.8252,-568.3258 38.0341,-578.6878 44.0138,-575.0487"/>
<text text-anchor="middle" x="65.5" y="-590.7965" font-family="Times,serif" font-size="14.00" fill="#000000">e</text>
</g>
<!-- 5&#45;&gt;4 -->
<g id="edge16" class="edge">
<title>5&#45;&gt;4</title>
<path fill="none" stroke="#000000" d="M147.6046,-621.2221C155.6699,-608.4642 166.9008,-590.6989 176.0484,-576.229"/>
<polygon fill="#000000" stroke="#000000" points="179.0428,-578.0424 181.428,-567.7195 173.126,-574.3018 179.0428,-578.0424"/>
<text text-anchor="middle" x="170.5" y="-590.7965" font-family="Times,serif" font-size="14.00" fill="#000000">e</text>
</g>
<!-- 15 -->
<g id="node12" class="node">
<title>15</title>
<ellipse fill="none" stroke="#000000" cx="27" cy="-202.9965" rx="27" ry="18"/>
<text text-anchor="middle" x="27" y="-199.2965" font-family="Times,serif" font-size="14.00" fill="#000000">15</text>
</g>
<!-- 14&#45;&gt;15 -->
<g id="edge20" class="edge">
<title>14&#45;&gt;15</title>
<path fill="none" stroke="#000000" d="M27,-271.9701C27,-260.1883 27,-244.5572 27,-231.1546"/>
<polygon fill="#000000" stroke="#000000" points="30.5001,-230.9999 27,-220.9999 23.5001,-230.9999 30.5001,-230.9999"/>
<text text-anchor="middle" x="30.5" y="-242.7965" font-family="Times,serif" font-size="14.00" fill="#000000">b</text>
</g>
<!-- 12&#45;&gt;13 -->
<g id="edge18" class="edge">
<title>12&#45;&gt;13</title>
<path fill="none" stroke="#000000" d="M27,-445.9701C27,-434.1883 27,-418.5572 27,-405.1546"/>
<polygon fill="#000000" stroke="#000000" points="30.5001,-404.9999 27,-394.9999 23.5001,-404.9999 30.5001,-404.9999"/>
<text text-anchor="middle" x="30.5" y="-416.7965" font-family="Times,serif" font-size="14.00" fill="#000000">a</text>
</g>
<!-- 16 -->
<g id="node19" class="node">
<title>16</title>
<ellipse fill="none" stroke="#000000" cx="27" cy="-115.9965" rx="27" ry="18"/>
<text text-anchor="middle" x="27" y="-112.2965" font-family="Times,serif" font-size="14.00" fill="#000000">16</text>
</g>
<!-- 15&#45;&gt;16 -->
<g id="edge23" class="edge">
<title>15&#45;&gt;16</title>
<path fill="none" stroke="#000000" d="M27,-184.9701C27,-173.1883 27,-157.5572 27,-144.1546"/>
<polygon fill="#000000" stroke="#000000" points="30.5001,-143.9999 27,-133.9999 23.5001,-143.9999 30.5001,-143.9999"/>
<text text-anchor="middle" x="30.5" y="-155.7965" font-family="Times,serif" font-size="14.00" fill="#000000">e</text>
</g>
<!-- 9&#45;&gt;5 -->
<g id="edge13" class="edge">
<title>9&#45;&gt;5</title>
<path fill="none" stroke="#000000" d="M376.8736,-394.9517C381.7854,-416.9063 386.7357,-454.5276 372,-481.9965 329.1772,-561.823 225.5357,-607.74 171.3312,-627.0719"/>
<polygon fill="#000000" stroke="#000000" points="170.1118,-623.7902 161.8112,-630.3743 172.406,-630.4036 170.1118,-623.7902"/>
<text text-anchor="middle" x="362.5" y="-503.7965" font-family="Times,serif" font-size="14.00" fill="#000000">e</text>
</g>
<!-- 1 -->
<g id="node14" class="node">
<title>1</title>
<ellipse fill="none" stroke="#000000" cx="137" cy="-724.9965" rx="27" ry="18"/>
<text text-anchor="middle" x="137" y="-721.2965" font-family="Times,serif" font-size="14.00" fill="#000000">1</text>
</g>
<!-- 1&#45;&gt;5 -->
<g id="edge8" class="edge">
<title>1&#45;&gt;5</title>
<path fill="none" stroke="#000000" d="M137,-706.9701C137,-695.1883 137,-679.5572 137,-666.1546"/>
<polygon fill="#000000" stroke="#000000" points="140.5001,-665.9999 137,-655.9999 133.5001,-665.9999 140.5001,-665.9999"/>
<text text-anchor="middle" x="140.5" y="-677.7965" font-family="Times,serif" font-size="14.00" fill="#000000">e</text>
</g>
<!-- 17 -->
<g id="node15" class="node">
<title>17</title>
<ellipse fill="none" stroke="#000000" cx="27" cy="-23.4983" rx="19.4968" ry="19.4968"/>
<ellipse fill="none" stroke="#000000" cx="27" cy="-23.4983" rx="23.4965" ry="23.4965"/>
<text text-anchor="middle" x="27" y="-19.7983" font-family="Times,serif" font-size="14.00" fill="#000000">17</text>
</g>
<!-- 0&#45;&gt;1 -->
<g id="edge2" class="edge">
<title>0&#45;&gt;1</title>
<path fill="none" stroke="#000000" d="M159.3338,-794.3908C155.4881,-782.4418 150.3234,-766.3944 145.9293,-752.7412"/>
<polygon fill="#000000" stroke="#000000" points="149.1493,-751.3216 142.7539,-742.8747 142.4859,-753.4662 149.1493,-751.3216"/>
<text text-anchor="middle" x="155.5" y="-764.7965" font-family="Times,serif" font-size="14.00" fill="#000000">0</text>
</g>
<!-- 10 -->
<g id="node17" class="node">
<title>10</title>
<ellipse fill="none" stroke="#000000" cx="48" cy="-637.9965" rx="27" ry="18"/>
<text text-anchor="middle" x="48" y="-634.2965" font-family="Times,serif" font-size="14.00" fill="#000000">10</text>
</g>
<!-- 10&#45;&gt;11 -->
<g id="edge15" class="edge">
<title>10&#45;&gt;11</title>
<path fill="none" stroke="#000000" d="M38.3758,-620.9022C35.5207,-615.075 32.7041,-608.4093 31,-601.9965 29.0777,-594.7623 27.9875,-586.7636 27.39,-579.2879"/>
<polygon fill="#000000" stroke="#000000" points="30.8793,-578.9958 26.8379,-569.2021 23.8898,-579.3785 30.8793,-578.9958"/>
<text text-anchor="middle" x="34.5" y="-590.7965" font-family="Times,serif" font-size="14.00" fill="#000000">e</text>
</g>
<!-- 10&#45;&gt;4 -->
<g id="edge14" class="edge">
<title>10&#45;&gt;4</title>
<path fill="none" stroke="#000000" d="M68.0226,-625.8996C92.708,-610.9854 134.8479,-585.5259 163.0546,-568.4844"/>
<polygon fill="#000000" stroke="#000000" points="164.934,-571.4382 171.6832,-563.2712 161.3142,-565.4467 164.934,-571.4382"/>
<text text-anchor="middle" x="131.5" y="-590.7965" font-family="Times,serif" font-size="14.00" fill="#000000">e</text>
</g>
<!-- 7&#45;&gt;5 -->
<g id="edge11" class="edge">
<title>7&#45;&gt;5</title>
<path fill="none" stroke="#000000" d="M103.005,-394.9163C95.1423,-433.9681 80.6037,-529.0888 107,-601.9965 108.7102,-606.7203 111.3409,-611.2597 114.3484,-615.429"/>
<polygon fill="#000000" stroke="#000000" points="111.8354,-617.8847 120.877,-623.4075 117.2529,-613.4518 111.8354,-617.8847"/>
<text text-anchor="middle" x="95.5" y="-503.7965" font-family="Times,serif" font-size="14.00" fill="#000000">e</text>
</g>
<!-- 16&#45;&gt;17 -->
<g id="edge22" class="edge">
<title>16&#45;&gt;17</title>
<path fill="none" stroke="#000000" d="M27,-97.7219C27,-86.1421 27,-70.8147 27,-57.0961"/>
<polygon fill="#000000" stroke="#000000" points="30.5001,-57.0077 27,-47.0077 23.5001,-57.0077 30.5001,-57.0077"/>
<text text-anchor="middle" x="30.5" y="-68.7965" font-family="Times,serif" font-size="14.00" fill="#000000">c</text>
</g>
</g>
</svg>
