<?xml version="1.0" encoding="UTF-8" standalone="no"?>
<!DOCTYPE svg PUBLIC "-//W3C//DTD SVG 1.1//EN"
 "http://www.w3.org/Graphics/SVG/1.1/DTD/svg11.dtd">
<!-- Generated by graphviz version 2.40.1 (20161225.0304)
 -->
<!-- Title: %3 Pages: 1 -->
<svg width="351pt" height="824pt"
 viewBox="0.00 0.00 351.00 824.00" xmlns="http://www.w3.org/2000/svg" xmlns:xlink="http://www.w3.org/1999/xlink">
<g id="graph0" class="graph" transform="scale(1 1) rotate(0) translate(4 819.9965)">
<title>%3</title>
<polygon fill="#ffffff" stroke="transparent" points="-4,4 -4,-819.9965 347,-819.9965 347,4 -4,4"/>
<!-- fake0 -->
<g id="node1" class="node">
<title>fake0</title>
</g>
<!-- 10 -->
<g id="node6" class="node">
<title>10</title>
<ellipse fill="none" stroke="#000000" cx="290" cy="-724.9965" rx="27" ry="18"/>
<text text-anchor="middle" x="290" y="-721.2965" font-family="Times,serif" font-size="14.00" fill="#000000">10</text>
</g>
<!-- fake0&#45;&gt;10 -->
<g id="edge1" class="edge">
<title>fake0&#45;&gt;10</title>
<path fill="none" stroke="#000000" stroke-width="2" d="M290,-779.9516C290,-771.8794 290,-762.1729 290,-753.1783"/>
<polygon fill="#000000" stroke="#000000" stroke-width="2" points="293.5001,-753.0869 290,-743.0869 286.5001,-753.0869 293.5001,-753.0869"/>
</g>
<!-- 14 -->
<g id="node2" class="node">
<title>14</title>
<ellipse fill="none" stroke="#000000" cx="290" cy="-23.4983" rx="19.4968" ry="19.4968"/>
<ellipse fill="none" stroke="#000000" cx="290" cy="-23.4983" rx="23.4965" ry="23.4965"/>
<text text-anchor="middle" x="290" y="-19.7983" font-family="Times,serif" font-size="14.00" fill="#000000">14</text>
</g>
<!-- 3 -->
<g id="node3" class="node">
<title>3</title>
<ellipse fill="none" stroke="#000000" cx="27" cy="-463.9965" rx="27" ry="18"/>
<text text-anchor="middle" x="27" y="-460.2965" font-family="Times,serif" font-size="14.00" fill="#000000">3</text>
</g>
<!-- 5 -->
<g id="node13" class="node">
<title>5</title>
<ellipse fill="none" stroke="#000000" cx="208" cy="-376.9965" rx="27" ry="18"/>
<text text-anchor="middle" x="208" y="-373.2965" font-family="Times,serif" font-size="14.00" fill="#000000">5</text>
</g>
<!-- 3&#45;&gt;5 -->
<g id="edge9" class="edge">
<title>3&#45;&gt;5</title>
<path fill="none" stroke="#000000" d="M48.6681,-453.077C53.384,-450.7244 58.3527,-448.2638 63,-445.9965 101.9439,-426.9968 147.0495,-405.6331 176.4788,-391.7797"/>
<polygon fill="#000000" stroke="#000000" points="178.2668,-394.8066 185.8267,-387.3838 175.2879,-388.4721 178.2668,-394.8066"/>
<text text-anchor="middle" x="134.5" y="-416.7965" font-family="Times,serif" font-size="14.00" fill="#000000">e</text>
</g>
<!-- 2 -->
<g id="node4" class="node">
<title>2</title>
<ellipse fill="none" stroke="#000000" cx="27" cy="-550.9965" rx="27" ry="18"/>
<text text-anchor="middle" x="27" y="-547.2965" font-family="Times,serif" font-size="14.00" fill="#000000">2</text>
</g>
<!-- 2&#45;&gt;3 -->
<g id="edge3" class="edge">
<title>2&#45;&gt;3</title>
<path fill="none" stroke="#000000" d="M27,-532.9701C27,-521.1883 27,-505.5572 27,-492.1546"/>
<polygon fill="#000000" stroke="#000000" points="30.5001,-491.9999 27,-481.9999 23.5001,-491.9999 30.5001,-491.9999"/>
<text text-anchor="middle" x="30.5" y="-503.7965" font-family="Times,serif" font-size="14.00" fill="#000000">1</text>
</g>
<!-- 6 -->
<g id="node5" class="node">
<title>6</title>
<ellipse fill="none" stroke="#000000" cx="99" cy="-550.9965" rx="27" ry="18"/>
<text text-anchor="middle" x="99" y="-547.2965" font-family="Times,serif" font-size="14.00" fill="#000000">6</text>
</g>
<!-- 7 -->
<g id="node14" class="node">
<title>7</title>
<ellipse fill="none" stroke="#000000" cx="99" cy="-463.9965" rx="27" ry="18"/>
<text text-anchor="middle" x="99" y="-460.2965" font-family="Times,serif" font-size="14.00" fill="#000000">7</text>
</g>
<!-- 6&#45;&gt;7 -->
<g id="edge10" class="edge">
<title>6&#45;&gt;7</title>
<path fill="none" stroke="#000000" d="M99,-532.9701C99,-521.1883 99,-505.5572 99,-492.1546"/>
<polygon fill="#000000" stroke="#000000" points="102.5001,-491.9999 99,-481.9999 95.5001,-491.9999 102.5001,-491.9999"/>
<text text-anchor="middle" x="102.5" y="-503.7965" font-family="Times,serif" font-size="14.00" fill="#000000">2</text>
</g>
<!-- 4 -->
<g id="node7" class="node">
<title>4</title>
<ellipse fill="none" stroke="#000000" cx="208" cy="-637.9965" rx="27" ry="18"/>
<text text-anchor="middle" x="208" y="-634.2965" font-family="Times,serif" font-size="14.00" fill="#000000">4</text>
</g>
<!-- 10&#45;&gt;4 -->
<g id="edge14" class="edge">
<title>10&#45;&gt;4</title>
<path fill="none" stroke="#000000" d="M275.34,-709.4427C262.63,-695.9576 244.0634,-676.2589 229.643,-660.9593"/>
<polygon fill="#000000" stroke="#000000" points="231.9389,-658.2922 222.533,-653.4157 226.8449,-663.0935 231.9389,-658.2922"/>
<text text-anchor="middle" x="256.5" y="-677.7965" font-family="Times,serif" font-size="14.00" fill="#000000">e</text>
</g>
<!-- 11 -->
<g id="node9" class="node">
<title>11</title>
<ellipse fill="none" stroke="#000000" cx="290" cy="-289.9965" rx="27" ry="18"/>
<text text-anchor="middle" x="290" y="-286.2965" font-family="Times,serif" font-size="14.00" fill="#000000">11</text>
</g>
<!-- 10&#45;&gt;11 -->
<g id="edge15" class="edge">
<title>10&#45;&gt;11</title>
<path fill="none" stroke="#000000" d="M304.0515,-709.6163C317.5792,-693.1622 336,-665.675 336,-637.9965 336,-637.9965 336,-637.9965 336,-376.9965 336,-353.4266 322.642,-329.9953 310.3227,-313.3978"/>
<polygon fill="#000000" stroke="#000000" points="312.9682,-311.0989 304.0515,-305.3767 307.4536,-315.4105 312.9682,-311.0989"/>
<text text-anchor="middle" x="339.5" y="-503.7965" font-family="Times,serif" font-size="14.00" fill="#000000">e</text>
</g>
<!-- 4&#45;&gt;2 -->
<g id="edge5" class="edge">
<title>4&#45;&gt;2</title>
<path fill="none" stroke="#000000" d="M185.8267,-627.6093C157.326,-614.2203 106.3463,-590.144 63,-568.9965 61.2573,-568.1463 59.4693,-567.2689 57.6665,-566.3802"/>
<polygon fill="#000000" stroke="#000000" points="59.1818,-563.2249 48.6681,-561.9161 56.0709,-569.4957 59.1818,-563.2249"/>
<text text-anchor="middle" x="134.5" y="-590.7965" font-family="Times,serif" font-size="14.00" fill="#000000">e</text>
</g>
<!-- 4&#45;&gt;6 -->
<g id="edge6" class="edge">
<title>4&#45;&gt;6</title>
<path fill="none" stroke="#000000" d="M190.4873,-624.0185C172.6098,-609.7493 144.6787,-587.4557 124.379,-571.2532"/>
<polygon fill="#000000" stroke="#000000" points="126.4684,-568.4427 116.4693,-564.9399 122.1016,-573.9136 126.4684,-568.4427"/>
<text text-anchor="middle" x="163.5" y="-590.7965" font-family="Times,serif" font-size="14.00" fill="#000000">e</text>
</g>
<!-- 8 -->
<g id="node8" class="node">
<title>8</title>
<ellipse fill="none" stroke="#000000" cx="171" cy="-550.9965" rx="27" ry="18"/>
<text text-anchor="middle" x="171" y="-547.2965" font-family="Times,serif" font-size="14.00" fill="#000000">8</text>
</g>
<!-- 4&#45;&gt;8 -->
<g id="edge7" class="edge">
<title>4&#45;&gt;8</title>
<path fill="none" stroke="#000000" d="M200.5125,-620.3908C195.3469,-608.2448 188.3804,-591.864 182.513,-578.0677"/>
<polygon fill="#000000" stroke="#000000" points="185.6109,-576.4087 178.4764,-568.5761 179.1692,-579.1483 185.6109,-576.4087"/>
<text text-anchor="middle" x="194.5" y="-590.7965" font-family="Times,serif" font-size="14.00" fill="#000000">e</text>
</g>
<!-- 0 -->
<g id="node10" class="node">
<title>0</title>
<ellipse fill="none" stroke="#000000" cx="243" cy="-550.9965" rx="27" ry="18"/>
<text text-anchor="middle" x="243" y="-547.2965" font-family="Times,serif" font-size="14.00" fill="#000000">0</text>
</g>
<!-- 4&#45;&gt;0 -->
<g id="edge4" class="edge">
<title>4&#45;&gt;0</title>
<path fill="none" stroke="#000000" d="M215.0828,-620.3908C219.9691,-608.2448 226.5591,-591.864 232.1093,-578.0677"/>
<polygon fill="#000000" stroke="#000000" points="235.4425,-579.1598 235.9278,-568.5761 228.9483,-576.5472 235.4425,-579.1598"/>
<text text-anchor="middle" x="230.5" y="-590.7965" font-family="Times,serif" font-size="14.00" fill="#000000">e</text>
</g>
<!-- 9 -->
<g id="node12" class="node">
<title>9</title>
<ellipse fill="none" stroke="#000000" cx="171" cy="-463.9965" rx="27" ry="18"/>
<text text-anchor="middle" x="171" y="-460.2965" font-family="Times,serif" font-size="14.00" fill="#000000">9</text>
</g>
<!-- 8&#45;&gt;9 -->
<g id="edge12" class="edge">
<title>8&#45;&gt;9</title>
<path fill="none" stroke="#000000" d="M171,-532.9701C171,-521.1883 171,-505.5572 171,-492.1546"/>
<polygon fill="#000000" stroke="#000000" points="174.5001,-491.9999 171,-481.9999 167.5001,-491.9999 174.5001,-491.9999"/>
<text text-anchor="middle" x="174.5" y="-503.7965" font-family="Times,serif" font-size="14.00" fill="#000000">3</text>
</g>
<!-- 12 -->
<g id="node11" class="node">
<title>12</title>
<ellipse fill="none" stroke="#000000" cx="290" cy="-202.9965" rx="27" ry="18"/>
<text text-anchor="middle" x="290" y="-199.2965" font-family="Times,serif" font-size="14.00" fill="#000000">12</text>
</g>
<!-- 11&#45;&gt;12 -->
<g id="edge18" class="edge">
<title>11&#45;&gt;12</title>
<path fill="none" stroke="#000000" d="M290,-271.9701C290,-260.1883 290,-244.5572 290,-231.1546"/>
<polygon fill="#000000" stroke="#000000" points="293.5001,-230.9999 290,-220.9999 286.5001,-230.9999 293.5001,-230.9999"/>
<text text-anchor="middle" x="293.5" y="-242.7965" font-family="Times,serif" font-size="14.00" fill="#000000">a</text>
</g>
<!-- 1 -->
<g id="node15" class="node">
<title>1</title>
<ellipse fill="none" stroke="#000000" cx="243" cy="-463.9965" rx="27" ry="18"/>
<text text-anchor="middle" x="243" y="-460.2965" font-family="Times,serif" font-size="14.00" fill="#000000">1</text>
</g>
<!-- 0&#45;&gt;1 -->
<g id="edge2" class="edge">
<title>0&#45;&gt;1</title>
<path fill="none" stroke="#000000" d="M243,-532.9701C243,-521.1883 243,-505.5572 243,-492.1546"/>
<polygon fill="#000000" stroke="#000000" points="246.5001,-491.9999 243,-481.9999 239.5001,-491.9999 246.5001,-491.9999"/>
<text text-anchor="middle" x="246.5" y="-503.7965" font-family="Times,serif" font-size="14.00" fill="#000000">0</text>
</g>
<!-- 13 -->
<g id="node16" class="node">
<title>13</title>
<ellipse fill="none" stroke="#000000" cx="290" cy="-115.9965" rx="27" ry="18"/>
<text text-anchor="middle" x="290" y="-112.2965" font-family="Times,serif" font-size="14.00" fill="#000000">13</text>
</g>
<!-- 12&#45;&gt;13 -->
<g id="edge19" class="edge">
<title>12&#45;&gt;13</title>
<path fill="none" stroke="#000000" d="M290,-184.9701C290,-173.1883 290,-157.5572 290,-144.1546"/>
<polygon fill="#000000" stroke="#000000" points="293.5001,-143.9999 290,-133.9999 286.5001,-143.9999 293.5001,-143.9999"/>
<text text-anchor="middle" x="293.5" y="-155.7965" font-family="Times,serif" font-size="14.00" fill="#000000">b</text>
</g>
<!-- 9&#45;&gt;5 -->
<g id="edge13" class="edge">
<title>9&#45;&gt;5</title>
<path fill="none" stroke="#000000" d="M178.4875,-446.3908C183.6531,-434.2448 190.6196,-417.864 196.487,-404.0677"/>
<polygon fill="#000000" stroke="#000000" points="199.8308,-405.1483 200.5236,-394.5761 193.3891,-402.4087 199.8308,-405.1483"/>
<text text-anchor="middle" x="194.5" y="-416.7965" font-family="Times,serif" font-size="14.00" fill="#000000">e</text>
</g>
<!-- 5&#45;&gt;4 -->
<g id="edge16" class="edge">
<title>5&#45;&gt;4</title>
<path fill="none" stroke="#000000" d="M227.925,-389.5172C245.0956,-401.5974 268.6959,-421.6143 279,-445.9965 300.2802,-496.3512 300.2802,-518.6418 279,-568.9965 270.3059,-589.569 252.1461,-607.0338 236.3694,-619.2456"/>
<polygon fill="#000000" stroke="#000000" points="233.8939,-616.7225 227.925,-625.4759 238.0498,-622.3553 233.8939,-616.7225"/>
<text text-anchor="middle" x="297.5" y="-503.7965" font-family="Times,serif" font-size="14.00" fill="#000000">e</text>
</g>
<!-- 5&#45;&gt;11 -->
<g id="edge17" class="edge">
<title>5&#45;&gt;11</title>
<path fill="none" stroke="#000000" d="M222.66,-361.4427C235.37,-347.9576 253.9366,-328.2589 268.357,-312.9593"/>
<polygon fill="#000000" stroke="#000000" points="271.1551,-315.0935 275.467,-305.4157 266.0611,-310.2922 271.1551,-315.0935"/>
<text text-anchor="middle" x="256.5" y="-329.7965" font-family="Times,serif" font-size="14.00" fill="#000000">e</text>
</g>
<!-- 7&#45;&gt;5 -->
<g id="edge11" class="edge">
<title>7&#45;&gt;5</title>
<path fill="none" stroke="#000000" d="M116.5127,-450.0185C134.3902,-435.7493 162.3213,-413.4557 182.621,-397.2532"/>
<polygon fill="#000000" stroke="#000000" points="184.8984,-399.9136 190.5307,-390.9399 180.5316,-394.4427 184.8984,-399.9136"/>
<text text-anchor="middle" x="163.5" y="-416.7965" font-family="Times,serif" font-size="14.00" fill="#000000">e</text>
</g>
<!-- 1&#45;&gt;5 -->
<g id="edge8" class="edge">
<title>1&#45;&gt;5</title>
<path fill="none" stroke="#000000" d="M235.9172,-446.3908C231.0309,-434.2448 224.4409,-417.864 218.8907,-404.0677"/>
<polygon fill="#000000" stroke="#000000" points="222.0517,-402.5472 215.0722,-394.5761 215.5575,-405.1598 222.0517,-402.5472"/>
<text text-anchor="middle" x="230.5" y="-416.7965" font-family="Times,serif" font-size="14.00" fill="#000000">e</text>
</g>
<!-- 13&#45;&gt;14 -->
<g id="edge20" class="edge">
<title>13&#45;&gt;14</title>
<path fill="none" stroke="#000000" d="M290,-97.7219C290,-86.1421 290,-70.8147 290,-57.0961"/>
<polygon fill="#000000" stroke="#000000" points="293.5001,-57.0077 290,-47.0077 286.5001,-57.0077 293.5001,-57.0077"/>
<text text-anchor="middle" x="293.5" y="-68.7965" font-family="Times,serif" font-size="14.00" fill="#000000">c</text>
</g>
</g>
</svg>
