<?xml version="1.0" encoding="UTF-8" standalone="no"?>
<!DOCTYPE svg PUBLIC "-//W3C//DTD SVG 1.1//EN"
 "http://www.w3.org/Graphics/SVG/1.1/DTD/svg11.dtd">
<!-- Generated by graphviz version 2.40.1 (20161225.0304)
 -->
<!-- Title: %3 Pages: 1 -->
<svg width="360pt" height="734pt"
 viewBox="0.00 0.00 359.92 734.00" xmlns="http://www.w3.org/2000/svg" xmlns:xlink="http://www.w3.org/1999/xlink">
<g id="graph0" class="graph" transform="scale(1 1) rotate(0) translate(4 730)">
<title>%3</title>
<polygon fill="#ffffff" stroke="transparent" points="-4,4 -4,-730 355.9229,-730 355.9229,4 -4,4"/>
<!-- fake -->
<g id="node1" class="node">
<title>fake</title>
</g>
<!-- 0 -->
<g id="node7" class="node">
<title>0</title>
<ellipse fill="none" stroke="#000000" cx="106.9229" cy="-635" rx="27" ry="18"/>
<text text-anchor="middle" x="106.9229" y="-631.3" font-family="Times,serif" font-size="14.00" fill="#000000">0</text>
</g>
<!-- fake&#45;&gt;0 -->
<g id="edge1" class="edge">
<title>fake&#45;&gt;0</title>
<path fill="none" stroke="#000000" stroke-width="2" d="M106.9229,-689.9551C106.9229,-681.8828 106.9229,-672.1764 106.9229,-663.1817"/>
<polygon fill="#000000" stroke="#000000" stroke-width="2" points="110.423,-663.0903 106.9229,-653.0904 103.423,-663.0904 110.423,-663.0903"/>
</g>
<!-- 3 -->
<g id="node2" class="node">
<title>3</title>
<ellipse fill="none" stroke="#000000" cx="106.9229" cy="-548" rx="27" ry="18"/>
<text text-anchor="middle" x="106.9229" y="-544.3" font-family="Times,serif" font-size="14.00" fill="#000000">3</text>
</g>
<!-- 3&#45;&gt;3 -->
<g id="edge19" class="edge">
<title>3&#45;&gt;3</title>
<path fill="none" stroke="#000000" d="M131.4553,-555.752C142.4307,-556.4902 151.9229,-553.9063 151.9229,-548 151.9229,-544.0317 147.6379,-541.5632 141.4972,-540.5944"/>
<polygon fill="#000000" stroke="#000000" points="141.5701,-537.0949 131.4553,-540.248 141.3287,-544.0908 141.5701,-537.0949"/>
<text text-anchor="middle" x="155.4229" y="-544.3" font-family="Times,serif" font-size="14.00" fill="#000000">2</text>
</g>
<!-- 2 -->
<g id="node3" class="node">
<title>2</title>
<ellipse fill="none" stroke="#000000" cx="136.9229" cy="-461" rx="27" ry="18"/>
<text text-anchor="middle" x="136.9229" y="-457.3" font-family="Times,serif" font-size="14.00" fill="#000000">2</text>
</g>
<!-- 3&#45;&gt;2 -->
<g id="edge18" class="edge">
<title>3&#45;&gt;2</title>
<path fill="none" stroke="#000000" d="M112.9938,-530.3943C117.1821,-518.2482 122.8306,-501.8674 127.588,-488.0711"/>
<polygon fill="#000000" stroke="#000000" points="130.9098,-489.1743 130.8609,-478.5796 124.2922,-486.8923 130.9098,-489.1743"/>
<text text-anchor="middle" x="126.4229" y="-500.8" font-family="Times,serif" font-size="14.00" fill="#000000">1</text>
</g>
<!-- 1 -->
<g id="node5" class="node">
<title>1</title>
<ellipse fill="none" stroke="#000000" cx="246.9229" cy="-374" rx="27" ry="18"/>
<text text-anchor="middle" x="246.9229" y="-370.3" font-family="Times,serif" font-size="14.00" fill="#000000">1</text>
</g>
<!-- 3&#45;&gt;1 -->
<g id="edge17" class="edge">
<title>3&#45;&gt;1</title>
<path fill="none" stroke="#000000" d="M132.0486,-541.3663C161.0239,-532.3303 207.76,-513.2212 231.9229,-479 247.6936,-456.6643 250.2161,-424.9147 249.5531,-402.1858"/>
<polygon fill="#000000" stroke="#000000" points="253.0455,-401.9468 249.0384,-392.139 246.0547,-402.305 253.0455,-401.9468"/>
<text text-anchor="middle" x="249.4229" y="-457.3" font-family="Times,serif" font-size="14.00" fill="#000000">0</text>
</g>
<!-- 4 -->
<g id="node8" class="node">
<title>4</title>
<ellipse fill="none" stroke="#000000" cx="106.9229" cy="-287" rx="27" ry="18"/>
<text text-anchor="middle" x="106.9229" y="-283.3" font-family="Times,serif" font-size="14.00" fill="#000000">4</text>
</g>
<!-- 3&#45;&gt;4 -->
<g id="edge20" class="edge">
<title>3&#45;&gt;4</title>
<path fill="none" stroke="#000000" d="M86.4086,-535.8899C71.4186,-526.8631 53.3079,-515.5147 50.9229,-512 28.8003,-479.3995 37.7183,-464.2147 33.9229,-425 30.2211,-386.7532 48.2686,-323.9707 48.9229,-323 55.1969,-313.6904 64.7692,-306.3413 74.3397,-300.7765"/>
<polygon fill="#000000" stroke="#000000" points="76.203,-303.7505 83.4074,-295.9821 72.931,-297.5622 76.203,-303.7505"/>
<text text-anchor="middle" x="37.4229" y="-413.8" font-family="Times,serif" font-size="14.00" fill="#000000">3</text>
</g>
<!-- 5 -->
<g id="node9" class="node">
<title>5</title>
<ellipse fill="none" stroke="#000000" cx="186.9229" cy="-200" rx="27" ry="18"/>
<text text-anchor="middle" x="186.9229" y="-196.3" font-family="Times,serif" font-size="14.00" fill="#000000">5</text>
</g>
<!-- 3&#45;&gt;5 -->
<g id="edge21" class="edge">
<title>3&#45;&gt;5</title>
<path fill="none" stroke="#000000" d="M86.3652,-536.1986C82.5813,-534.0944 78.6494,-531.9523 74.9229,-530 58.7241,-521.5135 49.1858,-526.4071 37.9229,-512 -13.9345,-445.666 -6.5464,-401.0965 24.9229,-323 47.6628,-266.5669 113.1733,-230.3813 153.5829,-212.751"/>
<polygon fill="#000000" stroke="#000000" points="155.1744,-215.8784 163.0285,-208.7675 152.4543,-209.4285 155.1744,-215.8784"/>
<text text-anchor="middle" x="15.4229" y="-370.3" font-family="Times,serif" font-size="14.00" fill="#000000">a</text>
</g>
<!-- 2&#45;&gt;3 -->
<g id="edge14" class="edge">
<title>2&#45;&gt;3</title>
<path fill="none" stroke="#000000" d="M122.3418,-476.2857C117.5068,-482.2825 112.6638,-489.5175 109.9229,-497 107.3102,-504.1324 106.1098,-512.2003 105.6693,-519.7796"/>
<polygon fill="#000000" stroke="#000000" points="102.1656,-519.9589 105.4843,-530.0205 109.1644,-520.0854 102.1656,-519.9589"/>
<text text-anchor="middle" x="113.4229" y="-500.8" font-family="Times,serif" font-size="14.00" fill="#000000">2</text>
</g>
<!-- 2&#45;&gt;2 -->
<g id="edge13" class="edge">
<title>2&#45;&gt;2</title>
<path fill="none" stroke="#000000" d="M161.4553,-468.752C172.4307,-469.4902 181.9229,-466.9063 181.9229,-461 181.9229,-457.0317 177.6379,-454.5632 171.4972,-453.5944"/>
<polygon fill="#000000" stroke="#000000" points="171.5701,-450.0949 161.4553,-453.248 171.3287,-457.0908 171.5701,-450.0949"/>
<text text-anchor="middle" x="185.4229" y="-457.3" font-family="Times,serif" font-size="14.00" fill="#000000">1</text>
</g>
<!-- 2&#45;&gt;1 -->
<g id="edge12" class="edge">
<title>2&#45;&gt;1</title>
<path fill="none" stroke="#000000" d="M153.5199,-446.6422C165.6571,-436.2617 182.6065,-422.0101 197.9229,-410 204.9681,-404.4756 212.7233,-398.6604 219.9449,-393.3533"/>
<polygon fill="#000000" stroke="#000000" points="222.0849,-396.1246 228.1027,-387.4046 217.9605,-390.4686 222.0849,-396.1246"/>
<text text-anchor="middle" x="201.4229" y="-413.8" font-family="Times,serif" font-size="14.00" fill="#000000">0</text>
</g>
<!-- 2&#45;&gt;4 -->
<g id="edge15" class="edge">
<title>2&#45;&gt;4</title>
<path fill="none" stroke="#000000" d="M136.8965,-442.8105C136.4523,-416.0992 134.0523,-364.8932 122.9229,-323 122.0799,-319.8271 120.9906,-316.5784 119.7769,-313.3939"/>
<polygon fill="#000000" stroke="#000000" points="122.9981,-312.0247 115.8848,-304.1729 116.549,-314.7469 122.9981,-312.0247"/>
<text text-anchor="middle" x="137.4229" y="-370.3" font-family="Times,serif" font-size="14.00" fill="#000000">3</text>
</g>
<!-- 2&#45;&gt;5 -->
<g id="edge16" class="edge">
<title>2&#45;&gt;5</title>
<path fill="none" stroke="#000000" d="M142.8509,-443.1756C144.6363,-437.4166 146.4979,-430.9756 147.9229,-425 164.6658,-354.7869 177.3202,-270.6365 183.2328,-227.889"/>
<polygon fill="#000000" stroke="#000000" points="186.7053,-228.328 184.5892,-217.9467 179.7695,-227.3818 186.7053,-228.328"/>
<text text-anchor="middle" x="171.4229" y="-326.8" font-family="Times,serif" font-size="14.00" fill="#000000">a</text>
</g>
<!-- 6 -->
<g id="node4" class="node">
<title>6</title>
<ellipse fill="none" stroke="#000000" cx="186.9229" cy="-113" rx="27" ry="18"/>
<text text-anchor="middle" x="186.9229" y="-109.3" font-family="Times,serif" font-size="14.00" fill="#000000">6</text>
</g>
<!-- 7 -->
<g id="node6" class="node">
<title>7</title>
<ellipse fill="none" stroke="#000000" cx="186.9229" cy="-22" rx="18" ry="18"/>
<ellipse fill="none" stroke="#000000" cx="186.9229" cy="-22" rx="22" ry="22"/>
<text text-anchor="middle" x="186.9229" y="-18.3" font-family="Times,serif" font-size="14.00" fill="#000000">7</text>
</g>
<!-- 6&#45;&gt;7 -->
<g id="edge28" class="edge">
<title>6&#45;&gt;7</title>
<path fill="none" stroke="#000000" d="M186.9229,-94.5848C186.9229,-83.1105 186.9229,-68.0231 186.9229,-54.5774"/>
<polygon fill="#000000" stroke="#000000" points="190.423,-54.2465 186.9229,-44.2465 183.423,-54.2466 190.423,-54.2465"/>
<text text-anchor="middle" x="190.4229" y="-65.8" font-family="Times,serif" font-size="14.00" fill="#000000">c</text>
</g>
<!-- 1&#45;&gt;3 -->
<g id="edge9" class="edge">
<title>1&#45;&gt;3</title>
<path fill="none" stroke="#000000" d="M241.8815,-392.054C234.9216,-414.4495 220.5961,-452.8638 197.9229,-479 180.0895,-499.5571 155.2185,-517.9063 135.9836,-530.5053"/>
<polygon fill="#000000" stroke="#000000" points="133.8593,-527.7092 127.3193,-536.0445 137.6299,-533.6069 133.8593,-527.7092"/>
<text text-anchor="middle" x="224.4229" y="-457.3" font-family="Times,serif" font-size="14.00" fill="#000000">2</text>
</g>
<!-- 1&#45;&gt;2 -->
<g id="edge8" class="edge">
<title>1&#45;&gt;2</title>
<path fill="none" stroke="#000000" d="M235.1399,-390.5275C226.9423,-401.2411 215.2977,-415.0103 202.9229,-425 192.6083,-433.3265 180.0899,-440.7124 168.7398,-446.5936"/>
<polygon fill="#000000" stroke="#000000" points="166.946,-443.5768 159.5545,-451.1674 170.0662,-449.843 166.946,-443.5768"/>
<text text-anchor="middle" x="220.4229" y="-413.8" font-family="Times,serif" font-size="14.00" fill="#000000">1</text>
</g>
<!-- 1&#45;&gt;1 -->
<g id="edge7" class="edge">
<title>1&#45;&gt;1</title>
<path fill="none" stroke="#000000" d="M271.4553,-381.752C282.4307,-382.4902 291.9229,-379.9063 291.9229,-374 291.9229,-370.0317 287.6379,-367.5632 281.4972,-366.5944"/>
<polygon fill="#000000" stroke="#000000" points="281.5701,-363.0949 271.4553,-366.248 281.3287,-370.0908 281.5701,-363.0949"/>
<text text-anchor="middle" x="295.4229" y="-370.3" font-family="Times,serif" font-size="14.00" fill="#000000">0</text>
</g>
<!-- 1&#45;&gt;4 -->
<g id="edge10" class="edge">
<title>1&#45;&gt;4</title>
<path fill="none" stroke="#000000" d="M233.6776,-358.0696C223.8767,-347.0717 209.7113,-332.7314 194.9229,-323 178.4395,-312.1533 158.1622,-303.5868 141.2283,-297.5361"/>
<polygon fill="#000000" stroke="#000000" points="142.2927,-294.2011 131.6981,-294.266 140.0208,-300.8222 142.2927,-294.2011"/>
<text text-anchor="middle" x="216.4229" y="-326.8" font-family="Times,serif" font-size="14.00" fill="#000000">3</text>
</g>
<!-- 1&#45;&gt;5 -->
<g id="edge11" class="edge">
<title>1&#45;&gt;5</title>
<path fill="none" stroke="#000000" d="M248.4255,-355.8263C248.777,-345.9829 248.463,-333.6834 245.9229,-323 237.4107,-287.1994 217.4975,-249.5466 203.1581,-225.4778"/>
<polygon fill="#000000" stroke="#000000" points="205.9718,-223.3687 197.7821,-216.6471 199.9926,-227.0088 205.9718,-223.3687"/>
<text text-anchor="middle" x="243.4229" y="-283.3" font-family="Times,serif" font-size="14.00" fill="#000000">a</text>
</g>
<!-- 0&#45;&gt;3 -->
<g id="edge4" class="edge">
<title>0&#45;&gt;3</title>
<path fill="none" stroke="#000000" d="M106.9229,-616.9735C106.9229,-605.1918 106.9229,-589.5607 106.9229,-576.1581"/>
<polygon fill="#000000" stroke="#000000" points="110.423,-576.0033 106.9229,-566.0034 103.423,-576.0034 110.423,-576.0033"/>
<text text-anchor="middle" x="110.4229" y="-587.8" font-family="Times,serif" font-size="14.00" fill="#000000">2</text>
</g>
<!-- 0&#45;&gt;2 -->
<g id="edge3" class="edge">
<title>0&#45;&gt;2</title>
<path fill="none" stroke="#000000" d="M92.6361,-619.625C75.3857,-599.1011 50.2837,-561.6595 63.9229,-530 73.0301,-508.8601 92.1522,-491.1766 108.5409,-479.0051"/>
<polygon fill="#000000" stroke="#000000" points="110.661,-481.7925 116.7945,-473.1536 106.6124,-476.082 110.661,-481.7925"/>
<text text-anchor="middle" x="67.4229" y="-544.3" font-family="Times,serif" font-size="14.00" fill="#000000">1</text>
</g>
<!-- 0&#45;&gt;1 -->
<g id="edge2" class="edge">
<title>0&#45;&gt;1</title>
<path fill="none" stroke="#000000" d="M125.9135,-621.9404C159.0346,-597.9747 226.7106,-543.4715 256.9229,-479 269.9848,-451.1264 269.313,-440.1118 262.9229,-410 262.2626,-406.8889 261.3144,-403.7203 260.2045,-400.6176"/>
<polygon fill="#000000" stroke="#000000" points="263.3178,-398.9871 256.2631,-391.0826 256.8487,-401.6612 263.3178,-398.9871"/>
<text text-anchor="middle" x="249.4229" y="-500.8" font-family="Times,serif" font-size="14.00" fill="#000000">0</text>
</g>
<!-- 0&#45;&gt;4 -->
<g id="edge5" class="edge">
<title>0&#45;&gt;4</title>
<path fill="none" stroke="#000000" d="M87.7345,-622.0939C79.7515,-615.907 70.958,-607.9034 64.9229,-599 33.2997,-552.3474 33.1588,-534.5985 23.9229,-479 12.5014,-410.2452 -4.226,-376.931 39.9229,-323 48.5689,-312.4382 61.1562,-304.5364 73.0924,-298.8683"/>
<polygon fill="#000000" stroke="#000000" points="74.6701,-301.9987 82.4377,-294.7935 71.8722,-295.5822 74.6701,-301.9987"/>
<text text-anchor="middle" x="27.4229" y="-457.3" font-family="Times,serif" font-size="14.00" fill="#000000">3</text>
</g>
<!-- 0&#45;&gt;5 -->
<g id="edge6" class="edge">
<title>0&#45;&gt;5</title>
<path fill="none" stroke="#000000" d="M133.3024,-631.0989C195.2686,-621.1949 344.9229,-592.6535 344.9229,-548 344.9229,-548 344.9229,-548 344.9229,-287 344.9229,-231.9777 270.4883,-211.5007 223.7986,-204.0685"/>
<polygon fill="#000000" stroke="#000000" points="224.1264,-200.5793 213.7254,-202.5967 223.1143,-207.5058 224.1264,-200.5793"/>
<text text-anchor="middle" x="348.4229" y="-413.8" font-family="Times,serif" font-size="14.00" fill="#000000">a</text>
</g>
<!-- 4&#45;&gt;3 -->
<g id="edge24" class="edge">
<title>4&#45;&gt;3</title>
<path fill="none" stroke="#000000" d="M105.8035,-304.9955C103.8129,-338.9881 99.953,-414.9761 100.9229,-479 101.1451,-493.6717 100.6896,-497.3785 101.9229,-512 102.141,-514.5858 102.418,-517.2699 102.7295,-519.9539"/>
<polygon fill="#000000" stroke="#000000" points="99.2882,-520.6324 104.0491,-530.0973 106.2297,-519.7293 99.2882,-520.6324"/>
<text text-anchor="middle" x="104.4229" y="-413.8" font-family="Times,serif" font-size="14.00" fill="#000000">2</text>
</g>
<!-- 4&#45;&gt;2 -->
<g id="edge23" class="edge">
<title>4&#45;&gt;2</title>
<path fill="none" stroke="#000000" d="M107.9286,-305.3421C109.2946,-326.4032 112.246,-361.9217 117.9229,-392 120.5333,-405.831 124.5539,-420.9324 128.2254,-433.4716"/>
<polygon fill="#000000" stroke="#000000" points="124.9553,-434.7508 131.1889,-443.3177 131.6583,-432.7333 124.9553,-434.7508"/>
<text text-anchor="middle" x="121.4229" y="-370.3" font-family="Times,serif" font-size="14.00" fill="#000000">1</text>
</g>
<!-- 4&#45;&gt;1 -->
<g id="edge22" class="edge">
<title>4&#45;&gt;1</title>
<path fill="none" stroke="#000000" d="M134.162,-289.0225C160.075,-292.2807 198.7406,-300.7878 223.9229,-323 231.0147,-329.2554 236.039,-338.1292 239.5426,-346.7251"/>
<polygon fill="#000000" stroke="#000000" points="236.2451,-347.8986 242.8812,-356.1577 242.8439,-345.5629 236.2451,-347.8986"/>
<text text-anchor="middle" x="238.4229" y="-326.8" font-family="Times,serif" font-size="14.00" fill="#000000">0</text>
</g>
<!-- 4&#45;&gt;4 -->
<g id="edge25" class="edge">
<title>4&#45;&gt;4</title>
<path fill="none" stroke="#000000" d="M131.4553,-294.752C142.4307,-295.4902 151.9229,-292.9063 151.9229,-287 151.9229,-283.0317 147.6379,-280.5632 141.4972,-279.5944"/>
<polygon fill="#000000" stroke="#000000" points="141.5701,-276.0949 131.4553,-279.248 141.3287,-283.0908 141.5701,-276.0949"/>
<text text-anchor="middle" x="155.4229" y="-283.3" font-family="Times,serif" font-size="14.00" fill="#000000">3</text>
</g>
<!-- 4&#45;&gt;5 -->
<g id="edge26" class="edge">
<title>4&#45;&gt;5</title>
<path fill="none" stroke="#000000" d="M121.2253,-271.4461C133.6253,-257.9611 151.7391,-238.2623 165.8077,-222.9627"/>
<polygon fill="#000000" stroke="#000000" points="168.5519,-225.1493 172.7443,-215.4192 163.3992,-220.4112 168.5519,-225.1493"/>
<text text-anchor="middle" x="154.4229" y="-239.8" font-family="Times,serif" font-size="14.00" fill="#000000">a</text>
</g>
<!-- 5&#45;&gt;6 -->
<g id="edge27" class="edge">
<title>5&#45;&gt;6</title>
<path fill="none" stroke="#000000" d="M186.9229,-181.9735C186.9229,-170.1918 186.9229,-154.5607 186.9229,-141.1581"/>
<polygon fill="#000000" stroke="#000000" points="190.423,-141.0033 186.9229,-131.0034 183.423,-141.0034 190.423,-141.0033"/>
<text text-anchor="middle" x="190.4229" y="-152.8" font-family="Times,serif" font-size="14.00" fill="#000000">b</text>
</g>
</g>
</svg>
