<?xml version="1.0" encoding="UTF-8" standalone="no"?>
<!DOCTYPE svg PUBLIC "-//W3C//DTD SVG 1.1//EN"
 "http://www.w3.org/Graphics/SVG/1.1/DTD/svg11.dtd">
<!-- Generated by graphviz version 2.40.1 (20161225.0304)
 -->
<!-- Title: %3 Pages: 1 -->
<svg width="206pt" height="911pt"
 viewBox="0.00 0.00 206.00 911.00" xmlns="http://www.w3.org/2000/svg" xmlns:xlink="http://www.w3.org/1999/xlink">
<g id="graph0" class="graph" transform="scale(1 1) rotate(0) translate(4 906.9965)">
<title>%3</title>
<polygon fill="#ffffff" stroke="transparent" points="-4,4 -4,-906.9965 202,-906.9965 202,4 -4,4"/>
<!-- fake0 -->
<g id="node1" class="node">
<title>fake0</title>
</g>
<!-- 4 -->
<g id="node9" class="node">
<title>4</title>
<ellipse fill="none" stroke="#000000" cx="99" cy="-811.9965" rx="27" ry="18"/>
<text text-anchor="middle" x="99" y="-808.2965" font-family="Times,serif" font-size="14.00" fill="#000000">4</text>
</g>
<!-- fake0&#45;&gt;4 -->
<g id="edge1" class="edge">
<title>fake0&#45;&gt;4</title>
<path fill="none" stroke="#000000" stroke-width="2" d="M99,-866.9516C99,-858.8794 99,-849.1729 99,-840.1783"/>
<polygon fill="#000000" stroke="#000000" stroke-width="2" points="102.5001,-840.0869 99,-830.0869 95.5001,-840.0869 102.5001,-840.0869"/>
</g>
<!-- 9 -->
<g id="node2" class="node">
<title>9</title>
<ellipse fill="none" stroke="#000000" cx="27" cy="-105" rx="27" ry="18"/>
<text text-anchor="middle" x="27" y="-101.3" font-family="Times,serif" font-size="14.00" fill="#000000">9</text>
</g>
<!-- 11 -->
<g id="node5" class="node">
<title>11</title>
<ellipse fill="none" stroke="#000000" cx="99" cy="-18" rx="27" ry="18"/>
<text text-anchor="middle" x="99" y="-14.3" font-family="Times,serif" font-size="14.00" fill="#000000">11</text>
</g>
<!-- 9&#45;&gt;11 -->
<g id="edge15" class="edge">
<title>9&#45;&gt;11</title>
<path fill="none" stroke="#000000" d="M40.2059,-89.0429C51.1672,-75.798 66.9179,-56.7659 79.3584,-41.7336"/>
<polygon fill="#000000" stroke="#000000" points="82.1985,-43.7914 85.8778,-33.856 76.8057,-39.3284 82.1985,-43.7914"/>
<text text-anchor="middle" x="70.5" y="-57.8" font-family="Times,serif" font-size="14.00" fill="#000000">e</text>
</g>
<!-- 1 -->
<g id="node3" class="node">
<title>1</title>
<ellipse fill="none" stroke="#000000" cx="71" cy="-637.9965" rx="27" ry="18"/>
<text text-anchor="middle" x="71" y="-634.2965" font-family="Times,serif" font-size="14.00" fill="#000000">1</text>
</g>
<!-- 2 -->
<g id="node13" class="node">
<title>2</title>
<ellipse fill="none" stroke="#000000" cx="71" cy="-550.9965" rx="27" ry="18"/>
<text text-anchor="middle" x="71" y="-547.2965" font-family="Times,serif" font-size="14.00" fill="#000000">2</text>
</g>
<!-- 1&#45;&gt;2 -->
<g id="edge3" class="edge">
<title>1&#45;&gt;2</title>
<path fill="none" stroke="#000000" d="M71,-619.9701C71,-608.1883 71,-592.5572 71,-579.1546"/>
<polygon fill="#000000" stroke="#000000" points="74.5001,-578.9999 71,-568.9999 67.5001,-578.9999 74.5001,-578.9999"/>
<text text-anchor="middle" x="74.5" y="-590.7965" font-family="Times,serif" font-size="14.00" fill="#000000">1</text>
</g>
<!-- 8 -->
<g id="node4" class="node">
<title>8</title>
<ellipse fill="none" stroke="#000000" cx="27" cy="-192" rx="27" ry="18"/>
<text text-anchor="middle" x="27" y="-188.3" font-family="Times,serif" font-size="14.00" fill="#000000">8</text>
</g>
<!-- 8&#45;&gt;9 -->
<g id="edge10" class="edge">
<title>8&#45;&gt;9</title>
<path fill="none" stroke="#000000" d="M27,-173.9735C27,-162.1918 27,-146.5607 27,-133.1581"/>
<polygon fill="#000000" stroke="#000000" points="30.5001,-133.0033 27,-123.0034 23.5001,-133.0034 30.5001,-133.0033"/>
<text text-anchor="middle" x="30.5" y="-144.8" font-family="Times,serif" font-size="14.00" fill="#000000">b</text>
</g>
<!-- 12 -->
<g id="node6" class="node">
<title>12</title>
<ellipse fill="none" stroke="#000000" cx="99" cy="-192" rx="27" ry="18"/>
<text text-anchor="middle" x="99" y="-188.3" font-family="Times,serif" font-size="14.00" fill="#000000">12</text>
</g>
<!-- 13 -->
<g id="node15" class="node">
<title>13</title>
<ellipse fill="none" stroke="#000000" cx="99" cy="-105" rx="27" ry="18"/>
<text text-anchor="middle" x="99" y="-101.3" font-family="Times,serif" font-size="14.00" fill="#000000">13</text>
</g>
<!-- 12&#45;&gt;13 -->
<g id="edge16" class="edge">
<title>12&#45;&gt;13</title>
<path fill="none" stroke="#000000" d="M99,-173.9735C99,-162.1918 99,-146.5607 99,-133.1581"/>
<polygon fill="#000000" stroke="#000000" points="102.5001,-133.0033 99,-123.0034 95.5001,-133.0034 102.5001,-133.0033"/>
<text text-anchor="middle" x="102.5" y="-144.8" font-family="Times,serif" font-size="14.00" fill="#000000">c</text>
</g>
<!-- 3 -->
<g id="node7" class="node">
<title>3</title>
<ellipse fill="none" stroke="#000000" cx="71" cy="-463.9965" rx="27" ry="18"/>
<text text-anchor="middle" x="71" y="-460.2965" font-family="Times,serif" font-size="14.00" fill="#000000">3</text>
</g>
<!-- 0 -->
<g id="node10" class="node">
<title>0</title>
<ellipse fill="none" stroke="#000000" cx="71" cy="-724.9965" rx="27" ry="18"/>
<text text-anchor="middle" x="71" y="-721.2965" font-family="Times,serif" font-size="14.00" fill="#000000">0</text>
</g>
<!-- 3&#45;&gt;0 -->
<g id="edge7" class="edge">
<title>3&#45;&gt;0</title>
<path fill="none" stroke="#000000" d="M59.5508,-480.3797C50.8979,-493.8182 39.7298,-513.7059 35,-532.9965 21.982,-586.0906 21.982,-602.9025 35,-655.9965 38.806,-671.5195 46.781,-687.429 54.2596,-700.0537"/>
<polygon fill="#000000" stroke="#000000" points="51.3156,-701.9476 59.5508,-708.6133 57.2698,-698.2669 51.3156,-701.9476"/>
<text text-anchor="middle" x="29.5" y="-590.7965" font-family="Times,serif" font-size="14.00" fill="#000000">e</text>
</g>
<!-- 5 -->
<g id="node11" class="node">
<title>5</title>
<ellipse fill="none" stroke="#000000" cx="99" cy="-376.9965" rx="27" ry="18"/>
<text text-anchor="middle" x="99" y="-373.2965" font-family="Times,serif" font-size="14.00" fill="#000000">5</text>
</g>
<!-- 3&#45;&gt;5 -->
<g id="edge8" class="edge">
<title>3&#45;&gt;5</title>
<path fill="none" stroke="#000000" d="M76.6662,-446.3908C80.5119,-434.4418 85.6766,-418.3944 90.0707,-404.7412"/>
<polygon fill="#000000" stroke="#000000" points="93.5141,-405.4662 93.2461,-394.8747 86.8507,-403.3216 93.5141,-405.4662"/>
<text text-anchor="middle" x="89.5" y="-416.7965" font-family="Times,serif" font-size="14.00" fill="#000000">e</text>
</g>
<!-- 6 -->
<g id="node8" class="node">
<title>6</title>
<ellipse fill="none" stroke="#000000" cx="171" cy="-192" rx="27" ry="18"/>
<text text-anchor="middle" x="171" y="-188.3" font-family="Times,serif" font-size="14.00" fill="#000000">6</text>
</g>
<!-- 7 -->
<g id="node14" class="node">
<title>7</title>
<ellipse fill="none" stroke="#000000" cx="171" cy="-105" rx="27" ry="18"/>
<text text-anchor="middle" x="171" y="-101.3" font-family="Times,serif" font-size="14.00" fill="#000000">7</text>
</g>
<!-- 6&#45;&gt;7 -->
<g id="edge9" class="edge">
<title>6&#45;&gt;7</title>
<path fill="none" stroke="#000000" d="M171,-173.9735C171,-162.1918 171,-146.5607 171,-133.1581"/>
<polygon fill="#000000" stroke="#000000" points="174.5001,-133.0033 171,-123.0034 167.5001,-133.0034 174.5001,-133.0033"/>
<text text-anchor="middle" x="174.5" y="-144.8" font-family="Times,serif" font-size="14.00" fill="#000000">a</text>
</g>
<!-- 4&#45;&gt;0 -->
<g id="edge5" class="edge">
<title>4&#45;&gt;0</title>
<path fill="none" stroke="#000000" d="M93.3338,-794.3908C89.4881,-782.4418 84.3234,-766.3944 79.9293,-752.7412"/>
<polygon fill="#000000" stroke="#000000" points="83.1493,-751.3216 76.7539,-742.8747 76.4859,-753.4662 83.1493,-751.3216"/>
<text text-anchor="middle" x="89.5" y="-764.7965" font-family="Times,serif" font-size="14.00" fill="#000000">e</text>
</g>
<!-- 4&#45;&gt;5 -->
<g id="edge6" class="edge">
<title>4&#45;&gt;5</title>
<path fill="none" stroke="#000000" d="M107.6916,-794.8207C115.5845,-777.6131 126,-750.1421 126,-724.9965 126,-724.9965 126,-724.9965 126,-463.9965 126,-442.9764 118.7218,-420.3313 111.723,-403.4149"/>
<polygon fill="#000000" stroke="#000000" points="114.8977,-401.9391 107.6916,-394.1723 108.4815,-404.7377 114.8977,-401.9391"/>
<text text-anchor="middle" x="129.5" y="-590.7965" font-family="Times,serif" font-size="14.00" fill="#000000">e</text>
</g>
<!-- 0&#45;&gt;1 -->
<g id="edge2" class="edge">
<title>0&#45;&gt;1</title>
<path fill="none" stroke="#000000" d="M71,-706.9701C71,-695.1883 71,-679.5572 71,-666.1546"/>
<polygon fill="#000000" stroke="#000000" points="74.5001,-665.9999 71,-655.9999 67.5001,-665.9999 74.5001,-665.9999"/>
<text text-anchor="middle" x="74.5" y="-677.7965" font-family="Times,serif" font-size="14.00" fill="#000000">0</text>
</g>
<!-- 10 -->
<g id="node12" class="node">
<title>10</title>
<ellipse fill="none" stroke="#000000" cx="99" cy="-284.4983" rx="19.4968" ry="19.4968"/>
<ellipse fill="none" stroke="#000000" cx="99" cy="-284.4983" rx="23.4965" ry="23.4965"/>
<text text-anchor="middle" x="99" y="-280.7983" font-family="Times,serif" font-size="14.00" fill="#000000">10</text>
</g>
<!-- 5&#45;&gt;10 -->
<g id="edge17" class="edge">
<title>5&#45;&gt;10</title>
<path fill="none" stroke="#000000" d="M99,-358.7219C99,-347.1421 99,-331.8147 99,-318.0961"/>
<polygon fill="#000000" stroke="#000000" points="102.5001,-318.0077 99,-308.0077 95.5001,-318.0077 102.5001,-318.0077"/>
<text text-anchor="middle" x="102.5" y="-329.7965" font-family="Times,serif" font-size="14.00" fill="#000000">e</text>
</g>
<!-- 10&#45;&gt;8 -->
<g id="edge11" class="edge">
<title>10&#45;&gt;8</title>
<path fill="none" stroke="#000000" d="M84.4297,-265.7799C73.3351,-251.5267 57.9712,-231.7886 45.926,-216.3142"/>
<polygon fill="#000000" stroke="#000000" points="48.5282,-213.9591 39.6238,-208.2178 43.0044,-218.2589 48.5282,-213.9591"/>
<text text-anchor="middle" x="68.5" y="-231.8" font-family="Times,serif" font-size="14.00" fill="#000000">e</text>
</g>
<!-- 10&#45;&gt;12 -->
<g id="edge13" class="edge">
<title>10&#45;&gt;12</title>
<path fill="none" stroke="#000000" d="M99,-260.6777C99,-248.3828 99,-233.2978 99,-220.4003"/>
<polygon fill="#000000" stroke="#000000" points="102.5001,-220.1901 99,-210.1902 95.5001,-220.1902 102.5001,-220.1901"/>
<text text-anchor="middle" x="102.5" y="-231.8" font-family="Times,serif" font-size="14.00" fill="#000000">e</text>
</g>
<!-- 10&#45;&gt;6 -->
<g id="edge12" class="edge">
<title>10&#45;&gt;6</title>
<path fill="none" stroke="#000000" d="M113.5703,-265.7799C124.6649,-251.5267 140.0288,-231.7886 152.074,-216.3142"/>
<polygon fill="#000000" stroke="#000000" points="154.9956,-218.2589 158.3762,-208.2178 149.4718,-213.9591 154.9956,-218.2589"/>
<text text-anchor="middle" x="144.5" y="-231.8" font-family="Times,serif" font-size="14.00" fill="#000000">e</text>
</g>
<!-- 2&#45;&gt;3 -->
<g id="edge4" class="edge">
<title>2&#45;&gt;3</title>
<path fill="none" stroke="#000000" d="M71,-532.9701C71,-521.1883 71,-505.5572 71,-492.1546"/>
<polygon fill="#000000" stroke="#000000" points="74.5001,-491.9999 71,-481.9999 67.5001,-491.9999 74.5001,-491.9999"/>
<text text-anchor="middle" x="74.5" y="-503.7965" font-family="Times,serif" font-size="14.00" fill="#000000">0</text>
</g>
<!-- 7&#45;&gt;11 -->
<g id="edge14" class="edge">
<title>7&#45;&gt;11</title>
<path fill="none" stroke="#000000" d="M157.7941,-89.0429C146.8328,-75.798 131.0821,-56.7659 118.6416,-41.7336"/>
<polygon fill="#000000" stroke="#000000" points="121.1943,-39.3284 112.1222,-33.856 115.8015,-43.7914 121.1943,-39.3284"/>
<text text-anchor="middle" x="142.5" y="-57.8" font-family="Times,serif" font-size="14.00" fill="#000000">e</text>
</g>
</g>
</svg>
