<?xml version="1.0" encoding="UTF-8" standalone="no"?>
<!DOCTYPE svg PUBLIC "-//W3C//DTD SVG 1.1//EN"
 "http://www.w3.org/Graphics/SVG/1.1/DTD/svg11.dtd">
<!-- Generated by graphviz version 2.40.1 (20161225.0304)
 -->
<!-- Title: %3 Pages: 1 -->
<svg width="206pt" height="560pt"
 viewBox="0.00 0.00 206.00 560.00" xmlns="http://www.w3.org/2000/svg" xmlns:xlink="http://www.w3.org/1999/xlink">
<g id="graph0" class="graph" transform="scale(1 1) rotate(0) translate(4 556)">
<title>%3</title>
<polygon fill="#ffffff" stroke="transparent" points="-4,4 -4,-556 202,-556 202,4 -4,4"/>
<!-- fake -->
<g id="node1" class="node">
<title>fake</title>
</g>
<!-- 0 -->
<g id="node4" class="node">
<title>0</title>
<ellipse fill="none" stroke="#000000" cx="151" cy="-461" rx="27" ry="18"/>
<text text-anchor="middle" x="151" y="-457.3" font-family="Times,serif" font-size="14.00" fill="#000000">0</text>
</g>
<!-- fake&#45;&gt;0 -->
<g id="edge1" class="edge">
<title>fake&#45;&gt;0</title>
<path fill="none" stroke="#000000" stroke-width="2" d="M151,-515.9551C151,-507.8828 151,-498.1764 151,-489.1817"/>
<polygon fill="#000000" stroke="#000000" stroke-width="2" points="154.5001,-489.0903 151,-479.0904 147.5001,-489.0904 154.5001,-489.0903"/>
</g>
<!-- 1 -->
<g id="node2" class="node">
<title>1</title>
<ellipse fill="none" stroke="#000000" cx="98" cy="-374" rx="27" ry="18"/>
<text text-anchor="middle" x="98" y="-370.3" font-family="Times,serif" font-size="14.00" fill="#000000">1</text>
</g>
<!-- 1&#45;&gt;1 -->
<g id="edge4" class="edge">
<title>1&#45;&gt;1</title>
<path fill="none" stroke="#000000" d="M122.5325,-381.752C133.5078,-382.4902 143,-379.9063 143,-374 143,-370.0317 138.7151,-367.5632 132.5743,-366.5944"/>
<polygon fill="#000000" stroke="#000000" points="132.6472,-363.0949 122.5325,-366.248 132.4059,-370.0908 132.6472,-363.0949"/>
<text text-anchor="middle" x="146.5" y="-370.3" font-family="Times,serif" font-size="14.00" fill="#000000">a</text>
</g>
<!-- 3 -->
<g id="node5" class="node">
<title>3</title>
<ellipse fill="none" stroke="#000000" cx="136" cy="-287" rx="27" ry="18"/>
<text text-anchor="middle" x="136" y="-283.3" font-family="Times,serif" font-size="14.00" fill="#000000">3</text>
</g>
<!-- 1&#45;&gt;3 -->
<g id="edge5" class="edge">
<title>1&#45;&gt;3</title>
<path fill="none" stroke="#000000" d="M111.9663,-358.462C116.7347,-352.4378 121.6928,-345.2501 125,-338 128.2564,-330.8613 130.5685,-322.7143 132.2025,-315.0587"/>
<polygon fill="#000000" stroke="#000000" points="135.674,-315.5321 134.0354,-305.0647 128.7888,-314.2693 135.674,-315.5321"/>
<text text-anchor="middle" x="133.5" y="-326.8" font-family="Times,serif" font-size="14.00" fill="#000000">b</text>
</g>
<!-- 5 -->
<g id="node3" class="node">
<title>5</title>
<ellipse fill="none" stroke="#000000" cx="71" cy="-105" rx="27" ry="18"/>
<text text-anchor="middle" x="71" y="-101.3" font-family="Times,serif" font-size="14.00" fill="#000000">5</text>
</g>
<!-- 5&#45;&gt;1 -->
<g id="edge12" class="edge">
<title>5&#45;&gt;1</title>
<path fill="none" stroke="#000000" d="M66.3156,-123.0084C62.9686,-136.8437 58.7588,-156.4866 57,-174 50.6927,-236.8054 73.0017,-309.0152 87.1655,-347.1518"/>
<polygon fill="#000000" stroke="#000000" points="83.9077,-348.4319 90.7413,-356.5284 90.4483,-345.9376 83.9077,-348.4319"/>
<text text-anchor="middle" x="63.5" y="-239.8" font-family="Times,serif" font-size="14.00" fill="#000000">a</text>
</g>
<!-- 2 -->
<g id="node6" class="node">
<title>2</title>
<ellipse fill="none" stroke="#000000" cx="71" cy="-18" rx="27" ry="18"/>
<text text-anchor="middle" x="71" y="-14.3" font-family="Times,serif" font-size="14.00" fill="#000000">2</text>
</g>
<!-- 5&#45;&gt;2 -->
<g id="edge13" class="edge">
<title>5&#45;&gt;2</title>
<path fill="none" stroke="#000000" d="M71,-86.9735C71,-75.1918 71,-59.5607 71,-46.1581"/>
<polygon fill="#000000" stroke="#000000" points="74.5001,-46.0033 71,-36.0034 67.5001,-46.0034 74.5001,-46.0033"/>
<text text-anchor="middle" x="74.5" y="-57.8" font-family="Times,serif" font-size="14.00" fill="#000000">b</text>
</g>
<!-- 0&#45;&gt;1 -->
<g id="edge2" class="edge">
<title>0&#45;&gt;1</title>
<path fill="none" stroke="#000000" d="M140.7811,-444.2255C133.0824,-431.588 122.3904,-414.0371 113.6215,-399.6429"/>
<polygon fill="#000000" stroke="#000000" points="116.3792,-397.4422 108.1876,-390.723 110.4012,-401.084 116.3792,-397.4422"/>
<text text-anchor="middle" x="130.5" y="-413.8" font-family="Times,serif" font-size="14.00" fill="#000000">a</text>
</g>
<!-- 0&#45;&gt;2 -->
<g id="edge3" class="edge">
<title>0&#45;&gt;2</title>
<path fill="none" stroke="#000000" d="M163.437,-445.007C175.1791,-428.275 191,-400.7648 191,-374 191,-374 191,-374 191,-105 191,-62.6619 141.4324,-38.8087 106.0114,-27.1682"/>
<polygon fill="#000000" stroke="#000000" points="107.0369,-23.8219 96.4489,-24.2036 104.964,-30.5079 107.0369,-23.8219"/>
<text text-anchor="middle" x="194.5" y="-239.8" font-family="Times,serif" font-size="14.00" fill="#000000">b</text>
</g>
<!-- 3&#45;&gt;1 -->
<g id="edge8" class="edge">
<title>3&#45;&gt;1</title>
<path fill="none" stroke="#000000" d="M128.1489,-304.5611C125.5422,-310.4193 122.6337,-316.9855 120,-323 116.5732,-330.8256 112.8835,-339.3427 109.5231,-347.1356"/>
<polygon fill="#000000" stroke="#000000" points="106.2258,-345.9435 105.4875,-356.5125 112.6556,-348.7108 106.2258,-345.9435"/>
<text text-anchor="middle" x="123.5" y="-326.8" font-family="Times,serif" font-size="14.00" fill="#000000">a</text>
</g>
<!-- 4 -->
<g id="node7" class="node">
<title>4</title>
<ellipse fill="none" stroke="#000000" cx="88" cy="-196" rx="18" ry="18"/>
<ellipse fill="none" stroke="#000000" cx="88" cy="-196" rx="22" ry="22"/>
<text text-anchor="middle" x="88" y="-192.3" font-family="Times,serif" font-size="14.00" fill="#000000">4</text>
</g>
<!-- 3&#45;&gt;4 -->
<g id="edge9" class="edge">
<title>3&#45;&gt;4</title>
<path fill="none" stroke="#000000" d="M126.9716,-269.8836C120.2884,-257.2134 111.0263,-239.654 103.2084,-224.8327"/>
<polygon fill="#000000" stroke="#000000" points="106.0824,-222.7792 98.3212,-215.5672 99.8909,-226.0451 106.0824,-222.7792"/>
<text text-anchor="middle" x="119.5" y="-239.8" font-family="Times,serif" font-size="14.00" fill="#000000">b</text>
</g>
<!-- 2&#45;&gt;1 -->
<g id="edge6" class="edge">
<title>2&#45;&gt;1</title>
<path fill="none" stroke="#000000" d="M51.2225,-30.4292C30.2142,-45.3393 0,-72.4425 0,-105 0,-287 0,-287 0,-287 0,-322.5662 36.5444,-347.1374 65.001,-360.8792"/>
<polygon fill="#000000" stroke="#000000" points="63.7274,-364.1454 74.2769,-365.1245 66.6406,-357.7804 63.7274,-364.1454"/>
<text text-anchor="middle" x="3.5" y="-192.3" font-family="Times,serif" font-size="14.00" fill="#000000">a</text>
</g>
<!-- 2&#45;&gt;2 -->
<g id="edge7" class="edge">
<title>2&#45;&gt;2</title>
<path fill="none" stroke="#000000" d="M95.5325,-25.752C106.5078,-26.4902 116,-23.9063 116,-18 116,-14.0317 111.7151,-11.5632 105.5743,-10.5944"/>
<polygon fill="#000000" stroke="#000000" points="105.6472,-7.0949 95.5325,-10.248 105.4059,-14.0908 105.6472,-7.0949"/>
<text text-anchor="middle" x="119.5" y="-14.3" font-family="Times,serif" font-size="14.00" fill="#000000">b</text>
</g>
<!-- 4&#45;&gt;1 -->
<g id="edge10" class="edge">
<title>4&#45;&gt;1</title>
<path fill="none" stroke="#000000" d="M88.8434,-218.1379C89.7233,-240.1668 91.2213,-274.9324 93,-305 93.79,-318.3534 94.8389,-333.1479 95.772,-345.602"/>
<polygon fill="#000000" stroke="#000000" points="92.3031,-346.1438 96.5528,-355.849 99.2829,-345.6119 92.3031,-346.1438"/>
<text text-anchor="middle" x="96.5" y="-283.3" font-family="Times,serif" font-size="14.00" fill="#000000">a</text>
</g>
<!-- 4&#45;&gt;5 -->
<g id="edge11" class="edge">
<title>4&#45;&gt;5</title>
<path fill="none" stroke="#000000" d="M83.8848,-173.9714C81.5897,-161.6858 78.7072,-146.2563 76.2509,-133.1078"/>
<polygon fill="#000000" stroke="#000000" points="79.6686,-132.3428 74.3917,-123.1556 72.7877,-133.6283 79.6686,-132.3428"/>
<text text-anchor="middle" x="83.5" y="-144.8" font-family="Times,serif" font-size="14.00" fill="#000000">b</text>
</g>
</g>
</svg>
