<?xml version="1.0" encoding="UTF-8" standalone="no"?>
<!DOCTYPE svg PUBLIC "-//W3C//DTD SVG 1.1//EN"
 "http://www.w3.org/Graphics/SVG/1.1/DTD/svg11.dtd">
<!-- Generated by graphviz version 2.42.3 (20191010.1750)
 -->
<!-- Title: %3 Pages: 1 -->
<svg width="207pt" height="900pt"
 viewBox="0.00 0.00 207.00 900.25" xmlns="http://www.w3.org/2000/svg" xmlns:xlink="http://www.w3.org/1999/xlink">
<g id="graph0" class="graph" transform="scale(1 1) rotate(0) translate(4 896.25)">
<title>%3</title>
<polygon fill="white" stroke="transparent" points="-4,4 -4,-896.25 203,-896.25 203,4 -4,4"/>
<!-- fake0 -->
<g id="node1" class="node">
<title>fake0</title>
</g>
<!-- 4 -->
<g id="node4" class="node">
<title>4</title>
<ellipse fill="none" stroke="black" cx="100" cy="-801.25" rx="27" ry="18"/>
<text text-anchor="middle" x="100" y="-797.05" font-family="Times,serif" font-size="14.00">4</text>
</g>
<!-- fake0&#45;&gt;4 -->
<g id="edge1" class="edge">
<title>fake0&#45;&gt;4</title>
<path fill="none" stroke="black" stroke-width="2" d="M100,-856.07C100,-848.04 100,-838.3 100,-829.32"/>
<polygon fill="black" stroke="black" stroke-width="2" points="103.5,-829.28 100,-819.28 96.5,-829.28 103.5,-829.28"/>
</g>
<!-- 1 -->
<g id="node2" class="node">
<title>1</title>
<ellipse fill="none" stroke="black" cx="27" cy="-629.25" rx="27" ry="18"/>
<text text-anchor="middle" x="27" y="-625.05" font-family="Times,serif" font-size="14.00">1</text>
</g>
<!-- 2 -->
<g id="node3" class="node">
<title>2</title>
<ellipse fill="none" stroke="black" cx="27" cy="-543.25" rx="27" ry="18"/>
<text text-anchor="middle" x="27" y="-539.05" font-family="Times,serif" font-size="14.00">2</text>
</g>
<!-- 1&#45;&gt;2 -->
<g id="edge3" class="edge">
<title>1&#45;&gt;2</title>
<path fill="none" stroke="black" d="M27,-610.85C27,-599.51 27,-584.48 27,-571.57"/>
<polygon fill="black" stroke="black" points="30.5,-571.35 27,-561.35 23.5,-571.35 30.5,-571.35"/>
<text text-anchor="middle" x="30.5" y="-582.05" font-family="Times,serif" font-size="14.00">1</text>
</g>
<!-- 3 -->
<g id="node9" class="node">
<title>3</title>
<ellipse fill="none" stroke="black" cx="73" cy="-457.25" rx="27" ry="18"/>
<text text-anchor="middle" x="73" y="-453.05" font-family="Times,serif" font-size="14.00">3</text>
</g>
<!-- 2&#45;&gt;3 -->
<g id="edge4" class="edge">
<title>2&#45;&gt;3</title>
<path fill="none" stroke="black" d="M35.87,-526.06C42.49,-513.97 51.65,-497.23 59.22,-483.41"/>
<polygon fill="black" stroke="black" points="62.42,-484.85 64.16,-474.4 56.28,-481.49 62.42,-484.85"/>
<text text-anchor="middle" x="56.5" y="-496.05" font-family="Times,serif" font-size="14.00">0</text>
</g>
<!-- 0 -->
<g id="node7" class="node">
<title>0</title>
<ellipse fill="none" stroke="black" cx="73" cy="-715.25" rx="27" ry="18"/>
<text text-anchor="middle" x="73" y="-711.05" font-family="Times,serif" font-size="14.00">0</text>
</g>
<!-- 4&#45;&gt;0 -->
<g id="edge6" class="edge">
<title>4&#45;&gt;0</title>
<path fill="none" stroke="black" d="M94.54,-783.25C90.78,-771.56 85.72,-755.81 81.44,-742.52"/>
<polygon fill="black" stroke="black" points="84.76,-741.39 78.36,-732.94 78.09,-743.53 84.76,-741.39"/>
<text text-anchor="middle" x="91.11" y="-754.05" font-family="Times,serif" font-size="14.00">e</text>
</g>
<!-- 5 -->
<g id="node14" class="node">
<title>5</title>
<ellipse fill="none" stroke="black" cx="100" cy="-371.25" rx="27" ry="18"/>
<text text-anchor="middle" x="100" y="-367.05" font-family="Times,serif" font-size="14.00">5</text>
</g>
<!-- 4&#45;&gt;5 -->
<g id="edge5" class="edge">
<title>4&#45;&gt;5</title>
<path fill="none" stroke="black" d="M108.86,-784.05C117.06,-767.51 128,-740.85 128,-716.25 128,-716.25 128,-716.25 128,-456.25 128,-435.88 120.5,-414.1 113.26,-397.82"/>
<polygon fill="black" stroke="black" points="116.28,-396.01 108.86,-388.45 109.95,-398.99 116.28,-396.01"/>
<text text-anchor="middle" x="131.11" y="-582.05" font-family="Times,serif" font-size="14.00">e</text>
</g>
<!-- 9 -->
<g id="node5" class="node">
<title>9</title>
<ellipse fill="none" stroke="black" cx="28" cy="-113.25" rx="27" ry="18"/>
<text text-anchor="middle" x="28" y="-109.05" font-family="Times,serif" font-size="14.00">9</text>
</g>
<!-- 11 -->
<g id="node11" class="node">
<title>11</title>
<ellipse fill="none" stroke="black" cx="100" cy="-22.63" rx="18.73" ry="18.73"/>
<ellipse fill="none" stroke="black" cx="100" cy="-22.63" rx="22.75" ry="22.75"/>
<text text-anchor="middle" x="100" y="-18.43" font-family="Times,serif" font-size="14.00">11</text>
</g>
<!-- 9&#45;&gt;11 -->
<g id="edge15" class="edge">
<title>9&#45;&gt;11</title>
<path fill="none" stroke="black" d="M40.54,-96.82C51.28,-83.59 66.96,-64.29 79.52,-48.83"/>
<polygon fill="black" stroke="black" points="82.54,-50.67 86.13,-40.7 77.11,-46.26 82.54,-50.67"/>
<text text-anchor="middle" x="69.11" y="-66.05" font-family="Times,serif" font-size="14.00">e</text>
</g>
<!-- 13 -->
<g id="node6" class="node">
<title>13</title>
<ellipse fill="none" stroke="black" cx="100" cy="-113.25" rx="27" ry="18"/>
<text text-anchor="middle" x="100" y="-109.05" font-family="Times,serif" font-size="14.00">13</text>
</g>
<!-- 13&#45;&gt;11 -->
<g id="edge17" class="edge">
<title>13&#45;&gt;11</title>
<path fill="none" stroke="black" d="M100,-95.16C100,-83.97 100,-69 100,-55.64"/>
<polygon fill="black" stroke="black" points="103.5,-55.38 100,-45.38 96.5,-55.38 103.5,-55.38"/>
<text text-anchor="middle" x="103.11" y="-66.05" font-family="Times,serif" font-size="14.00">e</text>
</g>
<!-- 0&#45;&gt;1 -->
<g id="edge2" class="edge">
<title>0&#45;&gt;1</title>
<path fill="none" stroke="black" d="M64.13,-698.06C57.51,-685.97 48.35,-669.23 40.78,-655.41"/>
<polygon fill="black" stroke="black" points="43.72,-653.49 35.84,-646.4 37.58,-656.85 43.72,-653.49"/>
<text text-anchor="middle" x="56.5" y="-668.05" font-family="Times,serif" font-size="14.00">0</text>
</g>
<!-- 8 -->
<g id="node8" class="node">
<title>8</title>
<ellipse fill="none" stroke="black" cx="28" cy="-199.25" rx="27" ry="18"/>
<text text-anchor="middle" x="28" y="-195.05" font-family="Times,serif" font-size="14.00">8</text>
</g>
<!-- 8&#45;&gt;9 -->
<g id="edge10" class="edge">
<title>8&#45;&gt;9</title>
<path fill="none" stroke="black" d="M28,-180.85C28,-169.51 28,-154.48 28,-141.57"/>
<polygon fill="black" stroke="black" points="31.5,-141.35 28,-131.35 24.5,-141.35 31.5,-141.35"/>
<text text-anchor="middle" x="31.5" y="-152.05" font-family="Times,serif" font-size="14.00">b</text>
</g>
<!-- 3&#45;&gt;0 -->
<g id="edge8" class="edge">
<title>3&#45;&gt;0</title>
<path fill="none" stroke="black" d="M73,-475.37C73,-518.83 73,-633.72 73,-686.73"/>
<polygon fill="black" stroke="black" points="69.5,-687.06 73,-697.06 76.5,-687.06 69.5,-687.06"/>
<text text-anchor="middle" x="76.11" y="-582.05" font-family="Times,serif" font-size="14.00">e</text>
</g>
<!-- 3&#45;&gt;5 -->
<g id="edge7" class="edge">
<title>3&#45;&gt;5</title>
<path fill="none" stroke="black" d="M78.46,-439.25C82.22,-427.56 87.28,-411.81 91.56,-398.52"/>
<polygon fill="black" stroke="black" points="94.91,-399.53 94.64,-388.94 88.24,-397.39 94.91,-399.53"/>
<text text-anchor="middle" x="91.11" y="-410.05" font-family="Times,serif" font-size="14.00">e</text>
</g>
<!-- 12 -->
<g id="node10" class="node">
<title>12</title>
<ellipse fill="none" stroke="black" cx="100" cy="-199.25" rx="27" ry="18"/>
<text text-anchor="middle" x="100" y="-195.05" font-family="Times,serif" font-size="14.00">12</text>
</g>
<!-- 12&#45;&gt;13 -->
<g id="edge16" class="edge">
<title>12&#45;&gt;13</title>
<path fill="none" stroke="black" d="M100,-180.85C100,-169.51 100,-154.48 100,-141.57"/>
<polygon fill="black" stroke="black" points="103.5,-141.35 100,-131.35 96.5,-141.35 103.5,-141.35"/>
<text text-anchor="middle" x="103.11" y="-152.05" font-family="Times,serif" font-size="14.00">c</text>
</g>
<!-- 10 -->
<g id="node12" class="node">
<title>10</title>
<ellipse fill="none" stroke="black" cx="100" cy="-285.25" rx="27" ry="18"/>
<text text-anchor="middle" x="100" y="-281.05" font-family="Times,serif" font-size="14.00">10</text>
</g>
<!-- 10&#45;&gt;8 -->
<g id="edge12" class="edge">
<title>10&#45;&gt;8</title>
<path fill="none" stroke="black" d="M87.13,-269.24C76.07,-256.33 59.96,-237.54 47.35,-222.83"/>
<polygon fill="black" stroke="black" points="49.93,-220.46 40.76,-215.14 44.61,-225.01 49.93,-220.46"/>
<text text-anchor="middle" x="71.11" y="-238.05" font-family="Times,serif" font-size="14.00">e</text>
</g>
<!-- 10&#45;&gt;12 -->
<g id="edge11" class="edge">
<title>10&#45;&gt;12</title>
<path fill="none" stroke="black" d="M100,-266.85C100,-255.51 100,-240.48 100,-227.57"/>
<polygon fill="black" stroke="black" points="103.5,-227.35 100,-217.35 96.5,-227.35 103.5,-227.35"/>
<text text-anchor="middle" x="103.11" y="-238.05" font-family="Times,serif" font-size="14.00">e</text>
</g>
<!-- 6 -->
<g id="node15" class="node">
<title>6</title>
<ellipse fill="none" stroke="black" cx="172" cy="-199.25" rx="27" ry="18"/>
<text text-anchor="middle" x="172" y="-195.05" font-family="Times,serif" font-size="14.00">6</text>
</g>
<!-- 10&#45;&gt;6 -->
<g id="edge13" class="edge">
<title>10&#45;&gt;6</title>
<path fill="none" stroke="black" d="M112.87,-269.24C123.93,-256.33 140.04,-237.54 152.65,-222.83"/>
<polygon fill="black" stroke="black" points="155.39,-225.01 159.24,-215.14 150.07,-220.46 155.39,-225.01"/>
<text text-anchor="middle" x="143.11" y="-238.05" font-family="Times,serif" font-size="14.00">e</text>
</g>
<!-- 7 -->
<g id="node13" class="node">
<title>7</title>
<ellipse fill="none" stroke="black" cx="172" cy="-113.25" rx="27" ry="18"/>
<text text-anchor="middle" x="172" y="-109.05" font-family="Times,serif" font-size="14.00">7</text>
</g>
<!-- 7&#45;&gt;11 -->
<g id="edge14" class="edge">
<title>7&#45;&gt;11</title>
<path fill="none" stroke="black" d="M159.46,-96.82C148.72,-83.59 133.04,-64.29 120.48,-48.83"/>
<polygon fill="black" stroke="black" points="122.89,-46.26 113.87,-40.7 117.46,-50.67 122.89,-46.26"/>
<text text-anchor="middle" x="145.11" y="-66.05" font-family="Times,serif" font-size="14.00">e</text>
</g>
<!-- 5&#45;&gt;10 -->
<g id="edge18" class="edge">
<title>5&#45;&gt;10</title>
<path fill="none" stroke="black" d="M100,-352.85C100,-341.51 100,-326.48 100,-313.57"/>
<polygon fill="black" stroke="black" points="103.5,-313.35 100,-303.35 96.5,-313.35 103.5,-313.35"/>
<text text-anchor="middle" x="103.11" y="-324.05" font-family="Times,serif" font-size="14.00">e</text>
</g>
<!-- 6&#45;&gt;7 -->
<g id="edge9" class="edge">
<title>6&#45;&gt;7</title>
<path fill="none" stroke="black" d="M172,-180.85C172,-169.51 172,-154.48 172,-141.57"/>
<polygon fill="black" stroke="black" points="175.5,-141.35 172,-131.35 168.5,-141.35 175.5,-141.35"/>
<text text-anchor="middle" x="175.11" y="-152.05" font-family="Times,serif" font-size="14.00">a</text>
</g>
</g>
</svg>
