<?xml version="1.0" encoding="UTF-8" standalone="no"?>
<!DOCTYPE svg PUBLIC "-//W3C//DTD SVG 1.1//EN"
 "http://www.w3.org/Graphics/SVG/1.1/DTD/svg11.dtd">
<!-- Generated by graphviz version 2.40.1 (20161225.0304)
 -->
<!-- Title: %3 Pages: 1 -->
<svg width="442pt" height="734pt"
 viewBox="0.00 0.00 442.00 734.00" xmlns="http://www.w3.org/2000/svg" xmlns:xlink="http://www.w3.org/1999/xlink">
<g id="graph0" class="graph" transform="scale(1 1) rotate(0) translate(4 730)">
<title>%3</title>
<polygon fill="#ffffff" stroke="transparent" points="-4,4 -4,-730 438,-730 438,4 -4,4"/>
<!-- fake -->
<g id="node1" class="node">
<title>fake</title>
</g>
<!-- 0 -->
<g id="node2" class="node">
<title>0</title>
<ellipse fill="none" stroke="#000000" cx="130" cy="-635" rx="27" ry="18"/>
<text text-anchor="middle" x="130" y="-631.3" font-family="Times,serif" font-size="14.00" fill="#000000">0</text>
</g>
<!-- fake&#45;&gt;0 -->
<g id="edge1" class="edge">
<title>fake&#45;&gt;0</title>
<path fill="none" stroke="#000000" stroke-width="2" d="M130,-689.9551C130,-681.8828 130,-672.1764 130,-663.1817"/>
<polygon fill="#000000" stroke="#000000" stroke-width="2" points="133.5001,-663.0903 130,-653.0904 126.5001,-663.0904 133.5001,-663.0903"/>
</g>
<!-- 2 -->
<g id="node4" class="node">
<title>2</title>
<ellipse fill="none" stroke="#000000" cx="195" cy="-548" rx="27" ry="18"/>
<text text-anchor="middle" x="195" y="-544.3" font-family="Times,serif" font-size="14.00" fill="#000000">2</text>
</g>
<!-- 0&#45;&gt;2 -->
<g id="edge3" class="edge">
<title>0&#45;&gt;2</title>
<path fill="none" stroke="#000000" d="M142.226,-618.636C151.9404,-605.6336 165.6785,-587.2457 176.7026,-572.4904"/>
<polygon fill="#000000" stroke="#000000" points="179.6474,-574.3966 182.8288,-564.2907 174.0397,-570.2069 179.6474,-574.3966"/>
<text text-anchor="middle" x="169.5" y="-587.8" font-family="Times,serif" font-size="14.00" fill="#000000">1</text>
</g>
<!-- 4 -->
<g id="node5" class="node">
<title>4</title>
<ellipse fill="none" stroke="#000000" cx="230" cy="-461" rx="27" ry="18"/>
<text text-anchor="middle" x="230" y="-457.3" font-family="Times,serif" font-size="14.00" fill="#000000">4</text>
</g>
<!-- 0&#45;&gt;4 -->
<g id="edge5" class="edge">
<title>0&#45;&gt;4</title>
<path fill="none" stroke="#000000" d="M130.3931,-616.6802C131.6077,-594.6946 136.0881,-557.3738 152,-530 164.0701,-509.2354 184.6171,-491.4409 201.5931,-479.1255"/>
<polygon fill="#000000" stroke="#000000" points="203.8862,-481.7931 210.0811,-473.1981 199.8784,-476.054 203.8862,-481.7931"/>
<text text-anchor="middle" x="155.5" y="-544.3" font-family="Times,serif" font-size="14.00" fill="#000000">3</text>
</g>
<!-- 3 -->
<g id="node6" class="node">
<title>3</title>
<ellipse fill="none" stroke="#000000" cx="291" cy="-287" rx="27" ry="18"/>
<text text-anchor="middle" x="291" y="-283.3" font-family="Times,serif" font-size="14.00" fill="#000000">3</text>
</g>
<!-- 0&#45;&gt;3 -->
<g id="edge4" class="edge">
<title>0&#45;&gt;3</title>
<path fill="none" stroke="#000000" d="M156.8806,-632.911C229.9898,-626.496 427,-604.0127 427,-548 427,-548 427,-548 427,-374 427,-326.4559 367.2912,-303.7209 326.9993,-293.7917"/>
<polygon fill="#000000" stroke="#000000" points="327.7531,-290.3737 317.2222,-291.5359 326.1793,-297.1945 327.7531,-290.3737"/>
<text text-anchor="middle" x="430.5" y="-457.3" font-family="Times,serif" font-size="14.00" fill="#000000">2</text>
</g>
<!-- 5 -->
<g id="node7" class="node">
<title>5</title>
<ellipse fill="none" stroke="#000000" cx="126" cy="-200" rx="27" ry="18"/>
<text text-anchor="middle" x="126" y="-196.3" font-family="Times,serif" font-size="14.00" fill="#000000">5</text>
</g>
<!-- 0&#45;&gt;5 -->
<g id="edge6" class="edge">
<title>0&#45;&gt;5</title>
<path fill="none" stroke="#000000" d="M104.005,-629.8598C66.0677,-620.6739 0,-597.562 0,-548 0,-548 0,-548 0,-287 0,-242.8983 52.9171,-219.4194 90.1647,-208.3555"/>
<polygon fill="#000000" stroke="#000000" points="91.5058,-211.6151 100.198,-205.5573 89.6253,-204.8724 91.5058,-211.6151"/>
<text text-anchor="middle" x="3.5" y="-413.8" font-family="Times,serif" font-size="14.00" fill="#000000">a</text>
</g>
<!-- 1 -->
<g id="node9" class="node">
<title>1</title>
<ellipse fill="none" stroke="#000000" cx="139" cy="-374" rx="27" ry="18"/>
<text text-anchor="middle" x="139" y="-370.3" font-family="Times,serif" font-size="14.00" fill="#000000">1</text>
</g>
<!-- 0&#45;&gt;1 -->
<g id="edge2" class="edge">
<title>0&#45;&gt;1</title>
<path fill="none" stroke="#000000" d="M128.786,-616.6941C128.463,-611.0251 128.1598,-604.7566 128,-599 127.815,-592.3359 127.8851,-590.6657 128,-584 129.3335,-506.6322 127.3353,-487.0917 134,-410 134.2235,-407.4147 134.5042,-404.7309 134.818,-402.0471"/>
<polygon fill="#000000" stroke="#000000" points="138.3182,-402.2727 136.1411,-391.904 131.377,-401.3673 138.3182,-402.2727"/>
<text text-anchor="middle" x="131.5" y="-500.8" font-family="Times,serif" font-size="14.00" fill="#000000">0</text>
</g>
<!-- 6 -->
<g id="node3" class="node">
<title>6</title>
<ellipse fill="none" stroke="#000000" cx="126" cy="-113" rx="27" ry="18"/>
<text text-anchor="middle" x="126" y="-109.3" font-family="Times,serif" font-size="14.00" fill="#000000">6</text>
</g>
<!-- 7 -->
<g id="node8" class="node">
<title>7</title>
<ellipse fill="none" stroke="#000000" cx="126" cy="-22" rx="18" ry="18"/>
<ellipse fill="none" stroke="#000000" cx="126" cy="-22" rx="22" ry="22"/>
<text text-anchor="middle" x="126" y="-18.3" font-family="Times,serif" font-size="14.00" fill="#000000">7</text>
</g>
<!-- 6&#45;&gt;7 -->
<g id="edge28" class="edge">
<title>6&#45;&gt;7</title>
<path fill="none" stroke="#000000" d="M126,-94.5848C126,-83.1105 126,-68.0231 126,-54.5774"/>
<polygon fill="#000000" stroke="#000000" points="129.5001,-54.2465 126,-44.2465 122.5001,-54.2466 129.5001,-54.2465"/>
<text text-anchor="middle" x="129.5" y="-65.8" font-family="Times,serif" font-size="14.00" fill="#000000">c</text>
</g>
<!-- 2&#45;&gt;2 -->
<g id="edge13" class="edge">
<title>2&#45;&gt;2</title>
<path fill="none" stroke="#000000" d="M219.5325,-555.752C230.5078,-556.4902 240,-553.9063 240,-548 240,-544.0317 235.7151,-541.5632 229.5743,-540.5944"/>
<polygon fill="#000000" stroke="#000000" points="229.6472,-537.0949 219.5325,-540.248 229.4059,-544.0908 229.6472,-537.0949"/>
<text text-anchor="middle" x="243.5" y="-544.3" font-family="Times,serif" font-size="14.00" fill="#000000">1</text>
</g>
<!-- 2&#45;&gt;4 -->
<g id="edge15" class="edge">
<title>2&#45;&gt;4</title>
<path fill="none" stroke="#000000" d="M198.6953,-530.1529C201.0547,-520.1861 204.5162,-507.6647 209,-497 210.46,-493.5274 212.1947,-489.9783 214.032,-486.5274"/>
<polygon fill="#000000" stroke="#000000" points="217.1258,-488.1671 219.0167,-477.7424 211.0375,-484.7125 217.1258,-488.1671"/>
<text text-anchor="middle" x="212.5" y="-500.8" font-family="Times,serif" font-size="14.00" fill="#000000">3</text>
</g>
<!-- 2&#45;&gt;3 -->
<g id="edge14" class="edge">
<title>2&#45;&gt;3</title>
<path fill="none" stroke="#000000" d="M221.9604,-545.9957C263.5653,-542.2797 340.3693,-532.7321 357,-512 409.5611,-446.4765 399.879,-395.2315 357,-323 350.0605,-311.3101 337.8425,-303.1732 325.7899,-297.6333"/>
<polygon fill="#000000" stroke="#000000" points="326.8438,-294.2828 316.2635,-293.7289 324.1891,-300.7599 326.8438,-294.2828"/>
<text text-anchor="middle" x="395.5" y="-413.8" font-family="Times,serif" font-size="14.00" fill="#000000">2</text>
</g>
<!-- 2&#45;&gt;5 -->
<g id="edge16" class="edge">
<title>2&#45;&gt;5</title>
<path fill="none" stroke="#000000" d="M174.4748,-536.1357C170.6877,-534.0379 166.7462,-531.9143 163,-530 109.2424,-502.5306 46,-521.3692 46,-461 46,-461 46,-461 46,-287 46,-256.3863 73.1719,-231.9061 95.8445,-216.8082"/>
<polygon fill="#000000" stroke="#000000" points="97.9779,-219.6004 104.5615,-211.2993 94.2382,-213.683 97.9779,-219.6004"/>
<text text-anchor="middle" x="49.5" y="-370.3" font-family="Times,serif" font-size="14.00" fill="#000000">a</text>
</g>
<!-- 2&#45;&gt;1 -->
<g id="edge12" class="edge">
<title>2&#45;&gt;1</title>
<path fill="none" stroke="#000000" d="M181.5116,-532.1703C171.0153,-518.8917 157.0815,-498.9466 150,-479 141.1344,-454.0281 138.7741,-423.7735 138.399,-402.1673"/>
<polygon fill="#000000" stroke="#000000" points="141.8985,-402.0094 138.3571,-392.024 134.8985,-402.0384 141.8985,-402.0094"/>
<text text-anchor="middle" x="153.5" y="-457.3" font-family="Times,serif" font-size="14.00" fill="#000000">0</text>
</g>
<!-- 4&#45;&gt;2 -->
<g id="edge23" class="edge">
<title>4&#45;&gt;2</title>
<path fill="none" stroke="#000000" d="M225.2917,-478.748C222.4435,-488.6838 218.4973,-501.2071 214,-512 212.6264,-515.2963 211.0549,-518.694 209.4169,-522.0246"/>
<polygon fill="#000000" stroke="#000000" points="206.2124,-520.6021 204.7345,-531.0933 212.4323,-523.8135 206.2124,-520.6021"/>
<text text-anchor="middle" x="222.5" y="-500.8" font-family="Times,serif" font-size="14.00" fill="#000000">1</text>
</g>
<!-- 4&#45;&gt;4 -->
<g id="edge25" class="edge">
<title>4&#45;&gt;4</title>
<path fill="none" stroke="#000000" d="M254.5325,-468.752C265.5078,-469.4902 275,-466.9063 275,-461 275,-457.0317 270.7151,-454.5632 264.5743,-453.5944"/>
<polygon fill="#000000" stroke="#000000" points="264.6472,-450.0949 254.5325,-453.248 264.4059,-457.0908 264.6472,-450.0949"/>
<text text-anchor="middle" x="278.5" y="-457.3" font-family="Times,serif" font-size="14.00" fill="#000000">3</text>
</g>
<!-- 4&#45;&gt;3 -->
<g id="edge24" class="edge">
<title>4&#45;&gt;3</title>
<path fill="none" stroke="#000000" d="M240.9302,-444.2351C244.473,-438.3201 248.2054,-431.517 251,-425 266.7782,-388.2054 278.4945,-343.3056 285.0404,-314.9257"/>
<polygon fill="#000000" stroke="#000000" points="288.5136,-315.4334 287.2938,-304.909 281.6843,-313.897 288.5136,-315.4334"/>
<text text-anchor="middle" x="277.5" y="-370.3" font-family="Times,serif" font-size="14.00" fill="#000000">2</text>
</g>
<!-- 4&#45;&gt;5 -->
<g id="edge26" class="edge">
<title>4&#45;&gt;5</title>
<path fill="none" stroke="#000000" d="M226.2851,-443.0275C224.222,-433.243 221.5612,-420.9357 219,-410 209.9052,-371.167 212.0008,-359.9553 197,-323 182.4452,-287.1433 159.0502,-249.0208 143.1252,-224.8882"/>
<polygon fill="#000000" stroke="#000000" points="145.8895,-222.7255 137.4216,-216.358 140.0705,-226.6164 145.8895,-222.7255"/>
<text text-anchor="middle" x="205.5" y="-326.8" font-family="Times,serif" font-size="14.00" fill="#000000">a</text>
</g>
<!-- 4&#45;&gt;1 -->
<g id="edge22" class="edge">
<title>4&#45;&gt;1</title>
<path fill="none" stroke="#000000" d="M213.9596,-446.3953C206.8759,-439.8938 198.4765,-432.114 191,-425 181.2667,-415.7387 170.6554,-405.3799 161.5716,-396.4299"/>
<polygon fill="#000000" stroke="#000000" points="163.9268,-393.8367 154.3532,-389.2983 159.007,-398.8163 163.9268,-393.8367"/>
<text text-anchor="middle" x="194.5" y="-413.8" font-family="Times,serif" font-size="14.00" fill="#000000">0</text>
</g>
<!-- 3&#45;&gt;2 -->
<g id="edge18" class="edge">
<title>3&#45;&gt;2</title>
<path fill="none" stroke="#000000" d="M301.8758,-303.53C305.1602,-309.4262 308.3348,-316.2774 310,-323 326.7931,-390.7968 328.3809,-419.9993 291,-479 275.5941,-503.3161 248.2561,-521.6983 226.6833,-533.3503"/>
<polygon fill="#000000" stroke="#000000" points="224.8164,-530.3754 217.5423,-538.0785 228.0324,-536.593 224.8164,-530.3754"/>
<text text-anchor="middle" x="323.5" y="-413.8" font-family="Times,serif" font-size="14.00" fill="#000000">1</text>
</g>
<!-- 3&#45;&gt;4 -->
<g id="edge20" class="edge">
<title>3&#45;&gt;4</title>
<path fill="none" stroke="#000000" d="M293.8884,-304.9051C297.4275,-332.6007 300.5592,-386.6332 279,-425 274.6142,-432.805 267.7562,-439.3898 260.5455,-444.7061"/>
<polygon fill="#000000" stroke="#000000" points="258.4324,-441.9081 252.0457,-450.3616 262.3101,-447.736 258.4324,-441.9081"/>
<text text-anchor="middle" x="299.5" y="-370.3" font-family="Times,serif" font-size="14.00" fill="#000000">3</text>
</g>
<!-- 3&#45;&gt;3 -->
<g id="edge19" class="edge">
<title>3&#45;&gt;3</title>
<path fill="none" stroke="#000000" d="M315.5325,-294.752C326.5078,-295.4902 336,-292.9063 336,-287 336,-283.0317 331.7151,-280.5632 325.5743,-279.5944"/>
<polygon fill="#000000" stroke="#000000" points="325.6472,-276.0949 315.5325,-279.248 325.4059,-283.0908 325.6472,-276.0949"/>
<text text-anchor="middle" x="339.5" y="-283.3" font-family="Times,serif" font-size="14.00" fill="#000000">2</text>
</g>
<!-- 3&#45;&gt;5 -->
<g id="edge21" class="edge">
<title>3&#45;&gt;5</title>
<path fill="none" stroke="#000000" d="M276.5524,-271.3237C265.5369,-260.1603 249.4958,-245.5087 233,-236 210.7184,-223.1562 183.1664,-214.0208 161.6011,-208.1667"/>
<polygon fill="#000000" stroke="#000000" points="162.4093,-204.7605 151.8503,-205.6305 160.6472,-211.5351 162.4093,-204.7605"/>
<text text-anchor="middle" x="256.5" y="-239.8" font-family="Times,serif" font-size="14.00" fill="#000000">a</text>
</g>
<!-- 3&#45;&gt;1 -->
<g id="edge17" class="edge">
<title>3&#45;&gt;1</title>
<path fill="none" stroke="#000000" d="M264.7806,-291.6038C231.7367,-297.8569 177.3897,-309.7818 162,-323 154.8264,-329.1614 149.7825,-338.0128 146.2861,-346.6169"/>
<polygon fill="#000000" stroke="#000000" points="142.9777,-345.4747 142.9649,-356.0695 149.5819,-347.7951 142.9777,-345.4747"/>
<text text-anchor="middle" x="165.5" y="-326.8" font-family="Times,serif" font-size="14.00" fill="#000000">0</text>
</g>
<!-- 5&#45;&gt;6 -->
<g id="edge27" class="edge">
<title>5&#45;&gt;6</title>
<path fill="none" stroke="#000000" d="M126,-181.9735C126,-170.1918 126,-154.5607 126,-141.1581"/>
<polygon fill="#000000" stroke="#000000" points="129.5001,-141.0033 126,-131.0034 122.5001,-141.0034 129.5001,-141.0033"/>
<text text-anchor="middle" x="129.5" y="-152.8" font-family="Times,serif" font-size="14.00" fill="#000000">b</text>
</g>
<!-- 1&#45;&gt;2 -->
<g id="edge8" class="edge">
<title>1&#45;&gt;2</title>
<path fill="none" stroke="#000000" d="M144.6928,-391.6883C154.4722,-422.0745 174.5291,-484.3941 186.1466,-520.4912"/>
<polygon fill="#000000" stroke="#000000" points="182.9268,-521.9115 189.3222,-530.3584 189.5902,-519.767 182.9268,-521.9115"/>
<text text-anchor="middle" x="175.5" y="-457.3" font-family="Times,serif" font-size="14.00" fill="#000000">1</text>
</g>
<!-- 1&#45;&gt;4 -->
<g id="edge10" class="edge">
<title>1&#45;&gt;4</title>
<path fill="none" stroke="#000000" d="M160.8251,-384.9136C172.1345,-391.2434 185.6954,-399.9467 196,-410 203.4622,-417.2802 210.1923,-426.4573 215.6579,-435.0133"/>
<polygon fill="#000000" stroke="#000000" points="212.6903,-436.8696 220.8734,-443.5991 218.6729,-433.2353 212.6903,-436.8696"/>
<text text-anchor="middle" x="211.5" y="-413.8" font-family="Times,serif" font-size="14.00" fill="#000000">3</text>
</g>
<!-- 1&#45;&gt;3 -->
<g id="edge9" class="edge">
<title>1&#45;&gt;3</title>
<path fill="none" stroke="#000000" d="M152.4397,-357.9012C162.4007,-346.8239 176.8293,-332.4579 192,-323 211.5596,-310.8059 235.8549,-301.8931 255.4825,-295.9862"/>
<polygon fill="#000000" stroke="#000000" points="256.6288,-299.2985 265.2711,-293.1698 254.6932,-292.5714 256.6288,-299.2985"/>
<text text-anchor="middle" x="195.5" y="-326.8" font-family="Times,serif" font-size="14.00" fill="#000000">2</text>
</g>
<!-- 1&#45;&gt;5 -->
<g id="edge11" class="edge">
<title>1&#45;&gt;5</title>
<path fill="none" stroke="#000000" d="M137.6333,-355.7078C135.3647,-325.3436 130.8057,-264.3226 128.1178,-228.3464"/>
<polygon fill="#000000" stroke="#000000" points="131.5838,-227.7585 127.3483,-218.0471 124.6032,-228.2801 131.5838,-227.7585"/>
<text text-anchor="middle" x="136.5" y="-283.3" font-family="Times,serif" font-size="14.00" fill="#000000">a</text>
</g>
<!-- 1&#45;&gt;1 -->
<g id="edge7" class="edge">
<title>1&#45;&gt;1</title>
<path fill="none" stroke="#000000" d="M163.5325,-381.752C174.5078,-382.4902 184,-379.9063 184,-374 184,-370.0317 179.7151,-367.5632 173.5743,-366.5944"/>
<polygon fill="#000000" stroke="#000000" points="173.6472,-363.0949 163.5325,-366.248 173.4059,-370.0908 173.6472,-363.0949"/>
<text text-anchor="middle" x="187.5" y="-370.3" font-family="Times,serif" font-size="14.00" fill="#000000">0</text>
</g>
</g>
</svg>
