<?xml version="1.0" encoding="UTF-8" standalone="no"?>
<!DOCTYPE svg PUBLIC "-//W3C//DTD SVG 1.1//EN"
 "http://www.w3.org/Graphics/SVG/1.1/DTD/svg11.dtd">
<!-- Generated by graphviz version 2.40.1 (20161225.0304)
 -->
<!-- Title: %3 Pages: 1 -->
<svg width="207pt" height="911pt"
 viewBox="0.00 0.00 207.00 911.00" xmlns="http://www.w3.org/2000/svg" xmlns:xlink="http://www.w3.org/1999/xlink">
<g id="graph0" class="graph" transform="scale(1 1) rotate(0) translate(4 906.9965)">
<title>%3</title>
<polygon fill="#ffffff" stroke="transparent" points="-4,4 -4,-906.9965 203,-906.9965 203,4 -4,4"/>
<!-- fake0 -->
<g id="node1" class="node">
<title>fake0</title>
</g>
<!-- 6 -->
<g id="node7" class="node">
<title>6</title>
<ellipse fill="none" stroke="#000000" cx="165" cy="-811.9965" rx="27" ry="18"/>
<text text-anchor="middle" x="165" y="-808.2965" font-family="Times,serif" font-size="14.00" fill="#000000">6</text>
</g>
<!-- fake0&#45;&gt;6 -->
<g id="edge1" class="edge">
<title>fake0&#45;&gt;6</title>
<path fill="none" stroke="#000000" stroke-width="2" d="M165,-866.9516C165,-858.8794 165,-849.1729 165,-840.1783"/>
<polygon fill="#000000" stroke="#000000" stroke-width="2" points="168.5001,-840.0869 165,-830.0869 161.5001,-840.0869 168.5001,-840.0869"/>
</g>
<!-- 0 -->
<g id="node2" class="node">
<title>0</title>
<ellipse fill="none" stroke="#000000" cx="27" cy="-637.9965" rx="27" ry="18"/>
<text text-anchor="middle" x="27" y="-634.2965" font-family="Times,serif" font-size="14.00" fill="#000000">0</text>
</g>
<!-- 1 -->
<g id="node6" class="node">
<title>1</title>
<ellipse fill="none" stroke="#000000" cx="27" cy="-550.9965" rx="27" ry="18"/>
<text text-anchor="middle" x="27" y="-547.2965" font-family="Times,serif" font-size="14.00" fill="#000000">1</text>
</g>
<!-- 0&#45;&gt;1 -->
<g id="edge2" class="edge">
<title>0&#45;&gt;1</title>
<path fill="none" stroke="#000000" d="M27,-619.9701C27,-608.1883 27,-592.5572 27,-579.1546"/>
<polygon fill="#000000" stroke="#000000" points="30.5001,-578.9999 27,-568.9999 23.5001,-578.9999 30.5001,-578.9999"/>
<text text-anchor="middle" x="30.5" y="-590.7965" font-family="Times,serif" font-size="14.00" fill="#000000">a</text>
</g>
<!-- 9 -->
<g id="node3" class="node">
<title>9</title>
<ellipse fill="none" stroke="#000000" cx="165" cy="-202.9965" rx="27" ry="18"/>
<text text-anchor="middle" x="165" y="-199.2965" font-family="Times,serif" font-size="14.00" fill="#000000">9</text>
</g>
<!-- 10 -->
<g id="node9" class="node">
<title>10</title>
<ellipse fill="none" stroke="#000000" cx="165" cy="-110.4983" rx="19.4968" ry="19.4968"/>
<ellipse fill="none" stroke="#000000" cx="165" cy="-110.4983" rx="23.4965" ry="23.4965"/>
<text text-anchor="middle" x="165" y="-106.7983" font-family="Times,serif" font-size="14.00" fill="#000000">10</text>
</g>
<!-- 9&#45;&gt;10 -->
<g id="edge14" class="edge">
<title>9&#45;&gt;10</title>
<path fill="none" stroke="#000000" d="M165,-184.7219C165,-173.1421 165,-157.8147 165,-144.0961"/>
<polygon fill="#000000" stroke="#000000" points="168.5001,-144.0077 165,-134.0077 161.5001,-144.0077 168.5001,-144.0077"/>
<text text-anchor="middle" x="168.5" y="-155.7965" font-family="Times,serif" font-size="14.00" fill="#000000">b</text>
</g>
<!-- 3 -->
<g id="node4" class="node">
<title>3</title>
<ellipse fill="none" stroke="#000000" cx="99" cy="-550.9965" rx="27" ry="18"/>
<text text-anchor="middle" x="99" y="-547.2965" font-family="Times,serif" font-size="14.00" fill="#000000">3</text>
</g>
<!-- 5 -->
<g id="node11" class="node">
<title>5</title>
<ellipse fill="none" stroke="#000000" cx="135" cy="-463.9965" rx="27" ry="18"/>
<text text-anchor="middle" x="135" y="-460.2965" font-family="Times,serif" font-size="14.00" fill="#000000">5</text>
</g>
<!-- 3&#45;&gt;5 -->
<g id="edge7" class="edge">
<title>3&#45;&gt;5</title>
<path fill="none" stroke="#000000" d="M106.2851,-533.3908C111.3111,-521.2448 118.0893,-504.864 123.7982,-491.0677"/>
<polygon fill="#000000" stroke="#000000" points="127.1362,-492.1545 127.7257,-481.5761 120.6681,-489.478 127.1362,-492.1545"/>
<text text-anchor="middle" x="122.5" y="-503.7965" font-family="Times,serif" font-size="14.00" fill="#000000">e</text>
</g>
<!-- 8 -->
<g id="node5" class="node">
<title>8</title>
<ellipse fill="none" stroke="#000000" cx="165" cy="-289.9965" rx="27" ry="18"/>
<text text-anchor="middle" x="165" y="-286.2965" font-family="Times,serif" font-size="14.00" fill="#000000">8</text>
</g>
<!-- 8&#45;&gt;9 -->
<g id="edge12" class="edge">
<title>8&#45;&gt;9</title>
<path fill="none" stroke="#000000" d="M157.8573,-272.337C155.8734,-266.5868 153.992,-260.1094 153,-253.9965 151.7235,-246.1305 152.7261,-237.6754 154.5974,-229.9556"/>
<polygon fill="#000000" stroke="#000000" points="157.9608,-230.9242 157.4391,-220.3422 151.2479,-228.9398 157.9608,-230.9242"/>
<text text-anchor="middle" x="156.5" y="-242.7965" font-family="Times,serif" font-size="14.00" fill="#000000">a</text>
</g>
<!-- 8&#45;&gt;9 -->
<g id="edge15" class="edge">
<title>8&#45;&gt;9</title>
<path fill="none" stroke="#000000" d="M165,-271.9701C165,-260.1883 165,-244.5572 165,-231.1546"/>
<polygon fill="#000000" stroke="#000000" points="168.5001,-230.9999 165,-220.9999 161.5001,-230.9999 168.5001,-230.9999"/>
<text text-anchor="middle" x="168.5" y="-242.7965" font-family="Times,serif" font-size="14.00" fill="#000000">b</text>
</g>
<!-- 1&#45;&gt;5 -->
<g id="edge6" class="edge">
<title>1&#45;&gt;5</title>
<path fill="none" stroke="#000000" d="M44.3521,-537.0185C62.0655,-522.7493 89.7404,-500.4557 109.8539,-484.2532"/>
<polygon fill="#000000" stroke="#000000" points="112.0991,-486.9389 117.691,-477.9399 107.7078,-481.4876 112.0991,-486.9389"/>
<text text-anchor="middle" x="91.5" y="-503.7965" font-family="Times,serif" font-size="14.00" fill="#000000">e</text>
</g>
<!-- 4 -->
<g id="node10" class="node">
<title>4</title>
<ellipse fill="none" stroke="#000000" cx="127" cy="-724.9965" rx="27" ry="18"/>
<text text-anchor="middle" x="127" y="-721.2965" font-family="Times,serif" font-size="14.00" fill="#000000">4</text>
</g>
<!-- 6&#45;&gt;4 -->
<g id="edge8" class="edge">
<title>6&#45;&gt;4</title>
<path fill="none" stroke="#000000" d="M157.3101,-794.3908C151.9701,-782.1648 144.7559,-765.6482 138.7054,-751.7957"/>
<polygon fill="#000000" stroke="#000000" points="141.7589,-750.0422 134.5487,-742.2792 135.3441,-752.8441 141.7589,-750.0422"/>
<text text-anchor="middle" x="151.5" y="-764.7965" font-family="Times,serif" font-size="14.00" fill="#000000">e</text>
</g>
<!-- 7 -->
<g id="node12" class="node">
<title>7</title>
<ellipse fill="none" stroke="#000000" cx="165" cy="-376.9965" rx="27" ry="18"/>
<text text-anchor="middle" x="165" y="-373.2965" font-family="Times,serif" font-size="14.00" fill="#000000">7</text>
</g>
<!-- 6&#45;&gt;7 -->
<g id="edge9" class="edge">
<title>6&#45;&gt;7</title>
<path fill="none" stroke="#000000" d="M173.6916,-794.8207C181.5845,-777.6131 192,-750.1421 192,-724.9965 192,-724.9965 192,-724.9965 192,-463.9965 192,-442.9764 184.7218,-420.3313 177.723,-403.4149"/>
<polygon fill="#000000" stroke="#000000" points="180.8977,-401.9391 173.6916,-394.1723 174.4815,-404.7377 180.8977,-401.9391"/>
<text text-anchor="middle" x="195.5" y="-590.7965" font-family="Times,serif" font-size="14.00" fill="#000000">e</text>
</g>
<!-- 2 -->
<g id="node8" class="node">
<title>2</title>
<ellipse fill="none" stroke="#000000" cx="99" cy="-637.9965" rx="27" ry="18"/>
<text text-anchor="middle" x="99" y="-634.2965" font-family="Times,serif" font-size="14.00" fill="#000000">2</text>
</g>
<!-- 2&#45;&gt;3 -->
<g id="edge3" class="edge">
<title>2&#45;&gt;3</title>
<path fill="none" stroke="#000000" d="M99,-619.9701C99,-608.1883 99,-592.5572 99,-579.1546"/>
<polygon fill="#000000" stroke="#000000" points="102.5001,-578.9999 99,-568.9999 95.5001,-578.9999 102.5001,-578.9999"/>
<text text-anchor="middle" x="102.5" y="-590.7965" font-family="Times,serif" font-size="14.00" fill="#000000">b</text>
</g>
<!-- 11 -->
<g id="node13" class="node">
<title>11</title>
<ellipse fill="none" stroke="#000000" cx="165" cy="-18" rx="27" ry="18"/>
<text text-anchor="middle" x="165" y="-14.3" font-family="Times,serif" font-size="14.00" fill="#000000">11</text>
</g>
<!-- 10&#45;&gt;11 -->
<g id="edge16" class="edge">
<title>10&#45;&gt;11</title>
<path fill="none" stroke="#000000" d="M165,-86.6777C165,-74.3828 165,-59.2978 165,-46.4003"/>
<polygon fill="#000000" stroke="#000000" points="168.5001,-46.1901 165,-36.1902 161.5001,-46.1902 168.5001,-46.1901"/>
<text text-anchor="middle" x="168.5" y="-57.8" font-family="Times,serif" font-size="14.00" fill="#000000">b</text>
</g>
<!-- 4&#45;&gt;0 -->
<g id="edge4" class="edge">
<title>4&#45;&gt;0</title>
<path fill="none" stroke="#000000" d="M110.487,-710.6303C94.4194,-696.6515 69.8132,-675.244 51.471,-659.2863"/>
<polygon fill="#000000" stroke="#000000" points="53.3792,-656.3073 43.5375,-652.3842 48.7847,-661.5884 53.3792,-656.3073"/>
<text text-anchor="middle" x="86.5" y="-677.7965" font-family="Times,serif" font-size="14.00" fill="#000000">e</text>
</g>
<!-- 4&#45;&gt;2 -->
<g id="edge5" class="edge">
<title>4&#45;&gt;2</title>
<path fill="none" stroke="#000000" d="M121.3338,-707.3908C117.4881,-695.4418 112.3234,-679.3944 107.9293,-665.7412"/>
<polygon fill="#000000" stroke="#000000" points="111.1493,-664.3216 104.7539,-655.8747 104.4859,-666.4662 111.1493,-664.3216"/>
<text text-anchor="middle" x="117.5" y="-677.7965" font-family="Times,serif" font-size="14.00" fill="#000000">e</text>
</g>
<!-- 5&#45;&gt;4 -->
<g id="edge10" class="edge">
<title>5&#45;&gt;4</title>
<path fill="none" stroke="#000000" d="M135.6922,-482.0165C136.8458,-516.0498 138.6916,-592.1031 135,-655.9965 134.2253,-669.4053 132.6104,-684.207 131.0331,-696.6515"/>
<polygon fill="#000000" stroke="#000000" points="127.5209,-696.5139 129.6787,-706.8866 134.4604,-697.4322 127.5209,-696.5139"/>
<text text-anchor="middle" x="140.5" y="-590.7965" font-family="Times,serif" font-size="14.00" fill="#000000">e</text>
</g>
<!-- 5&#45;&gt;7 -->
<g id="edge11" class="edge">
<title>5&#45;&gt;7</title>
<path fill="none" stroke="#000000" d="M141.0709,-446.3908C145.2592,-434.2448 150.9078,-417.864 155.6651,-404.0677"/>
<polygon fill="#000000" stroke="#000000" points="158.9869,-405.1708 158.9381,-394.5761 152.3693,-402.8888 158.9869,-405.1708"/>
<text text-anchor="middle" x="154.5" y="-416.7965" font-family="Times,serif" font-size="14.00" fill="#000000">e</text>
</g>
<!-- 7&#45;&gt;8 -->
<g id="edge13" class="edge">
<title>7&#45;&gt;8</title>
<path fill="none" stroke="#000000" d="M165,-358.9701C165,-347.1883 165,-331.5572 165,-318.1546"/>
<polygon fill="#000000" stroke="#000000" points="168.5001,-317.9999 165,-307.9999 161.5001,-317.9999 168.5001,-317.9999"/>
<text text-anchor="middle" x="168.5" y="-329.7965" font-family="Times,serif" font-size="14.00" fill="#000000">a</text>
</g>
</g>
</svg>
