<?xml version="1.0" encoding="UTF-8" standalone="no"?>
<!DOCTYPE svg PUBLIC "-//W3C//DTD SVG 1.1//EN"
 "http://www.w3.org/Graphics/SVG/1.1/DTD/svg11.dtd">
<!-- Generated by graphviz version 2.40.1 (20161225.0304)
 -->
<!-- Title: %3 Pages: 1 -->
<svg width="431pt" height="734pt"
 viewBox="0.00 0.00 431.00 734.00" xmlns="http://www.w3.org/2000/svg" xmlns:xlink="http://www.w3.org/1999/xlink">
<g id="graph0" class="graph" transform="scale(1 1) rotate(0) translate(4 730)">
<title>%3</title>
<polygon fill="#ffffff" stroke="transparent" points="-4,4 -4,-730 427,-730 427,4 -4,4"/>
<!-- fake -->
<g id="node1" class="node">
<title>fake</title>
</g>
<!-- 0 -->
<g id="node8" class="node">
<title>0</title>
<ellipse fill="none" stroke="#000000" cx="204" cy="-635" rx="27" ry="18"/>
<text text-anchor="middle" x="204" y="-631.3" font-family="Times,serif" font-size="14.00" fill="#000000">0</text>
</g>
<!-- fake&#45;&gt;0 -->
<g id="edge1" class="edge">
<title>fake&#45;&gt;0</title>
<path fill="none" stroke="#000000" stroke-width="2" d="M204,-689.9551C204,-681.8828 204,-672.1764 204,-663.1817"/>
<polygon fill="#000000" stroke="#000000" stroke-width="2" points="207.5001,-663.0903 204,-653.0904 200.5001,-663.0904 207.5001,-663.0903"/>
</g>
<!-- 3 -->
<g id="node2" class="node">
<title>3</title>
<ellipse fill="none" stroke="#000000" cx="204" cy="-548" rx="27" ry="18"/>
<text text-anchor="middle" x="204" y="-544.3" font-family="Times,serif" font-size="14.00" fill="#000000">3</text>
</g>
<!-- 3&#45;&gt;3 -->
<g id="edge19" class="edge">
<title>3&#45;&gt;3</title>
<path fill="none" stroke="#000000" d="M228.5325,-555.752C239.5078,-556.4902 249,-553.9063 249,-548 249,-544.0317 244.7151,-541.5632 238.5743,-540.5944"/>
<polygon fill="#000000" stroke="#000000" points="238.6472,-537.0949 228.5325,-540.248 238.4059,-544.0908 238.6472,-537.0949"/>
<text text-anchor="middle" x="252.5" y="-544.3" font-family="Times,serif" font-size="14.00" fill="#000000">2</text>
</g>
<!-- 1 -->
<g id="node3" class="node">
<title>1</title>
<ellipse fill="none" stroke="#000000" cx="174" cy="-461" rx="27" ry="18"/>
<text text-anchor="middle" x="174" y="-457.3" font-family="Times,serif" font-size="14.00" fill="#000000">1</text>
</g>
<!-- 3&#45;&gt;1 -->
<g id="edge17" class="edge">
<title>3&#45;&gt;1</title>
<path fill="none" stroke="#000000" d="M197.9291,-530.3943C193.7408,-518.2482 188.0922,-501.8674 183.3349,-488.0711"/>
<polygon fill="#000000" stroke="#000000" points="186.6307,-486.8923 180.0619,-478.5796 180.0131,-489.1743 186.6307,-486.8923"/>
<text text-anchor="middle" x="193.5" y="-500.8" font-family="Times,serif" font-size="14.00" fill="#000000">0</text>
</g>
<!-- 4 -->
<g id="node5" class="node">
<title>4</title>
<ellipse fill="none" stroke="#000000" cx="140" cy="-287" rx="27" ry="18"/>
<text text-anchor="middle" x="140" y="-283.3" font-family="Times,serif" font-size="14.00" fill="#000000">4</text>
</g>
<!-- 3&#45;&gt;4 -->
<g id="edge20" class="edge">
<title>3&#45;&gt;4</title>
<path fill="none" stroke="#000000" d="M184.1416,-535.594C180.2199,-533.502 176.0593,-531.5196 172,-530 135.0206,-516.1567 112.9205,-539.9205 85,-512 25.5955,-452.5955 35.0493,-392.6664 82,-323 88.2741,-313.6904 97.8463,-306.3413 107.4169,-300.7765"/>
<polygon fill="#000000" stroke="#000000" points="109.2801,-303.7505 116.4845,-295.9821 106.0082,-297.5622 109.2801,-303.7505"/>
<text text-anchor="middle" x="47.5" y="-413.8" font-family="Times,serif" font-size="14.00" fill="#000000">3</text>
</g>
<!-- 5 -->
<g id="node6" class="node">
<title>5</title>
<ellipse fill="none" stroke="#000000" cx="302" cy="-200" rx="27" ry="18"/>
<text text-anchor="middle" x="302" y="-196.3" font-family="Times,serif" font-size="14.00" fill="#000000">5</text>
</g>
<!-- 3&#45;&gt;5 -->
<g id="edge21" class="edge">
<title>3&#45;&gt;5</title>
<path fill="none" stroke="#000000" d="M231.1875,-546.5649C280.125,-542.3605 378,-525.846 378,-461 378,-461 378,-461 378,-287 378,-257.3866 352.7165,-232.9912 331.3156,-217.6462"/>
<polygon fill="#000000" stroke="#000000" points="333.0038,-214.5615 322.7673,-211.8291 329.0656,-220.3486 333.0038,-214.5615"/>
<text text-anchor="middle" x="381.5" y="-370.3" font-family="Times,serif" font-size="14.00" fill="#000000">a</text>
</g>
<!-- 2 -->
<g id="node7" class="node">
<title>2</title>
<ellipse fill="none" stroke="#000000" cx="280" cy="-374" rx="27" ry="18"/>
<text text-anchor="middle" x="280" y="-370.3" font-family="Times,serif" font-size="14.00" fill="#000000">2</text>
</g>
<!-- 3&#45;&gt;2 -->
<g id="edge18" class="edge">
<title>3&#45;&gt;2</title>
<path fill="none" stroke="#000000" d="M212.5471,-530.6719C224.0893,-507.0295 245.0492,-463.2285 261,-425 264.2234,-417.2746 267.4913,-408.7883 270.3868,-400.9929"/>
<polygon fill="#000000" stroke="#000000" points="273.6752,-402.1914 273.824,-391.5976 267.1013,-399.7864 273.6752,-402.1914"/>
<text text-anchor="middle" x="255.5" y="-457.3" font-family="Times,serif" font-size="14.00" fill="#000000">1</text>
</g>
<!-- 1&#45;&gt;3 -->
<g id="edge9" class="edge">
<title>1&#45;&gt;3</title>
<path fill="none" stroke="#000000" d="M172.5614,-478.9795C172.3693,-488.9877 173.1561,-501.5063 177,-512 178.5846,-516.3258 180.8718,-520.5689 183.4538,-524.5379"/>
<polygon fill="#000000" stroke="#000000" points="180.6976,-526.6985 189.4189,-532.7143 186.3527,-522.5729 180.6976,-526.6985"/>
<text text-anchor="middle" x="180.5" y="-500.8" font-family="Times,serif" font-size="14.00" fill="#000000">2</text>
</g>
<!-- 1&#45;&gt;1 -->
<g id="edge7" class="edge">
<title>1&#45;&gt;1</title>
<path fill="none" stroke="#000000" d="M198.5325,-468.752C209.5078,-469.4902 219,-466.9063 219,-461 219,-457.0317 214.7151,-454.5632 208.5743,-453.5944"/>
<polygon fill="#000000" stroke="#000000" points="208.6472,-450.0949 198.5325,-453.248 208.4059,-457.0908 208.6472,-450.0949"/>
<text text-anchor="middle" x="222.5" y="-457.3" font-family="Times,serif" font-size="14.00" fill="#000000">0</text>
</g>
<!-- 1&#45;&gt;4 -->
<g id="edge10" class="edge">
<title>1&#45;&gt;4</title>
<path fill="none" stroke="#000000" d="M163.9397,-443.9246C160.9253,-438.0987 157.9153,-431.429 156,-425 145.0091,-388.1064 141.5038,-343.5739 140.4223,-315.269"/>
<polygon fill="#000000" stroke="#000000" points="143.9205,-315.1534 140.1159,-305.2652 136.9237,-315.3677 143.9205,-315.1534"/>
<text text-anchor="middle" x="150.5" y="-370.3" font-family="Times,serif" font-size="14.00" fill="#000000">3</text>
</g>
<!-- 1&#45;&gt;5 -->
<g id="edge11" class="edge">
<title>1&#45;&gt;5</title>
<path fill="none" stroke="#000000" d="M178.9344,-443.0443C186.6304,-416.1927 202.7336,-364.314 223,-323 240.62,-287.0809 266.4958,-248.7583 283.7784,-224.6124"/>
<polygon fill="#000000" stroke="#000000" points="286.7017,-226.5428 289.7257,-216.3886 281.0296,-222.4407 286.7017,-226.5428"/>
<text text-anchor="middle" x="226.5" y="-326.8" font-family="Times,serif" font-size="14.00" fill="#000000">a</text>
</g>
<!-- 1&#45;&gt;2 -->
<g id="edge8" class="edge">
<title>1&#45;&gt;2</title>
<path fill="none" stroke="#000000" d="M196.0955,-450.4772C208.48,-444.0314 223.8338,-435.0926 236,-425 245.3715,-417.2258 254.3987,-407.3385 261.8113,-398.3431"/>
<polygon fill="#000000" stroke="#000000" points="264.6315,-400.4202 268.1284,-390.4191 259.1579,-396.0567 264.6315,-400.4202"/>
<text text-anchor="middle" x="253.5" y="-413.8" font-family="Times,serif" font-size="14.00" fill="#000000">1</text>
</g>
<!-- 6 -->
<g id="node4" class="node">
<title>6</title>
<ellipse fill="none" stroke="#000000" cx="302" cy="-113" rx="27" ry="18"/>
<text text-anchor="middle" x="302" y="-109.3" font-family="Times,serif" font-size="14.00" fill="#000000">6</text>
</g>
<!-- 7 -->
<g id="node9" class="node">
<title>7</title>
<ellipse fill="none" stroke="#000000" cx="302" cy="-22" rx="18" ry="18"/>
<ellipse fill="none" stroke="#000000" cx="302" cy="-22" rx="22" ry="22"/>
<text text-anchor="middle" x="302" y="-18.3" font-family="Times,serif" font-size="14.00" fill="#000000">7</text>
</g>
<!-- 6&#45;&gt;7 -->
<g id="edge28" class="edge">
<title>6&#45;&gt;7</title>
<path fill="none" stroke="#000000" d="M302,-94.5848C302,-83.1105 302,-68.0231 302,-54.5774"/>
<polygon fill="#000000" stroke="#000000" points="305.5001,-54.2465 302,-44.2465 298.5001,-54.2466 305.5001,-54.2465"/>
<text text-anchor="middle" x="305.5" y="-65.8" font-family="Times,serif" font-size="14.00" fill="#000000">c</text>
</g>
<!-- 4&#45;&gt;3 -->
<g id="edge24" class="edge">
<title>4&#45;&gt;3</title>
<path fill="none" stroke="#000000" d="M135.4399,-304.7801C127.4084,-339.6969 113.7622,-419.0437 138,-479 146.0204,-498.8399 162.7351,-516.2164 177.3359,-528.5689"/>
<polygon fill="#000000" stroke="#000000" points="175.1852,-531.3309 185.1614,-534.8983 179.5873,-525.8883 175.1852,-531.3309"/>
<text text-anchor="middle" x="128.5" y="-413.8" font-family="Times,serif" font-size="14.00" fill="#000000">2</text>
</g>
<!-- 4&#45;&gt;1 -->
<g id="edge22" class="edge">
<title>4&#45;&gt;1</title>
<path fill="none" stroke="#000000" d="M148.253,-304.2597C150.7563,-310.0978 153.2925,-316.7283 155,-323 165.0952,-360.0808 169.9784,-404.2992 172.2304,-432.5069"/>
<polygon fill="#000000" stroke="#000000" points="168.7664,-433.1248 172.9941,-442.8395 175.7474,-432.6087 168.7664,-433.1248"/>
<text text-anchor="middle" x="170.5" y="-370.3" font-family="Times,serif" font-size="14.00" fill="#000000">0</text>
</g>
<!-- 4&#45;&gt;4 -->
<g id="edge25" class="edge">
<title>4&#45;&gt;4</title>
<path fill="none" stroke="#000000" d="M164.5325,-294.752C175.5078,-295.4902 185,-292.9063 185,-287 185,-283.0317 180.7151,-280.5632 174.5743,-279.5944"/>
<polygon fill="#000000" stroke="#000000" points="174.6472,-276.0949 164.5325,-279.248 174.4059,-283.0908 174.6472,-276.0949"/>
<text text-anchor="middle" x="188.5" y="-283.3" font-family="Times,serif" font-size="14.00" fill="#000000">3</text>
</g>
<!-- 4&#45;&gt;5 -->
<g id="edge26" class="edge">
<title>4&#45;&gt;5</title>
<path fill="none" stroke="#000000" d="M154.7794,-271.3949C166.0258,-260.2668 182.3587,-245.6283 199,-236 220.0396,-223.8269 245.866,-214.8123 266.3941,-208.8483"/>
<polygon fill="#000000" stroke="#000000" points="267.6046,-212.1443 276.2965,-206.0861 265.7238,-205.4017 267.6046,-212.1443"/>
<text text-anchor="middle" x="202.5" y="-239.8" font-family="Times,serif" font-size="14.00" fill="#000000">a</text>
</g>
<!-- 4&#45;&gt;2 -->
<g id="edge23" class="edge">
<title>4&#45;&gt;2</title>
<path fill="none" stroke="#000000" d="M164.7752,-294.266C183.1339,-300.3121 208.2815,-310.0245 228,-323 239.5535,-330.6026 250.7267,-341.0184 259.7355,-350.4557"/>
<polygon fill="#000000" stroke="#000000" points="257.4033,-353.0896 266.7547,-358.0696 262.55,-348.3449 257.4033,-353.0896"/>
<text text-anchor="middle" x="249.5" y="-326.8" font-family="Times,serif" font-size="14.00" fill="#000000">1</text>
</g>
<!-- 5&#45;&gt;6 -->
<g id="edge27" class="edge">
<title>5&#45;&gt;6</title>
<path fill="none" stroke="#000000" d="M302,-181.9735C302,-170.1918 302,-154.5607 302,-141.1581"/>
<polygon fill="#000000" stroke="#000000" points="305.5001,-141.0033 302,-131.0034 298.5001,-141.0034 305.5001,-141.0033"/>
<text text-anchor="middle" x="305.5" y="-152.8" font-family="Times,serif" font-size="14.00" fill="#000000">b</text>
</g>
<!-- 2&#45;&gt;3 -->
<g id="edge14" class="edge">
<title>2&#45;&gt;3</title>
<path fill="none" stroke="#000000" d="M286.5496,-391.7041C288.3683,-397.4566 290.0925,-403.9243 291,-410 297.7691,-455.3181 303.3251,-475.2183 276,-512 266.9463,-524.1869 252.6114,-532.5134 239.1077,-538.0613"/>
<polygon fill="#000000" stroke="#000000" points="237.6654,-534.8633 229.5092,-541.6254 240.1021,-541.4255 237.6654,-534.8633"/>
<text text-anchor="middle" x="299.5" y="-457.3" font-family="Times,serif" font-size="14.00" fill="#000000">2</text>
</g>
<!-- 2&#45;&gt;1 -->
<g id="edge12" class="edge">
<title>2&#45;&gt;1</title>
<path fill="none" stroke="#000000" d="M261.0662,-387.2622C251.838,-393.8886 240.6717,-402.1506 231,-410 219.6102,-419.2438 207.4364,-430.0065 197.276,-439.2559"/>
<polygon fill="#000000" stroke="#000000" points="194.6121,-436.9502 189.6127,-446.2914 199.3461,-442.1067 194.6121,-436.9502"/>
<text text-anchor="middle" x="234.5" y="-413.8" font-family="Times,serif" font-size="14.00" fill="#000000">0</text>
</g>
<!-- 2&#45;&gt;4 -->
<g id="edge15" class="edge">
<title>2&#45;&gt;4</title>
<path fill="none" stroke="#000000" d="M276.3343,-356.1615C273.2065,-345.1847 267.6302,-331.6152 258,-323 245.7912,-312.078 206.043,-301.3551 176.0249,-294.4929"/>
<polygon fill="#000000" stroke="#000000" points="176.3957,-290.9898 165.874,-292.2327 174.8742,-297.8225 176.3957,-290.9898"/>
<text text-anchor="middle" x="271.5" y="-326.8" font-family="Times,serif" font-size="14.00" fill="#000000">3</text>
</g>
<!-- 2&#45;&gt;5 -->
<g id="edge16" class="edge">
<title>2&#45;&gt;5</title>
<path fill="none" stroke="#000000" d="M282.2715,-356.0343C286.092,-325.8176 293.8331,-264.5928 298.4002,-228.4709"/>
<polygon fill="#000000" stroke="#000000" points="301.9258,-228.4887 299.7079,-218.1286 294.9811,-227.6106 301.9258,-228.4887"/>
<text text-anchor="middle" x="296.5" y="-283.3" font-family="Times,serif" font-size="14.00" fill="#000000">a</text>
</g>
<!-- 2&#45;&gt;2 -->
<g id="edge13" class="edge">
<title>2&#45;&gt;2</title>
<path fill="none" stroke="#000000" d="M304.5325,-381.752C315.5078,-382.4902 325,-379.9063 325,-374 325,-370.0317 320.7151,-367.5632 314.5743,-366.5944"/>
<polygon fill="#000000" stroke="#000000" points="314.6472,-363.0949 304.5325,-366.248 314.4059,-370.0908 314.6472,-363.0949"/>
<text text-anchor="middle" x="328.5" y="-370.3" font-family="Times,serif" font-size="14.00" fill="#000000">1</text>
</g>
<!-- 0&#45;&gt;3 -->
<g id="edge4" class="edge">
<title>0&#45;&gt;3</title>
<path fill="none" stroke="#000000" d="M204,-616.9735C204,-605.1918 204,-589.5607 204,-576.1581"/>
<polygon fill="#000000" stroke="#000000" points="207.5001,-576.0033 204,-566.0034 200.5001,-576.0034 207.5001,-576.0033"/>
<text text-anchor="middle" x="207.5" y="-587.8" font-family="Times,serif" font-size="14.00" fill="#000000">2</text>
</g>
<!-- 0&#45;&gt;1 -->
<g id="edge2" class="edge">
<title>0&#45;&gt;1</title>
<path fill="none" stroke="#000000" d="M190.566,-619.2439C180.22,-606.0079 166.7459,-586.0843 161,-566 153.6623,-540.3518 158.8344,-510.0105 164.6838,-488.5561"/>
<polygon fill="#000000" stroke="#000000" points="168.09,-489.3787 167.5578,-478.7973 161.3752,-487.4011 168.09,-489.3787"/>
<text text-anchor="middle" x="164.5" y="-544.3" font-family="Times,serif" font-size="14.00" fill="#000000">0</text>
</g>
<!-- 0&#45;&gt;4 -->
<g id="edge5" class="edge">
<title>0&#45;&gt;4</title>
<path fill="none" stroke="#000000" d="M178.1633,-629.6792C123.2697,-617.631 0,-586.3104 0,-548 0,-548 0,-548 0,-374 0,-325.0923 62.3985,-302.711 103.8797,-293.2358"/>
<polygon fill="#000000" stroke="#000000" points="104.6175,-296.6572 113.6671,-291.1476 103.1569,-289.8113 104.6175,-296.6572"/>
<text text-anchor="middle" x="3.5" y="-457.3" font-family="Times,serif" font-size="14.00" fill="#000000">3</text>
</g>
<!-- 0&#45;&gt;5 -->
<g id="edge6" class="edge">
<title>0&#45;&gt;5</title>
<path fill="none" stroke="#000000" d="M229.9954,-630.0433C286.6055,-618.5062 416,-587.7842 416,-548 416,-548 416,-548 416,-287 416,-246.5521 370.0873,-222.4037 336.5361,-210.1569"/>
<polygon fill="#000000" stroke="#000000" points="337.6125,-206.8259 327.0178,-206.8738 335.33,-213.4433 337.6125,-206.8259"/>
<text text-anchor="middle" x="419.5" y="-413.8" font-family="Times,serif" font-size="14.00" fill="#000000">a</text>
</g>
<!-- 0&#45;&gt;2 -->
<g id="edge3" class="edge">
<title>0&#45;&gt;2</title>
<path fill="none" stroke="#000000" d="M219.9471,-620.1049C245.9382,-594.3803 295.6793,-538.624 307,-479 312.721,-448.8684 315.8771,-439.0359 306,-410 304.6034,-405.8944 302.5653,-401.8549 300.235,-398.0508"/>
<polygon fill="#000000" stroke="#000000" points="303.0059,-395.9046 294.4317,-389.681 297.2534,-399.8932 303.0059,-395.9046"/>
<text text-anchor="middle" x="305.5" y="-500.8" font-family="Times,serif" font-size="14.00" fill="#000000">1</text>
</g>
</g>
</svg>
